<svg width="1440" height="896" viewBox="0 0 1440 896" fill="none" xmlns="http://www.w3.org/2000/svg">
<path d="M1440 39.772C1279.8 149.073 1163.12 155.43 1086.91 141.771C1005.93 127.257 985.61 92.1891 895.105 85.7591C755.715 75.8632 731.668 153.915 609.621 152.661C472.034 151.249 441.683 51.4161 276.559 12.6316C163.401 -13.9433 63.2878 6.77357 0 25.7849V896H1440L1440 39.772Z" fill="url(#paint0_linear_66_1042)" fill-opacity="0.2"/>
<path d="M0.5 26.1568V895.5H1439.5L1439.5 40.7178C1279.61 149.574 1163.05 155.925 1086.83 142.263C1050.93 135.831 1026.93 125.364 1003.52 115.155C1000.47 113.827 997.433 112.503 994.382 111.193C967.895 99.8204 940.246 89.4674 895.069 86.2578C825.496 81.3185 784.728 98.3196 746.072 116.422C743.641 117.561 741.218 118.704 738.796 119.846C702.687 136.88 666.925 153.75 609.616 153.161C540.673 152.453 498.586 127.073 453.141 97.0781C450.429 95.288 447.705 93.4815 444.962 91.6627C401.764 63.0154 353.986 31.3314 276.445 13.1183C163.619 -13.3785 63.7662 7.18716 0.5 26.1568Z" stroke="url(#paint1_linear_66_1042)" stroke-opacity="0.2" style="mix-blend-mode:overlay"/>
<defs>
<linearGradient id="paint0_linear_66_1042" x1="720" y1="-0.191722" x2="720" y2="475.054" gradientUnits="userSpaceOnUse">
<stop stop-color="#FF4975"/>
<stop offset="0.5" stop-color="#2B4AFB"/>
<stop offset="1" stop-color="#2B4AFB" stop-opacity="0"/>
</linearGradient>
<linearGradient id="paint1_linear_66_1042" x1="720" y1="-0.191722" x2="720" y2="475.054" gradientUnits="userSpaceOnUse">
<stop stop-color="white"/>
<stop offset="1" stop-color="white" stop-opacity="0"/>
</linearGradient>
</defs>
</svg>
