<svg width="1440" height="896" viewBox="0 0 1440 896" fill="none" xmlns="http://www.w3.org/2000/svg">
<path d="M0 39.7722C160.195 149.073 276.878 155.43 353.087 141.771C434.072 127.257 454.389 92.1891 544.895 85.759C684.284 75.8631 708.331 153.915 830.378 152.661C967.965 151.249 998.317 51.4161 1163.44 12.6316C1276.6 -13.9434 1376.71 6.77355 1440 25.7848V896H8.58307e-06L0 39.7722Z" fill="url(#paint0_linear_66_1043)" fill-opacity="0.2"/>
<path d="M1439.5 26.1568V895.5H0.500009L0.5 40.7181C160.392 149.574 276.951 155.925 353.175 142.263C389.065 135.831 413.07 125.364 436.484 115.155C439.53 113.827 442.567 112.503 445.618 111.193C472.105 99.8204 499.753 89.4674 544.93 86.2578C614.503 81.3185 655.272 98.3196 693.928 116.422C696.359 117.561 698.782 118.704 701.203 119.846C737.312 136.88 773.075 153.75 830.383 153.161C899.327 152.453 941.413 127.073 986.859 97.0781C989.571 95.288 992.295 93.4814 995.038 91.6626C1038.24 63.0154 1086.01 31.3314 1163.56 13.1183C1276.38 -13.3785 1376.23 7.18715 1439.5 26.1568Z" stroke="url(#paint1_linear_66_1043)" stroke-opacity="0.3" style="mix-blend-mode:overlay"/>
<defs>
<linearGradient id="paint0_linear_66_1043" x1="720" y1="-0.191722" x2="720" y2="475.054" gradientUnits="userSpaceOnUse">
<stop stop-color="#4BFFD2"/>
<stop offset="0.5" stop-color="#2B4AFB"/>
<stop offset="1" stop-color="#2B4AFB" stop-opacity="0"/>
</linearGradient>
<linearGradient id="paint1_linear_66_1043" x1="720" y1="-0.191722" x2="720" y2="475.054" gradientUnits="userSpaceOnUse">
<stop stop-color="white"/>
<stop offset="1" stop-color="white" stop-opacity="0"/>
</linearGradient>
</defs>
</svg>
