<svg width="32" height="32" viewBox="0 0 32 32" fill="none" xmlns="http://www.w3.org/2000/svg">
<path d="M24.5119 12.5679C24.1959 11.8066 23.4879 11.3333 22.6639 11.3333L18.8546 11.4266L21.1426 6.12524C21.4106 5.50524 21.3479 4.79724 20.9773 4.23458C20.6066 3.67058 19.9813 3.33325 19.3066 3.33325H13.3333C12.216 3.33325 11.2893 4.03192 10.9266 5.12392L7.4373 14.0332C7.23063 14.6506 7.33062 15.3066 7.71196 15.8346C8.09329 16.3626 8.68398 16.6666 9.33598 16.6666L13.1013 16.5786L9.2546 27.7839C9.1546 28.0772 9.26928 28.4012 9.53194 28.5652C9.64128 28.6332 9.76263 28.6666 9.8853 28.6666C10.0573 28.6666 10.228 28.5999 10.3573 28.4719L24.08 14.7479C24.6613 14.1653 24.8266 13.3292 24.5119 12.5679Z" fill="url(#paint0_linear_66_979)"/>
<defs>
<linearGradient id="paint0_linear_66_979" x1="7.33185" y1="23.4929" x2="14.1755" y2="23.4929" gradientUnits="userSpaceOnUse">
<stop stop-color="#0CD890"/>
<stop offset="1" stop-color="#01F0FD"/>
</linearGradient>
</defs>
</svg>
