<svg width="18" height="19" viewBox="0 0 18 19" fill="none" xmlns="http://www.w3.org/2000/svg">
<path d="M17.1 2.3H4.50003C4.02264 2.3 3.5648 2.48964 3.22723 2.82721C2.88967 3.16477 2.70002 3.62261 2.70002 4.1C2.70002 4.57739 2.88967 5.03523 3.22723 5.37279C3.5648 5.71036 4.02264 5.9 4.50003 5.9H17.1V17.6C17.1 17.8387 17.0052 18.0676 16.8364 18.2364C16.6676 18.4052 16.4387 18.5 16.2 18.5H4.50003C3.54525 18.5 2.62957 18.1207 1.95444 17.4456C1.27931 16.7705 0.900024 15.8548 0.900024 14.9V4.1C0.900024 3.14522 1.27931 2.22955 1.95444 1.55442C2.62957 0.879285 3.54525 0.5 4.50003 0.5H16.2C16.4387 0.5 16.6676 0.594821 16.8364 0.763604C17.0052 0.932387 17.1 1.16131 17.1 1.4V2.3ZM16.2 5H4.50003C4.26133 5 4.03241 4.90518 3.86363 4.7364C3.69485 4.56761 3.60002 4.33869 3.60002 4.1C3.60002 3.8613 3.69485 3.63239 3.86363 3.4636C4.03241 3.29482 4.26133 3.2 4.50003 3.2H16.2V5Z" fill="#F3F5FF"/>
</svg>
