<svg width="504" height="367" viewBox="0 0 504 367" fill="none" xmlns="http://www.w3.org/2000/svg">
<path d="M364.581 120.812C354.208 117.034 342.83 117.034 332.457 120.812L60.4123 220.098L42.0651 221.671L42.054 234.539C42.054 234.539 42.054 234.556 42.054 234.561V235.114H42.0707C42.2716 239.254 44.6989 243.289 49.3582 244.985L173.224 290.094C183.598 293.872 194.975 293.872 205.349 290.094L489.379 186.445C493.966 184.776 496.315 180.764 496.438 176.685H496.449V163.053L483.62 164.152L364.581 120.801V120.812Z" fill="url(#paint0_linear_66_1368)"/>
<path d="M489.379 155.163L364.581 109.713C354.208 105.935 342.83 105.935 332.457 109.713L49.3636 213.022C39.6208 216.566 39.6208 230.343 49.3636 233.892L173.23 279.001C183.603 282.779 194.981 282.779 205.354 279.001L489.384 175.351C498.809 171.92 498.809 158.594 489.384 155.163H489.379Z" fill="#001F99"/>
<path d="M489.379 154.555L364.581 109.105C354.208 105.327 342.83 105.327 332.457 109.105L49.3636 212.414C39.6208 215.957 39.6208 229.735 49.3636 233.284L173.23 278.393C183.603 282.17 194.981 282.17 205.354 278.393L489.384 174.743C498.809 171.311 498.809 157.986 489.384 154.555H489.379Z" fill="url(#paint1_linear_66_1368)"/>
<path d="M486.807 157.155L364.023 112.436C354.459 108.954 343.968 108.949 334.404 112.436L51.8692 215.422C45.8037 217.631 45.7981 226.214 51.8692 228.423L174.653 273.142C184.217 276.624 194.707 276.629 204.272 273.142L486.801 170.156C492.867 167.947 492.872 159.365 486.801 157.155H486.807Z" fill="url(#paint2_linear_66_1368)"/>
<path d="M84.7236 217.983L88.2893 219.283L92.1842 217.855L88.6185 216.554L84.7236 217.983ZM88.3395 218.876L85.8452 217.966L88.5683 216.967L91.0626 217.877L88.3339 218.876H88.3395Z" fill="#83A8FA"/>
<path d="M89.3497 219.674L92.9154 220.974L96.8103 219.545L93.2446 218.245L89.3497 219.674ZM92.9656 220.567L90.4713 219.657L93.2 218.658L95.6943 219.568L92.9712 220.567H92.9656Z" fill="#83A8FA"/>
<path d="M116.771 229.684L120.336 230.985L124.231 229.556L120.665 228.256L116.771 229.684ZM120.386 230.577L117.892 229.668L120.615 228.669L123.109 229.578L120.381 230.577H120.386Z" fill="#83A8FA"/>
<path d="M107.792 229.835L111.358 231.135L115.252 229.707L111.687 228.406L107.792 229.835ZM111.408 230.728L108.913 229.818L111.642 228.819L114.136 229.729L111.408 230.728Z" fill="#83A8FA"/>
<path d="M79.7186 219.824L83.2843 221.125L87.1792 219.696L83.6135 218.396L79.7186 219.824ZM83.3345 220.717L80.8402 219.808L83.5633 218.809L86.0576 219.718L83.3289 220.717H83.3345Z" fill="#83A8FA"/>
<path d="M84.3447 221.515L87.9104 222.815L91.8053 221.387L88.2396 220.087L84.3447 221.515ZM87.9606 222.408L85.4663 221.498L88.195 220.5L90.6893 221.409L87.9662 222.408H87.9606Z" fill="#83A8FA"/>
<path d="M114.209 227.536L117.004 228.557C115.559 228.462 114.063 228.635 112.903 229.059L113.439 229.255C115.219 228.602 117.339 228.786 118.617 229.143L119.169 228.92L114.794 227.324L114.209 227.536Z" fill="#83A8FA"/>
<path d="M112.843 227.458L114.434 228.038L116.169 227.402L114.579 226.822L112.843 227.458Z" fill="#83A8FA"/>
<path d="M112.285 227.469L114.411 228.245L116.732 227.391L114.606 226.615L112.285 227.469ZM114.461 227.837L113.406 227.452L114.561 227.028L115.616 227.413L114.461 227.837Z" fill="#83A8FA"/>
<path d="M168.944 247.172L170.534 247.753L172.27 247.117L170.685 246.536L168.944 247.172Z" fill="#83A8FA"/>
<path d="M168.386 247.183L170.512 247.959L172.833 247.105L170.707 246.33L168.386 247.183ZM170.562 247.552L169.507 247.167L170.663 246.743L171.717 247.128L170.562 247.552Z" fill="#83A8FA"/>
<path d="M170.741 247.407L177.655 249.934L178.24 249.717L171.327 247.195L170.741 247.407Z" fill="#83A8FA"/>
<path d="M171.712 250.766L173.302 251.346L175.037 250.71L173.447 250.13L171.712 250.766Z" fill="#83A8FA"/>
<path d="M171.154 250.777L173.28 251.552L175.601 250.699L173.475 249.923L171.154 250.777ZM173.33 251.145L172.276 250.76L173.431 250.336L174.485 250.721L173.33 251.145Z" fill="#83A8FA"/>
<path d="M165.841 248.204L174.127 251.229L174.713 251.011L166.427 247.987L165.841 248.204Z" fill="#83A8FA"/>
<path d="M164.067 250.459L165.658 251.039L167.393 250.403L165.803 249.823L164.067 250.459Z" fill="#83A8FA"/>
<path d="M163.504 250.47L165.63 251.246L167.951 250.392L165.825 249.616L163.504 250.47ZM165.68 250.838L164.626 250.453L165.781 250.029L166.835 250.414L165.68 250.838Z" fill="#83A8FA"/>
<path d="M162.527 249.477L170.735 252.473L171.321 252.261L163.107 249.265L162.527 249.477Z" fill="#83A8FA"/>
<path d="M200.119 258.332L205.693 260.369L206.279 260.157L200.705 258.12L200.119 258.332Z" fill="#83A8FA"/>
<path d="M195.081 258.204L203.361 261.228L203.947 261.011L195.661 257.986L195.081 258.204Z" fill="#83A8FA"/>
<path d="M192.787 259.047L201.068 262.071L201.654 261.853L193.368 258.829L192.787 259.047Z" fill="#83A8FA"/>
<path d="M190.567 259.917L198.775 262.914L199.361 262.696L191.152 259.699L190.567 259.917Z" fill="#83A8FA"/>
<path d="M142.802 231.08C133.796 231.08 126.497 234.695 126.497 239.154C126.497 243.612 133.796 247.228 142.802 247.228C151.808 247.228 159.107 243.612 159.107 239.154C159.107 234.695 151.808 231.08 142.802 231.08Z" fill="#2848BD"/>
<path d="M135.844 240.46L137.071 240.929L149.141 236.604L147.913 236.135L135.844 240.46Z" fill="white"/>
<path d="M136.391 236.855L147.897 240.744L149.141 240.214L137.641 236.319L136.391 236.855Z" fill="white"/>
<path d="M103.843 242.429L148.031 258.316L149.158 257.83L104.97 241.949L103.843 242.429Z" fill="#83A8FA"/>
<path d="M275.837 70.3125L134.969 19.0374C130.371 17.3634 126.649 20.3097 126.649 25.6163V66.5349C126.649 71.8415 130.376 77.4997 134.969 79.1737L267.908 127.558L282.868 161.703L284.101 161.106L284.157 133.473V82.9514C284.157 77.6447 280.429 71.9866 275.837 70.3125Z" fill="#001F99"/>
<path d="M497.873 278.276C491.389 274.52 484.654 273.627 478.951 266.753C474.928 261.909 471.943 255.648 471.943 255.648L463.277 259.504C466.162 262.802 465.364 267.355 466.653 269.755C469.259 274.593 469.672 276.384 471.926 277.433C480.486 281.423 486.853 288.816 491.322 290.15C498.833 292.393 502.438 289.369 503.314 288.493C504.19 287.617 503.799 281.713 497.868 278.276H497.873Z" fill="#2848BD"/>
<path d="M496.83 277.634C490.346 273.878 482.846 270.034 477.138 263.159C473.115 258.316 470.13 252.055 470.13 252.055L460.069 258.717C462.954 262.015 463.551 263.762 464.845 266.161C467.451 270.999 467.864 272.79 470.118 273.839C478.678 277.829 485.045 285.223 489.515 286.562C497.025 288.805 500.63 285.781 501.506 284.905C502.382 284.029 502.762 281.077 496.824 277.639L496.83 277.634Z" fill="url(#paint3_linear_66_1368)"/>
<path d="M434.21 216.778C444.014 228.072 459.287 257.892 460.074 258.717C463.583 262.406 473.773 256.697 471.602 253.556C459.789 236.442 450.593 177.355 435.326 170.564C424.501 165.748 354.873 137.909 354.873 137.909L343.981 163.064L422.246 186.657C422.246 186.657 425.159 206.36 434.21 216.783V216.778Z" fill="url(#paint4_linear_66_1368)"/>
<path d="M305.634 156.547C306.047 176.975 325.087 189.296 341.213 190.786C362.272 192.728 400.306 202.532 403.843 205.344C407.376 208.156 404.095 204.608 400.797 225.109C398.286 240.699 413.101 261.926 408.118 286.311C407.147 291.059 421.99 291.059 421.99 288.604C421.99 274.548 425.299 218.546 428.251 204.647C431.348 190.083 422.927 183.085 411.962 177.349C405.718 174.085 364.37 155.503 361.374 152.501C355.682 146.809 354.867 137.904 354.867 137.904L312.18 136.486C312.18 136.486 305.528 151.273 305.634 156.547Z" fill="url(#paint5_linear_66_1368)"/>
<path d="M443.473 301.232C437.134 299.865 423.585 298.989 421.99 291.679C421.817 291.757 413.363 294.151 408.118 289.385C406.572 296.517 401.773 305.846 408.742 307.28C425.806 310.79 429.802 311.778 439.857 311.081C451.168 310.299 451.475 302.956 443.473 301.232Z" fill="#2848BD"/>
<path d="M442.842 300.345C436.503 298.977 423.585 295.914 421.99 288.604C421.817 288.682 413.363 291.076 408.118 286.311C406.572 293.442 401.773 302.772 408.742 304.206C425.806 307.716 429.802 308.704 439.857 308.006C451.168 307.225 450.844 302.069 442.842 300.345Z" fill="url(#paint6_linear_66_1368)"/>
<path d="M274.547 71.1103L133.679 19.8408C129.081 18.1668 125.359 21.113 125.359 26.4197V67.3326C125.359 72.6393 129.087 78.2974 133.679 79.9714L266.618 128.356L282.867 161.697V83.7547C282.867 78.4481 279.14 72.7899 274.547 71.1159V71.1103Z" fill="url(#paint7_linear_66_1368)"/>
<g style="mix-blend-mode:multiply" opacity="0.22">
<path d="M141.151 43.0204L231.704 75.9818V70.3403L141.151 37.3845V43.0204Z" fill="#72ABFE"/>
</g>
<g style="mix-blend-mode:multiply" opacity="0.22">
<path d="M141.151 55.1068L231.704 88.0682V82.4267L141.151 49.4653V55.1068Z" fill="#72ABFE"/>
</g>
<g style="mix-blend-mode:multiply" opacity="0.22">
<path d="M141.151 67.1931L205.874 90.8413V85.1999L141.151 61.5516V67.1931Z" fill="#72ABFE"/>
</g>
<path d="M329.724 1.38189C315.104 -1.79316 320.718 15.3209 310.049 19.1153C299.38 22.9097 292.812 20.0862 291.501 31.2742C290.189 42.4622 285.418 35.7662 274.52 41.4132C268.126 44.7277 267.646 51.5522 271.401 54.4426C275.157 57.3387 279.888 47.9865 291.467 56.3398C303.978 65.3628 314.223 62.0203 314.859 50.4138C315.495 38.8073 315.082 36.9603 321.599 36.6869C328.117 36.4135 331.085 26.1462 332.101 18.1165C333.111 10.0924 338.752 9.85241 338.752 9.85241C338.752 9.85241 340.906 3.80921 329.718 1.37631L329.724 1.38189Z" fill="#FF6984"/>
<path d="M327.308 5.89618C326.56 9.79106 325.098 19.5171 318.402 22.7145C311.706 25.9174 304.285 24.1709 302.828 33.4114C301.372 42.652 296.277 44.2535 286.233 42.9477C277.601 41.8206 268.327 48.0033 274.476 54.7886C277.936 53.7786 282.774 50.0567 291.473 56.3343C303.984 65.3572 314.229 62.0148 314.865 50.4083C315.501 38.8018 315.088 36.9548 321.605 36.6813C328.123 36.4079 331.091 26.1406 332.107 18.1109C332.916 11.6827 336.694 10.2542 338.167 9.93614C338.195 9.37256 338.161 8.91499 338.05 8.59135C335.818 2.09059 328.056 1.99014 327.308 5.8906V5.89618Z" fill="url(#paint8_linear_66_1368)"/>
<path d="M373.521 0.991369C369.71 3.68654 365.023 8.32914 351.726 12.9717C337.357 17.9882 342.251 29.6952 350.13 35.9114C358.009 42.1275 359.594 42.7246 355.66 47.7969C351.726 52.8691 357.172 60.1902 362.261 64.9165C367.35 69.6484 363.946 74.0343 363.946 74.0343C363.946 74.0343 366.898 78.6546 375.72 71.3782C387.248 61.8698 371.473 57.6736 375.53 47.7187C379.587 37.7639 385.758 34.1815 378.599 27.664C371.44 21.1465 379.246 20.8396 382.12 9.79112C383.805 3.31267 378.236 -2.3455 373.521 0.985789V0.991369Z" fill="#FF6984"/>
<path d="M435.383 77.1591C433.262 76.0486 431.482 75.8924 429.959 76.1714C427.71 76.5899 426.019 77.957 424.619 78.6155C422.264 79.7203 420.724 77.5106 420.551 75.5687C420.378 73.6269 420.361 72.7731 418.765 73.1805C417.17 73.5878 417.934 76.8577 417.588 78.9223C417.248 80.987 417.326 82.6275 417.588 84.999C417.845 87.3706 391.786 98.5809 390.748 99.3063C389.71 100.032 374.08 72.7899 366.821 63.3149L369.588 95.2273C369.588 95.2273 382.099 114.897 386.942 116.604C388.767 117.246 389.66 116.18 393.895 113.201C398.13 110.226 417.32 95.7518 420.026 93.7709C423.257 91.4049 424.647 92.9841 428.19 92.3591C431.733 91.7397 435.048 85.1218 434.183 82.873C433.318 80.6243 430.121 79.4692 432.024 78.9837C433.921 78.4983 435.176 80.2895 436.867 80.7247C438.558 81.1544 440.639 79.9156 435.388 77.1646L435.383 77.1591Z" fill="url(#paint9_linear_66_1368)"/>
<path d="M368.951 4.38965C365.458 6.88393 360.442 9.92506 351.726 12.9718C337.357 17.9882 342.251 29.6952 350.13 35.9114C358.009 42.1276 359.594 42.7246 355.66 47.7969C351.726 52.8692 357.172 60.1902 362.261 64.9165C362.685 65.3127 363.048 65.7089 363.366 66.0995C367.461 64.2804 370.391 60.3799 370.86 55.7485C371.15 52.8413 371.507 49.7053 371.92 46.9376C373.014 39.5552 365.391 22.0505 368.957 4.38965H368.951Z" fill="url(#paint10_linear_66_1368)"/>
<path style="mix-blend-mode:multiply" d="M423.815 80.68C418.86 81.4389 421.008 87.5045 419.234 88.1517C417.459 88.799 389.643 103.24 387.662 103.96C385.681 104.68 382.283 97.3867 376.318 87.0971L368.935 87.7835L369.583 95.2217C369.583 95.2217 382.093 114.891 386.937 116.599C388.761 117.241 389.654 116.175 393.889 113.195C398.125 110.221 417.314 95.7462 420.021 93.7653C420.914 93.1124 421.661 92.7664 422.353 92.5823C422.353 92.5823 418.91 83.4701 428.703 80.3452C430.662 79.7203 426.003 80.3452 423.81 80.68H423.815Z" fill="url(#paint11_linear_66_1368)"/>
<path d="M353.556 56.2117C350.197 58.3321 352.552 63.1588 354.293 72.0813C356.268 82.1924 362.289 92.6383 362.289 92.6383C362.289 92.6383 369.576 94.9205 382.338 86.1487C382.338 86.1487 376.803 73.3815 372.947 66.6464C370.531 62.4278 357.669 53.6114 353.562 56.2061L353.556 56.2117Z" fill="url(#paint12_linear_66_1368)"/>
<path d="M339.818 6.45418C334.288 4.90293 329.434 14.2495 342.357 20.9288L348.177 11.3423C348.177 11.3423 346.235 8.25096 339.824 6.45418H339.818Z" fill="white"/>
<path d="M360.129 14.3723L370.86 17.6255C370.86 17.6255 373.371 14.9749 373.516 8.31793C373.644 2.57605 363.383 0.198952 360.129 14.3723Z" fill="white"/>
<path d="M358.428 6.45439C350.124 3.24585 338.914 14.5901 337.519 22.3408C336.124 30.0915 341.933 42.987 341.498 48.595L363.31 15.9907C363.31 15.9907 370.893 11.2756 358.433 6.45997L358.428 6.45439Z" fill="#FF6984"/>
<path d="M330.22 46.2736C339.896 51.4017 358.656 63.3095 358.656 63.3095L362.585 58.7618C370.709 63.3096 370.72 67.2937 372.941 77.1313C380.831 112.057 370.062 103.759 359.716 137.385C356.151 148.98 304.73 158.148 311.89 135.794C315.383 124.891 319.071 105.121 315.405 92.2812C311.739 79.4415 307.403 74.7821 324.556 58.918L330.22 46.2681V46.2736Z" fill="url(#paint13_linear_66_1368)"/>
<g style="mix-blend-mode:multiply">
<path d="M330.22 46.2734L324.556 58.9234C307.409 74.7875 311.739 79.4469 315.405 92.2866C319.071 105.126 317.046 81.6175 321.655 73.3758C326.27 65.1284 339.148 70.9484 342.541 54.504L342.173 53.1481C337.865 50.5645 333.512 48.0256 330.209 46.279L330.22 46.2734Z" fill="#C2DBFF"/>
</g>
<path d="M347.558 40.939C347.558 35.3813 346.621 35.7719 346.621 35.7719C346.113 34.2039 346.833 31.4752 343.931 30.6773C338.234 29.1205 339.143 43.1934 341.928 42.9813C345.505 42.7135 337.793 53.6057 337.793 53.6057C336.621 57.6457 358.657 63.3095 358.657 63.3095C357.825 57.5006 360.922 50.905 361.754 46.759C362.39 43.5672 352.736 40.5038 347.564 40.939H347.558Z" fill="url(#paint14_linear_66_1368)"/>
<mask id="mask0_66_1368" style="mask-type:luminance" maskUnits="userSpaceOnUse" x="337" y="30" width="25" height="34">
<path d="M347.558 40.939C347.558 35.3813 346.621 35.7719 346.621 35.7719C346.113 34.2039 346.833 31.4752 343.931 30.6773C338.234 29.1205 339.143 43.1934 341.928 42.9813C345.505 42.7135 337.793 53.6057 337.793 53.6057C336.621 57.6457 358.657 63.3095 358.657 63.3095C357.825 57.5006 360.922 50.905 361.754 46.759C362.39 43.5672 352.736 40.5038 347.564 40.939H347.558Z" fill="white"/>
</mask>
<g mask="url(#mask0_66_1368)">
<path style="mix-blend-mode:multiply" d="M345.393 20.9624C319.83 64.0125 348.456 63.767 354.215 64.8328L349.762 50.0401L345.393 20.9624Z" fill="url(#paint15_linear_66_1368)"/>
</g>
<path d="M359.243 55.7486C359.137 56.2005 357.803 59.0966 358.651 63.3095C358.651 63.3095 361.151 62.5506 362.373 59.5318C363.595 56.513 359.349 55.3021 359.237 55.7541L359.243 55.7486Z" fill="#3486FE"/>
<path style="mix-blend-mode:multiply" d="M342.357 34.5777C341.615 36.1848 341.252 42.1889 344.806 41.3854C349.215 40.3922 345.543 36.2294 345.543 36.2294C343.646 32.6191 343.099 32.9763 342.357 34.5777Z" fill="url(#paint16_linear_66_1368)"/>
<path d="M348.78 24.9689C346.336 37.3343 343.473 41.8318 347.162 47.9978C352.58 57.0654 354.533 57.2774 359.203 58.1033C363.774 58.9124 370.732 47.3226 371.943 44.9511C373.873 41.1678 372.356 40.8218 373.332 36.7651C373.957 34.1592 374.666 34.07 375.397 28.9028C377.355 15.1313 351.776 9.80789 348.78 24.9689Z" fill="url(#paint17_linear_66_1368)"/>
<mask id="mask1_66_1368" style="mask-type:luminance" maskUnits="userSpaceOnUse" x="345" y="15" width="31" height="44">
<path d="M348.781 24.9688C346.337 37.3342 343.474 41.8317 347.163 47.9977C352.581 57.0652 354.534 57.2773 359.204 58.1031C363.775 58.9122 370.733 47.3225 371.944 44.9509C373.874 41.1677 372.357 40.8217 373.333 36.765C373.958 34.1591 374.667 34.0698 375.398 28.9027C377.356 15.1311 351.777 9.80777 348.781 24.9688Z" fill="white"/>
</mask>
<g mask="url(#mask1_66_1368)">
<path style="mix-blend-mode:multiply" d="M346.475 9.7463V35.1188C343.166 37.4401 327.079 33.9135 331.258 39.209C345.342 57.0428 361.128 61.8696 359.203 58.1031C355.671 51.195 355.208 48.1706 355.744 46.2678C359.203 33.9972 354.114 32.7529 365.096 29.1984C368.455 28.1103 373.695 36.9881 377.227 36.977C379.833 36.9714 383.934 28.9975 383.934 28.9975L375.508 6.23645L346.481 9.74072L346.475 9.7463Z" fill="url(#paint18_linear_66_1368)"/>
</g>
<path d="M346.475 35.119C349.03 37.0497 352.501 36.235 354.889 32.6079C357.283 28.9809 361.139 18.256 368.7 23.4287C370.112 24.3941 373.655 20.2091 371.78 29.5222C370.62 35.2975 372.132 41.3296 374.989 47.1161C377.846 52.9026 379.269 53.6894 377.511 60.949C381.445 54.2362 385.898 51.9428 383.454 42.2391C381.495 34.4549 389.106 25.3539 386.328 18.5295C383.549 11.6995 371.027 4.13849 361.781 9.77435C361.781 9.77435 356.591 7.60929 351.726 12.9773C343.646 21.8886 346.475 35.1245 346.475 35.1245V35.119Z" fill="#FF6984"/>
<mask id="mask2_66_1368" style="mask-type:luminance" maskUnits="userSpaceOnUse" x="345" y="7" width="42" height="54">
<path d="M346.473 35.119C349.029 37.0497 352.5 36.235 354.888 32.6079C357.282 28.9809 361.137 18.256 368.698 23.4287C370.11 24.3941 373.654 20.2091 371.779 29.5222C370.618 35.2975 372.13 41.3296 374.987 47.1161C377.844 52.9026 379.267 53.6894 377.509 60.949C381.443 54.2362 385.896 51.9428 383.452 42.2391C381.493 34.4549 389.105 25.3539 386.326 18.5295C383.547 11.6995 371.025 4.13849 361.779 9.77435C361.779 9.77435 356.59 7.60929 351.724 12.9773C343.644 21.8886 346.473 35.1245 346.473 35.1245V35.119Z" fill="white"/>
</mask>
<g mask="url(#mask2_66_1368)">
<path d="M376.668 32.5185C380.133 19.9634 367.455 11.0465 363.588 12.9995C362.227 13.6859 369.832 20.3652 364.364 19.757C358.895 19.1431 355.748 31.1961 349.019 37.641L374.759 50.2966C374.759 50.2966 380.033 52.8467 377.51 60.9489C384.619 52.4672 374.475 40.4645 376.668 32.5185Z" fill="url(#paint19_linear_66_1368)"/>
</g>
<path d="M339.149 53.3043C339.752 51.6024 340.566 50.4138 341.682 47.289C337.553 45.7601 330.729 45.1184 330.221 46.2734C328.764 49.5657 334.339 53.9516 341.866 57.5228C341.866 57.5228 338.457 55.2517 339.154 53.3043H339.149Z" fill="#3486FE"/>
<g style="mix-blend-mode:multiply">
<path d="M316.594 98.5697C316.733 99.323 317.096 99.7081 317.615 99.8197C316.812 97.6211 316.276 96.9125 316.594 98.5697Z" fill="#C2DBFF"/>
</g>
<g style="mix-blend-mode:multiply">
<path d="M343.4 113.273C336.654 112.341 340.27 93.3635 334.143 86.0369C334.143 86.0369 321.46 100.634 317.621 99.8252C319.847 105.907 324.166 123.379 318.486 133.618C316.008 138.082 315.45 143.578 315.45 146.882C323.519 153.935 352.82 145.386 357.557 135.231C370.04 108.485 352.909 114.596 343.4 113.279V113.273Z" fill="#C2DBFF"/>
</g>
<path d="M359.717 126.291L345.794 127.525C345.794 127.525 337.324 109.295 333.619 96.1424C329.908 82.9902 325.388 63.3149 325.388 63.3149C311.594 69.4921 309.837 78.3755 313.642 94.6358C316.019 104.797 323.859 119.277 329.434 129.623C332.782 135.833 333.574 141.034 336.749 141.586C357.172 145.107 378.142 134.879 407.538 126.972C407.538 126.972 407.733 123.379 405.071 119.791C405.071 119.791 372.4 125.175 359.711 126.297L359.717 126.291Z" fill="url(#paint20_linear_66_1368)"/>
<path style="mix-blend-mode:multiply" d="M342.591 133.752C339.545 131.191 328.212 114.462 322.28 98.5754L315.534 100.835C318.915 110.148 324.914 121.242 329.434 129.623C332.782 135.833 333.574 141.034 336.749 141.587C350.409 143.941 364.32 140.141 380.826 135.008C367.328 136.431 345.632 136.319 342.586 133.758L342.591 133.752Z" fill="url(#paint21_linear_66_1368)"/>
<path d="M331.113 75.0665C331.264 74.6201 326.677 61.998 326.677 61.998C313.569 66.2556 311.895 72.0979 311.895 81.1879C311.895 91.4886 315.801 102.894 315.801 102.894C315.801 102.894 322.52 106.527 336.721 100.367C336.721 100.367 330.968 75.5129 331.119 75.061L331.113 75.0665Z" fill="url(#paint22_linear_66_1368)"/>
<g style="mix-blend-mode:multiply">
<path d="M311.891 81.2269C311.891 91.55 315.797 102.984 315.797 102.984C315.797 102.984 318.202 104.284 323.162 104.01C321.756 96.7952 318.43 74.196 328.915 68.2867C327.794 65.1005 326.672 61.9924 326.672 61.9924C313.565 66.2612 311.885 72.1147 311.885 81.2269H311.891Z" fill="#C2DBFF"/>
</g>
<path d="M435.003 99.7193C434.719 99.3844 434.239 99.2059 433.742 99.3845L421.779 103.742C420.038 104.373 418.592 105.623 417.711 107.247L404.185 132.156C403.861 132.753 404.19 133.3 404.603 133.685C404.832 133.903 405.954 135.365 406.327 135.208L417.99 128.484C419.535 127.826 420.819 126.671 421.633 125.203L436.8 101.929C437.057 101.466 435.293 100.054 435.003 99.7137V99.7193Z" fill="#2848BD"/>
<path d="M435.265 100.913L423.302 105.266C421.561 105.896 420.115 107.146 419.234 108.77L405.708 133.68C405.194 134.628 406.165 135.699 407.158 135.275L419.513 130.008C421.058 129.349 422.342 128.194 423.156 126.727L436.655 102.537C437.168 101.617 436.258 100.545 435.265 100.908V100.913Z" fill="#172182"/>
<path d="M424.73 116.376C425.483 114.255 424.267 113.859 423.53 114.216C422.793 114.573 422.899 116.66 420.963 117.977C419.027 119.294 411.672 119.183 412.766 116.432C413.86 113.686 413.687 111.878 411.622 113.753C409.558 115.628 409.078 117.52 404.736 120.12C404.736 120.12 402.867 125.728 407.331 126.944C411.795 128.161 419.903 128.295 421.577 127.469C423.251 126.638 423.117 123.63 424.373 121.682C425.628 119.735 425.745 117.548 425.483 116.878C425.226 116.208 424.73 116.37 424.73 116.37V116.376Z" fill="url(#paint23_linear_66_1368)"/>
<path d="M116.56 86.1376C117.029 68.1085 112.693 67.0036 111.516 69.537C102.448 89.0337 96.0978 118.189 95.8244 123.172C95.551 128.155 93.8881 127.949 94.502 130.159C95.1102 132.363 87.6217 130.973 90.5289 136.782C92.4262 140.577 108.541 157.027 115.36 150.269C122.179 143.512 119.16 128.412 120.326 124.992C121.493 121.571 120.935 118.647 120.935 118.647C120.935 118.647 116.13 102.738 116.56 86.1432V86.1376Z" fill="#C2DBFF"/>
<path d="M58.0473 341.057C56.9983 345.381 56.1724 361.279 53.1201 362.574C50.0678 363.868 32.2842 366.128 23.7579 366.117C15.2371 366.106 4.28348 360.52 2.71549 357.697C-0.091278 352.652 -2.38468 348.724 4.71873 349.427C15.0307 350.448 31.4416 344.851 35.2472 337.441C39.0528 330.025 58.0473 341.057 58.0473 341.057Z" fill="url(#paint24_linear_66_1368)"/>
<mask id="mask3_66_1368" style="mask-type:luminance" maskUnits="userSpaceOnUse" x="0" y="334" width="59" height="33">
<path d="M58.0474 341.057C56.9984 345.381 56.1725 361.279 53.1202 362.574C50.068 363.868 32.2843 366.128 23.758 366.117C15.2373 366.106 4.28361 360.52 2.71561 357.697C-0.0911559 352.652 -2.38456 348.724 4.71885 349.427C15.0308 350.448 31.4417 344.851 35.2473 337.441C39.0529 330.025 58.0474 341.057 58.0474 341.057Z" fill="white"/>
</mask>
<g mask="url(#mask3_66_1368)">
<path d="M61.0493 354.628C53.7952 358.707 46.4072 359.521 39.7558 360.442C33.1043 361.363 25.8112 363.093 21.6429 362.802C14.6902 362.317 2.83813 354.979 0.572633 350.069C-1.40271 345.789 -8.74048 352.513 -8.74048 352.513L7.80996 369.27L53.5273 369.426C53.5273 369.426 68.56 365.286 68.0578 364.61C67.5556 363.93 61.0493 354.639 61.0493 354.639V354.628Z" fill="#2848BD"/>
</g>
<path d="M89.6467 305.239C90.121 309.273 93.0561 316.332 91.2091 318.452C89.3565 320.573 69.486 330.516 63.2865 333.346C57.0815 336.175 46.2674 333.463 44.4483 332.123C42.6236 330.784 47.2439 326.527 53.8786 321.962C60.5133 317.403 68.236 312.37 68.8778 304.776C69.5195 297.181 89.6523 305.239 89.6523 305.239H89.6467Z" fill="url(#paint25_linear_66_1368)"/>
<mask id="mask4_66_1368" style="mask-type:luminance" maskUnits="userSpaceOnUse" x="44" y="301" width="48" height="34">
<path d="M89.6462 305.239C90.1205 309.273 93.0556 316.332 91.2086 318.452C89.3561 320.573 69.4855 330.516 63.2861 333.345C57.081 336.174 46.2669 333.463 44.4478 332.123C42.6231 330.784 47.2434 326.527 53.8781 321.962C60.5128 317.403 68.2356 312.37 68.8773 304.776C69.519 297.181 89.6518 305.239 89.6518 305.239H89.6462Z" fill="white"/>
</mask>
<g mask="url(#mask4_66_1368)">
<path d="M92.5754 310.841C88.4684 316.734 79.3729 320.5 74.7973 323.502C70.2217 326.504 59.8372 332.347 56.4891 332.224C53.1467 332.101 51.0319 328.848 46.8189 328.937C42.6004 329.021 41.1942 332.285 41.1942 332.285L58.046 341.063L91.3477 325.963C91.3477 325.963 101.096 317.426 100.533 317.013C99.9689 316.6 92.5698 310.841 92.5698 310.841H92.5754Z" fill="#2848BD"/>
</g>
<path d="M135.37 166.396C131.776 169.124 105.07 178.097 78.5874 196.517C50.9438 215.746 55.8878 220.187 57.785 229.433C61.6687 248.339 75.5351 283.627 72.0532 302.404C71.3445 306.209 89.6471 307.794 89.6471 305.238C89.6471 302.527 89.8926 299.776 90.4283 292.003C94.139 237.798 81.6955 237.882 86.5278 234.104C108.926 216.616 162.818 211.365 182.449 190.451C211.214 159.806 154.66 151.742 135.37 166.396Z" fill="url(#paint26_linear_66_1368)"/>
<path d="M144.27 171.066C139.957 172.4 130.192 182.901 93.8936 205.261C65.2233 222.922 58.8676 228.97 58.0473 240.711C56.3677 264.727 47.8414 314.976 38.2716 334.472C36.6311 337.815 53.7116 349.181 58.0473 341.062C95.1045 271.669 85.9811 248.852 91.8123 246.933C118.831 238.055 151.965 223.602 177.26 209.317C188.844 202.778 189.865 179.726 188.336 173.566C184.971 160.012 160.185 166.139 144.27 171.066Z" fill="url(#paint27_linear_66_1368)"/>
<path d="M168.639 85.5795C164.019 91.8292 168.789 100.718 167.032 109.764C165.112 119.635 162.981 133.35 162.981 133.35C155.872 132.993 142.161 132.787 130.203 132.374C125.444 132.206 122.553 139.087 126.342 140.95C137.346 146.352 150.933 146.391 159.661 148.539C167.216 150.397 169.308 149.203 172.461 142.111C174.911 136.604 175.502 125.6 179.202 114.652C182.901 103.704 188.627 87.7111 182.137 80.6189C175.647 73.5266 173.259 79.3299 168.639 85.5795Z" fill="#95BDE5"/>
<path d="M141.726 50.8771L123.413 58.717L112.682 84.2793L159.437 61.3006L157.468 51.5076C152.663 49.0133 141.726 50.8771 141.726 50.8771Z" fill="#001F99"/>
<path d="M103.23 37.1949C91.8185 28.5849 101.087 19.8633 108.826 11.8168C111.896 8.63061 125.165 -0.732716 132.196 8.04471C136.598 6.7613 140.504 8.53575 143.719 18.1558C147.725 30.1752 144.165 35.9282 144.505 46.3295L110.484 34.7508L103.224 37.1949H103.23Z" fill="url(#paint28_linear_66_1368)"/>
<mask id="mask5_66_1368" style="mask-type:luminance" maskUnits="userSpaceOnUse" x="97" y="4" width="49" height="43">
<path d="M103.231 37.195C91.8194 28.585 101.088 19.8634 108.827 11.8169C111.896 8.63074 125.166 -0.732594 132.197 8.04483C136.599 6.76142 140.505 8.53588 143.72 18.1559C147.726 30.1753 144.166 35.9284 144.506 46.3296L110.485 34.751L103.225 37.195H103.231Z" fill="white"/>
</mask>
<g mask="url(#mask5_66_1368)">
<g style="mix-blend-mode:multiply">
<path d="M124.306 18.2341C124.462 16.7721 126.873 12.0681 130.238 8.79821C130.388 7.15209 128.552 5.91332 125.07 8.5192C120.679 11.8003 120.791 15.2711 117.203 22.5865C113.933 29.2547 112.203 28.055 105.2 32.6083C103.091 33.981 102.265 37.7141 102.265 37.7141L114.323 37.2174L136.136 38.9249L137.508 38.3892C133.178 33.3951 123.547 25.3319 124.3 18.2341H124.306Z" fill="#95BDE5"/>
</g>
</g>
<path d="M132.564 41.3858C136.492 38.54 138.032 37.53 138.032 37.53C138.333 35.9676 137.803 32.5526 140.688 31.3529C146.341 28.9981 147.401 42.4683 144.505 42.7027C140.777 43.004 148.266 57.9307 156.792 62.2775C162.082 64.9727 137.887 73.4599 131.71 72.3774C121.013 70.5081 131.821 54.4096 124.59 49.3429C121.922 47.4736 127.162 41.7708 132.564 41.3802V41.3858Z" fill="url(#paint29_linear_66_1368)"/>
<mask id="mask6_66_1368" style="mask-type:luminance" maskUnits="userSpaceOnUse" x="123" y="31" width="35" height="42">
<path d="M132.563 41.3858C136.491 38.54 138.031 37.53 138.031 37.53C138.332 35.9676 137.802 32.5526 140.687 31.3529C146.34 28.9981 147.4 42.4683 144.504 42.7027C140.776 43.004 148.265 57.9307 156.791 62.2775C162.081 64.9727 137.886 73.4599 131.709 72.3774C121.012 70.5081 131.82 54.4096 124.589 49.3429C121.921 47.4736 127.161 41.7708 132.563 41.3802V41.3858Z" fill="white"/>
</mask>
<g mask="url(#mask6_66_1368)">
<path style="mix-blend-mode:multiply" d="M131.821 54.4151C145.626 54.6383 147.34 76.2554 147.34 76.2554C163.405 72.6619 181.082 67.8351 143.406 23.4067C143.406 23.4067 117.347 54.1807 131.827 54.4151H131.821Z" fill="url(#paint30_linear_66_1368)"/>
</g>
<g style="mix-blend-mode:multiply">
<path d="M139.488 37.7866C139.46 38.8468 139.739 41.1234 141.307 41.6368C144.862 42.7919 143.863 36.213 142.87 34.8068C141.871 33.4006 139.594 33.7299 139.488 37.7921V37.7866Z" fill="#95BDE5"/>
</g>
<path d="M130.61 35.6774C135.325 41.715 142.747 41.8545 139.817 48.266C135.515 57.6963 133.534 58.1985 128.83 59.7051C124.232 61.1782 116.102 53.2099 114.858 50.95C112.374 46.4469 112.263 43.7238 111.219 41.6704C110.042 39.3602 108.887 39.4551 107.972 34.539C107.972 34.539 112.207 33.3003 115.778 29.5393C117.915 27.2906 120.705 27.1343 123.97 28.6298C127.301 30.1587 127.234 31.3584 130.605 35.6774H130.61Z" fill="url(#paint31_linear_66_1368)"/>
<mask id="mask7_66_1368" style="mask-type:luminance" maskUnits="userSpaceOnUse" x="107" y="27" width="34" height="33">
<path d="M130.609 35.6776C135.324 41.7152 142.746 41.8547 139.816 48.2662C135.514 57.6965 133.533 58.1987 128.829 59.7053C124.231 61.1785 116.101 53.2101 114.857 50.9502C112.373 46.4471 112.262 43.7241 111.218 41.6706C110.041 39.3605 108.886 39.4553 107.971 34.5393C107.971 34.5393 112.206 33.3005 115.777 29.5396C117.914 27.2908 120.705 27.1346 123.969 28.63C127.3 30.1589 127.233 31.3587 130.604 35.6776H130.609Z" fill="white"/>
</mask>
<g mask="url(#mask7_66_1368)">
<path style="mix-blend-mode:multiply" d="M109.947 29.8631C106.381 46.1401 126.765 33.2056 126.112 38.0658C124.594 49.3542 130.559 48.8744 130.018 52.8585C128.735 62.3613 121.43 67.3667 121.832 67.216L132.518 60.28C130.269 59.2812 155.508 59.1807 152.667 54.4042C149.749 49.5105 157.483 46.793 157.383 44.4047C155.759 4.91469 111.665 22.051 109.952 29.8631H109.947Z" fill="url(#paint32_linear_66_1368)"/>
</g>
<path d="M150.704 66.7022C125.695 76.5901 126.878 61.8141 126.878 61.8141L110.913 89.4075L120.276 174.821C120.276 174.821 149.901 199.195 188.894 181.919C188.894 181.919 175.714 56.8144 150.704 66.7022Z" fill="#C2DBFF"/>
<g style="mix-blend-mode:multiply">
<path d="M127.921 105.528C126.23 94.251 127.463 73.8168 127.463 73.8168C127.463 73.8168 127.497 61.3007 124.048 59.8834C121.426 58.8065 117.643 76.9472 117.643 76.9472C117.643 76.9472 124.032 150.81 120.979 167.355C119.635 174.654 120.276 174.816 120.276 174.816C120.276 174.816 134.232 160.821 131.894 147.881C129.55 134.941 129.612 116.8 127.921 105.523V105.528Z" fill="#C2DBFF"/>
</g>
<path d="M191.065 110.416C191.305 102.214 185.702 69.3583 178.152 66.5683C170.056 63.5774 169.23 62.7404 166.853 60.7762C164.476 58.8064 157.473 51.5133 157.473 51.5133C157.473 51.5133 153.701 60.9213 140.091 67.316C140.091 67.316 144.918 76.9137 145.398 81.3275C146.095 87.7613 138.674 36.9159 154.939 199.201C154.939 199.201 194.803 191.718 193.062 179.252C189.151 151.262 189.742 155.715 191.076 110.416H191.065Z" fill="#2848BD"/>
<path d="M123.061 59.3923C123.351 58.9627 123.412 58.7172 123.412 58.7172C123.412 58.7172 123.256 58.9683 123.061 59.3923Z" fill="#0D146E"/>
<path d="M123.06 59.3924C122.363 60.4192 120.332 62.5228 114.539 65.006C106.744 68.3428 108.742 86.969 108.664 95.5846C108.48 115.45 116.905 137.898 117.703 158.221C118.228 171.485 120.705 166.619 107.553 175.597V187.628C114.874 185.513 125.27 169.984 125.337 161.334C125.594 127.43 123.512 105.869 125.554 78.4985C125.672 76.9473 122.485 63.8788 122.485 63.8788C121.983 62.149 122.619 60.341 123.06 59.3868V59.3924Z" fill="#0D146E"/>
<path d="M170.781 89.1563C158.868 98.9716 159.794 128.842 158.873 133.043C157.952 137.245 156.384 138.562 156.736 141.028C157.088 143.495 157.997 145.214 155.391 145.353C151.898 145.537 154.487 149.639 149.331 149.147C144.175 148.656 142.155 141.33 141.525 148.578C140.972 154.928 154.934 199.195 154.934 199.195C160.123 197.571 171.412 194.976 171.412 194.976C168.164 179.112 173.119 157.272 173.125 154.772C173.136 149.131 178.398 138.205 178.398 138.205C178.398 138.205 181.896 123.228 184.469 108.832C187.264 93.1963 172.327 87.8785 170.781 89.1563Z" fill="#0D146E"/>
<path d="M145.336 64.5706L139.315 67.2601C139.315 67.2601 141.709 78.8332 142.234 79.9827C142.758 81.1322 143.696 86.6006 143.567 88.6931C143.439 90.7857 144.94 161.139 144.94 161.139C144.94 161.139 154.772 194.435 154.845 190.685C154.917 186.936 172.042 83.4925 171.635 75.3456C171.635 75.3456 163.17 74.7318 145.342 64.5761L145.336 64.5706Z" fill="#0D146E"/>
<path d="M170.759 71.8192C149.371 82.9291 152.233 121.125 150.866 126.113C149.499 131.102 145.085 133.445 145.939 136.425C146.798 139.405 145.805 142.111 140.962 142.128C134.466 142.156 140.549 167.099 155.33 167.115C170.112 167.132 169.671 161.982 169.414 158.126C168.968 151.357 174.353 149.432 172.623 145.917C170.893 142.401 171.786 140.722 174.687 138.322C177.589 135.923 176.947 132.24 176.947 132.24C176.947 132.24 182.22 114.468 185.82 97.3424C189.731 78.7385 173.527 70.3795 170.753 71.8248L170.759 71.8192Z" fill="white"/>
<mask id="mask8_66_1368" style="mask-type:luminance" maskUnits="userSpaceOnUse" x="138" y="71" width="49" height="97">
<path d="M170.759 71.8193C149.37 82.9292 152.233 121.125 150.866 126.113C149.499 131.102 145.085 133.445 145.939 136.425C146.798 139.405 145.805 142.111 140.961 142.128C134.466 142.156 140.548 167.099 155.33 167.115C170.111 167.132 169.671 161.982 169.414 158.126C168.968 151.357 174.352 149.432 172.623 145.917C170.893 142.401 171.785 140.722 174.687 138.322C177.589 135.923 176.947 132.24 176.947 132.24C176.947 132.24 182.22 114.468 185.819 97.3425C189.731 78.7386 173.526 70.3797 170.753 71.8249L170.759 71.8193Z" fill="white"/>
</mask>
<g mask="url(#mask8_66_1368)">
<path d="M166.904 74.3024L155.476 70.8595L95.4175 138.981L163.165 179.615C163.165 179.615 170.614 163.84 169.085 159.298C167.556 154.756 155.392 145.364 157.172 144.098C158.952 142.831 168.17 147.033 168.17 145.811C168.17 144.589 164.197 141.224 162.406 137.407C160.615 133.585 162.981 133.373 167.713 132.82C172.445 132.274 172.601 108.67 175.05 97.3648C177.495 86.054 176.345 77.7509 166.915 74.3191L166.904 74.3024Z" fill="#C2DBFF"/>
</g>
<path d="M94.3012 135.688L76.2776 161.318L88.6765 164.236C88.6765 164.236 115.36 150.275 113.262 144.092C111.164 137.909 100.607 133.395 94.3012 135.694V135.688Z" fill="url(#paint33_linear_66_1368)"/>
<path style="mix-blend-mode:multiply" d="M94.3012 135.688L76.2776 161.318L88.6765 164.236C88.6765 164.236 115.36 150.275 113.262 144.092C111.164 137.909 100.607 133.395 94.3012 135.694V135.688Z" fill="url(#paint34_linear_66_1368)"/>
<path d="M86.8796 148.422C85.998 146.798 84.5472 145.548 82.8118 144.918L70.8481 140.56C70.3515 140.381 69.8772 140.56 69.587 140.895C69.3025 141.229 67.5336 142.647 67.7903 143.11L82.9569 166.384C83.7771 167.852 85.055 169.001 86.6006 169.665L98.2629 176.389C98.6368 176.546 99.7528 175.084 99.9872 174.866C100.4 174.481 100.729 173.934 100.406 173.337L86.8796 148.428V148.422Z" fill="#2848BD"/>
<path d="M85.356 149.945C84.4744 148.322 83.0236 147.072 81.2882 146.441L69.3245 142.083C68.3313 141.72 67.4217 142.786 67.9351 143.712L81.4332 167.902C82.2535 169.37 83.5314 170.519 85.077 171.183L97.4313 176.451C98.4245 176.875 99.401 175.809 98.8821 174.855L85.356 149.945Z" fill="#172182"/>
<path d="M149.399 150.057C144.645 150.593 114.83 154.8 107.364 156.284C99.8983 157.769 98.2856 157.406 92.0973 153.734C85.9091 150.063 84.8321 150.727 85.5073 153.065C86.1825 155.403 91.3273 156.368 89.2738 158.405C87.2204 160.441 81.7408 158.873 81.7408 158.873C79.04 157.897 73.4711 156.669 74.2746 159.208C75.0838 161.747 73.8059 167.154 80.1281 171.161C86.4503 175.167 91.8797 174.001 95.1943 171.83C105.595 165.017 115.818 167.969 128.993 167.969C136.28 167.969 167.958 166.808 166.346 163.064C164.733 159.325 155.727 149.348 149.404 150.057H149.399Z" fill="url(#paint35_linear_66_1368)"/>
<path style="mix-blend-mode:multiply" d="M150.403 154.309C145.648 154.845 120.053 157.819 112.587 159.303C105.12 160.787 101.081 159.538 99.0271 161.574C96.9736 163.611 82.6608 164.23 82.6608 164.23C79.96 163.254 73.4648 156.669 74.2739 159.208C75.0831 161.747 73.8052 167.154 80.1274 171.161C86.4496 175.167 91.879 174.001 95.1936 171.83C105.595 165.017 115.817 167.969 128.992 167.969C136.28 167.969 167.957 166.808 166.345 163.064C164.732 159.325 156.73 153.6 150.408 154.315L150.403 154.309Z" fill="url(#paint36_linear_66_1368)"/>
<path d="M354.984 210.338L214.116 159.069C209.518 157.395 205.796 160.341 205.796 165.648V216.169L204.116 244.287L205.796 243.595L222.045 222.084L354.984 270.469C359.582 272.143 363.304 269.197 363.304 263.89V222.977C363.304 217.67 359.577 212.012 354.984 210.338Z" fill="#001F99"/>
<path d="M353.305 211.025L212.436 159.755C207.838 158.081 204.116 161.027 204.116 166.334V244.282L220.366 222.771L353.305 271.155C357.903 272.829 361.625 269.883 361.625 264.577V223.664C361.625 218.357 357.897 212.699 353.305 211.025Z" fill="url(#paint37_linear_66_1368)"/>
<g style="mix-blend-mode:multiply">
<path opacity="0.02" d="M258.008 72.3882C247.523 68.5715 239.024 75.2954 239.024 87.3986C239.024 99.5017 247.523 112.414 258.008 116.231C268.492 120.047 276.991 113.324 276.991 101.22C276.991 89.1172 268.492 76.205 258.008 72.3882Z" fill="#FEFEFF"/>
<path opacity="0.05" d="M258.007 72.5501C247.601 68.7612 239.164 75.435 239.164 87.4488C239.164 99.4627 247.601 112.28 258.007 116.069C268.414 119.858 276.851 113.184 276.851 101.17C276.851 89.1563 268.414 76.3389 258.007 72.5501Z" fill="#FDFEFF"/>
<path opacity="0.07" d="M258.007 72.7118C247.679 68.9508 239.303 75.5743 239.303 87.5045C239.303 99.4346 247.679 112.152 258.007 115.913C268.336 119.674 276.712 113.05 276.712 101.12C276.712 89.1897 268.336 76.4727 258.007 72.7118Z" fill="#FCFDFF"/>
<path opacity="0.09" d="M258.008 72.8739C247.757 69.1408 239.443 75.7141 239.443 87.555C239.443 99.3959 247.752 112.018 258.008 115.751C268.259 119.484 276.573 112.911 276.573 101.07C276.573 89.229 268.259 76.6069 258.008 72.8739Z" fill="#FBFDFF"/>
<path opacity="0.11" d="M258.008 73.0357C247.83 69.3305 239.583 75.8536 239.583 87.6052C239.583 99.3568 247.83 111.884 258.008 115.589C268.186 119.294 276.433 112.771 276.433 101.02C276.433 89.2681 268.186 76.7409 258.008 73.0357Z" fill="#FAFCFF"/>
<path opacity="0.14" d="M258.008 73.1973C247.908 69.5201 239.722 75.9929 239.722 87.6552C239.722 99.3175 247.908 111.75 258.008 115.422C268.108 119.099 276.294 112.626 276.294 100.964C276.294 89.3013 268.108 76.869 258.008 73.1973Z" fill="#F9FCFF"/>
<path opacity="0.16" d="M258.008 73.3593C247.986 69.7099 239.861 76.1381 239.861 87.7056C239.861 99.273 247.986 111.616 258.008 115.26C268.029 118.909 276.154 112.481 276.154 100.914C276.154 89.3461 268.029 77.003 258.008 73.3593Z" fill="#F8FBFF"/>
<path opacity="0.18" d="M258.008 73.5211C248.064 69.8996 240.001 76.2776 240.001 87.7614C240.001 99.2451 248.064 111.488 258.008 115.104C267.951 118.725 276.014 112.347 276.014 100.863C276.014 89.3796 267.951 77.137 258.008 73.5211Z" fill="#F7FAFE"/>
<path opacity="0.2" d="M258.007 73.6773C248.142 70.0838 240.14 76.4115 240.14 87.806C240.14 99.2005 248.136 111.348 258.007 114.936C267.873 118.53 275.875 112.202 275.875 100.808C275.875 89.4131 267.878 77.2653 258.007 73.6773Z" fill="#F6FAFE"/>
<path opacity="0.23" d="M258.007 73.839C248.22 70.2734 240.279 76.5509 240.279 87.8561C240.279 99.1613 248.214 111.214 258.007 114.774C267.795 118.34 275.735 112.062 275.735 100.757C275.735 89.452 267.8 77.3991 258.007 73.839Z" fill="#F5F9FE"/>
<path opacity="0.25" d="M258.008 74.0009C248.293 70.4631 240.425 76.6905 240.425 87.9064C240.425 99.1223 248.298 111.08 258.008 114.613C267.722 118.145 275.596 111.923 275.596 100.707C275.596 89.4911 267.722 77.5331 258.008 74.0009Z" fill="#F4F9FE"/>
<path opacity="0.27" d="M258.007 74.1627C248.371 70.6584 240.564 76.83 240.564 87.9566C240.564 99.0832 248.376 110.946 258.007 114.451C267.644 117.955 275.451 111.783 275.451 100.657C275.451 89.5302 267.639 77.667 258.007 74.1627Z" fill="#F3F8FE"/>
<path opacity="0.3" d="M258.007 74.3246C248.449 70.8482 240.704 76.9751 240.704 88.0069C240.704 99.0386 248.454 110.813 258.007 114.289C267.566 117.765 275.311 111.638 275.311 100.607C275.311 89.5748 267.56 77.8009 258.007 74.3246Z" fill="#F2F8FE"/>
<path opacity="0.32" d="M258.007 74.4864C248.527 71.0379 240.843 77.1146 240.843 88.0626C240.843 99.0107 248.527 110.684 258.007 114.133C267.488 117.581 275.172 111.504 275.172 100.556C275.172 89.6083 267.488 77.9348 258.007 74.4864Z" fill="#F1F7FE"/>
<path opacity="0.34" d="M258.007 74.6483C248.605 71.2278 240.982 77.2542 240.982 88.113C240.982 98.9718 248.605 110.55 258.007 113.971C267.409 117.392 275.032 111.365 275.032 100.506C275.032 89.6475 267.409 78.0689 258.007 74.6483Z" fill="#F0F6FE"/>
<path opacity="0.36" d="M258.008 74.8102C248.684 71.4175 241.123 77.3937 241.123 88.1632C241.123 98.9328 248.684 110.417 258.008 113.809C267.332 117.202 274.893 111.226 274.893 100.456C274.893 89.6866 267.332 78.2028 258.008 74.8102Z" fill="#EFF6FE"/>
<path opacity="0.39" d="M258.008 74.972C248.762 71.6072 241.262 77.5333 241.262 88.2135C241.262 98.8937 248.762 110.283 258.008 113.647C267.254 117.012 274.753 111.086 274.753 100.406C274.753 89.7257 267.254 78.3368 258.008 74.972Z" fill="#EEF5FE"/>
<path opacity="0.41" d="M258.008 75.1337C248.834 71.7969 241.401 77.6727 241.401 88.2636C241.401 98.8546 248.834 110.149 258.008 113.485C267.181 116.822 274.614 110.947 274.614 100.356C274.614 89.7646 267.181 78.4706 258.008 75.1337Z" fill="#EDF5FE"/>
<path opacity="0.43" d="M258.008 75.2955C248.912 71.9866 241.541 77.8177 241.541 88.3194C241.541 98.8211 248.912 110.02 258.008 113.329C267.103 116.638 274.474 110.807 274.474 100.305C274.474 89.8037 267.103 78.6045 258.008 75.2955Z" fill="#ECF4FE"/>
<path opacity="0.45" d="M258.007 75.4573C248.99 72.1762 241.68 77.9571 241.68 88.3695C241.68 98.7819 248.99 109.881 258.007 113.167C267.025 116.448 274.335 110.667 274.335 100.255C274.335 89.8427 267.025 78.7439 258.007 75.4573Z" fill="#EBF4FE"/>
<path opacity="0.48" d="M258.007 75.6191C249.068 72.3659 241.819 78.0967 241.819 88.4198C241.819 98.7429 249.068 109.747 258.007 113.005C266.946 116.259 274.195 110.528 274.195 100.205C274.195 89.8817 266.946 78.8779 258.007 75.6191Z" fill="#EAF3FE"/>
<path opacity="0.5" d="M258.007 75.7812C249.146 72.5559 241.959 78.2364 241.959 88.4702C241.959 98.7041 249.146 109.613 258.007 112.844C266.868 116.069 274.055 110.389 274.055 100.155C274.055 89.9211 266.868 79.0121 258.007 75.7812Z" fill="#EAF3FE"/>
<path opacity="0.52" d="M258.008 75.9428C249.225 72.7454 242.099 78.3757 242.099 88.5203C242.099 98.6648 249.219 109.479 258.008 112.676C266.791 115.874 273.917 110.243 273.917 100.099C273.917 89.9543 266.796 79.1402 258.008 75.9428Z" fill="#E9F2FD"/>
<path opacity="0.55" d="M258.008 76.1045C249.297 72.9351 242.239 78.5151 242.239 88.5704C242.239 98.6256 249.297 109.345 258.008 112.514C266.718 115.684 273.777 110.104 273.777 100.049C273.777 89.9933 266.718 79.274 258.008 76.1045Z" fill="#E8F1FD"/>
<path opacity="0.57" d="M258.008 76.2665C249.375 73.1249 242.378 78.6603 242.378 88.6263C242.378 98.5923 249.375 109.217 258.008 112.358C266.64 115.5 273.637 109.964 273.637 99.9984C273.637 90.0325 266.64 79.408 258.008 76.2665Z" fill="#E7F1FD"/>
<path opacity="0.59" d="M258.008 76.4228C249.453 73.3091 242.517 78.7943 242.517 88.671C242.517 98.5477 249.453 109.077 258.008 112.191C266.562 115.305 273.498 109.819 273.498 99.9427C273.498 90.066 266.562 79.5365 258.008 76.4228Z" fill="#E6F0FD"/>
<path opacity="0.61" d="M258.007 76.5845C249.531 73.4988 242.662 78.9337 242.662 88.7212C242.662 98.5086 249.531 108.943 258.007 112.029C266.483 115.115 273.358 109.68 273.358 99.8924C273.358 90.105 266.489 79.6703 258.007 76.5845Z" fill="#E5F0FD"/>
<path opacity="0.64" d="M258.008 76.7464C249.61 73.6885 242.802 79.0733 242.802 88.7714C242.802 98.4695 249.61 108.809 258.008 111.867C266.406 114.925 273.213 109.54 273.213 99.8422C273.213 90.1441 266.406 79.8042 258.008 76.7464Z" fill="#E4EFFD"/>
<path opacity="0.66" d="M258.008 76.9082C249.688 73.8783 242.941 79.2128 242.941 88.8216C242.941 98.4305 249.688 108.675 258.008 111.705C266.327 114.735 273.074 109.401 273.074 99.792C273.074 90.1832 266.327 79.9382 258.008 76.9082Z" fill="#E3EFFD"/>
<path opacity="0.68" d="M258.007 77.07C249.76 74.068 243.081 79.3523 243.081 88.8774C243.081 98.4026 249.766 108.547 258.007 111.549C266.255 114.551 272.934 109.267 272.934 99.7418C272.934 90.2166 266.249 80.0721 258.007 77.07Z" fill="#E2EEFD"/>
<path opacity="0.7" d="M258.007 77.2318C249.838 74.2576 243.22 79.4973 243.22 88.9275C243.22 98.3578 249.844 108.413 258.007 111.387C266.177 114.361 272.795 109.122 272.795 99.6915C272.795 90.2612 266.171 80.2059 258.007 77.2318Z" fill="#E1EDFD"/>
<path opacity="0.73" d="M258.007 77.3937C249.916 74.4474 243.359 79.6369 243.359 88.9779C243.359 98.3189 249.916 108.279 258.007 111.226C266.098 114.172 272.655 108.982 272.655 99.6414C272.655 90.3004 266.098 80.34 258.007 77.3937Z" fill="#E0EDFD"/>
<path opacity="0.75" d="M258.007 77.5553C249.994 74.637 243.499 79.7762 243.499 89.0279C243.499 98.2796 249.994 108.145 258.007 111.064C266.02 113.982 272.515 108.843 272.515 99.591C272.515 90.3392 266.02 80.4737 258.007 77.5553Z" fill="#DFECFD"/>
<path opacity="0.77" d="M258.007 77.7174C250.072 74.8269 243.638 79.9159 243.638 89.0784C243.638 98.2408 250.072 108.012 258.007 110.902C265.942 113.792 272.376 108.703 272.376 99.541C272.376 90.3786 265.942 80.6079 258.007 77.7174Z" fill="#DEECFD"/>
<path opacity="0.8" d="M258.008 77.879C250.151 75.0164 243.779 80.0552 243.779 89.1284C243.779 98.2016 250.151 107.877 258.008 110.74C265.864 113.603 272.237 108.564 272.237 99.4906C272.237 90.4174 265.864 80.7416 258.008 77.879Z" fill="#DDEBFD"/>
<path opacity="0.82" d="M258.008 78.0409C250.223 75.2063 243.918 80.1948 243.918 89.1843C243.918 98.1738 250.223 107.749 258.008 110.584C265.792 113.418 272.097 108.43 272.097 99.4404C272.097 90.451 265.792 80.8756 258.008 78.0409Z" fill="#DCEBFD"/>
<path opacity="0.84" d="M258.008 78.2028C250.301 75.396 244.057 80.3399 244.057 89.2346C244.057 98.1292 250.301 107.615 258.008 110.422C265.714 113.229 271.958 108.285 271.958 99.3902C271.958 90.4956 265.714 81.0095 258.008 78.2028Z" fill="#DBEAFC"/>
<path opacity="0.86" d="M258.007 78.3644C250.379 75.5911 244.197 80.4792 244.197 89.2845C244.197 98.0899 250.379 107.481 258.007 110.26C265.635 113.033 271.818 108.145 271.818 99.3398C271.818 90.5345 265.635 81.1432 258.007 78.3644Z" fill="#DAE9FC"/>
<path opacity="0.89" d="M258.007 78.5265C250.457 75.7811 244.336 80.619 244.336 89.335C244.336 98.0511 250.457 107.347 258.007 110.098C265.557 112.844 271.678 108.006 271.678 99.2898C271.678 90.5738 265.557 81.2774 258.007 78.5265Z" fill="#D9E9FC"/>
<path opacity="0.91" d="M258.007 78.6882C250.535 75.9707 244.475 80.7584 244.475 89.3851C244.475 98.0119 250.535 107.213 258.007 109.931C265.479 112.648 271.539 107.861 271.539 99.2339C271.539 90.6072 265.479 81.4057 258.007 78.6882Z" fill="#D8E8FC"/>
<path opacity="0.93" d="M258.007 78.85C250.613 76.1604 244.615 80.8979 244.615 89.4409C244.615 97.984 250.608 107.085 258.007 109.775C265.401 112.464 271.399 107.727 271.399 99.1837C271.399 90.6406 265.406 81.5396 258.007 78.85Z" fill="#D7E8FC"/>
<path opacity="0.95" d="M258.008 79.0062C250.692 76.3445 244.755 81.0318 244.755 89.4856C244.755 97.9393 250.687 106.946 258.008 109.607C265.323 112.269 271.26 107.582 271.26 99.1279C271.26 90.6741 265.329 81.6679 258.008 79.0062Z" fill="#D6E7FC"/>
<path opacity="0.98" d="M258.008 79.1682C250.765 76.5344 244.895 81.177 244.895 89.5359C244.895 97.8948 250.765 106.812 258.008 109.446C265.251 112.079 271.121 107.437 271.121 99.0778C271.121 90.7189 265.251 81.802 258.008 79.1682Z" fill="#D5E7FC"/>
<path d="M258.008 79.3298C250.843 76.7239 245.04 81.3163 245.04 89.5859C245.04 97.8556 250.849 106.678 258.008 109.284C265.173 111.889 270.981 107.297 270.981 99.0274C270.981 90.7577 265.173 81.9357 258.008 79.3298Z" fill="#D4E6FC"/>
</g>
<path d="M254.449 81.1098C247.206 78.4704 241.33 83.1186 241.33 91.4831C241.33 99.8476 247.206 108.77 254.449 111.404C261.692 114.043 267.567 109.395 267.567 101.031C267.567 92.6661 261.692 83.7436 254.449 81.1098Z" fill="url(#paint38_linear_66_1368)"/>
<path d="M254.449 87.3764C252.156 86.545 250.298 88.1185 250.298 90.8974C250.298 93.6763 252.156 96.9741 254.449 97.8055C256.743 98.6369 258.601 96.6951 258.601 93.9162C258.601 91.1373 256.743 88.2078 254.449 87.3764Z" fill="white"/>
<path d="M254.449 99.5464C249.923 97.9003 246.257 98.2295 246.257 100.283C246.257 102.336 249.923 106.594 254.449 108.24C258.974 109.886 262.64 108.296 262.64 106.242C262.64 104.189 258.974 101.193 254.449 99.5464Z" fill="white"/>
<g style="mix-blend-mode:multiply">
<path opacity="0.02" d="M233.535 175.055C223.05 171.239 214.551 177.963 214.551 190.066C214.551 202.169 223.05 215.081 233.535 218.898C244.02 222.715 252.518 215.991 252.518 203.888C252.518 191.784 244.02 178.872 233.535 175.055Z" fill="#FEFEFF"/>
<path opacity="0.05" d="M233.535 175.217C223.128 171.428 214.691 178.102 214.691 190.116C214.691 202.13 223.128 214.947 233.535 218.736C243.941 222.525 252.378 215.851 252.378 203.837C252.378 191.824 243.941 179.006 233.535 175.217Z" fill="#FDFEFF"/>
<path opacity="0.07" d="M233.534 175.379C223.206 171.618 214.83 178.242 214.83 190.172C214.83 202.102 223.206 214.819 233.534 218.58C243.863 222.341 252.239 215.717 252.239 203.787C252.239 191.857 243.863 179.14 233.534 175.379Z" fill="#FCFDFF"/>
<path opacity="0.09" d="M233.535 175.541C223.285 171.808 214.97 178.381 214.97 190.222C214.97 202.063 223.279 214.685 233.535 218.418C243.786 222.151 252.1 215.578 252.1 203.737C252.1 191.896 243.786 179.274 233.535 175.541Z" fill="#FBFDFF"/>
<path opacity="0.11" d="M233.535 175.697C223.357 171.992 215.11 178.515 215.11 190.267C215.11 202.018 223.357 214.545 233.535 218.251C243.713 221.956 251.96 215.433 251.96 203.681C251.96 191.929 243.713 179.402 233.535 175.697Z" fill="#FAFCFF"/>
<path opacity="0.14" d="M233.535 175.859C223.435 172.182 215.249 178.655 215.249 190.317C215.249 201.979 223.435 214.412 233.535 218.083C243.635 221.761 251.821 215.288 251.821 203.626C251.821 191.963 243.635 179.531 233.535 175.859Z" fill="#F9FCFF"/>
<path opacity="0.16" d="M233.535 176.021C223.513 172.372 215.388 178.8 215.388 190.367C215.388 201.935 223.513 214.278 233.535 217.922C243.557 221.571 251.681 215.143 251.681 203.575C251.681 192.008 243.557 179.665 233.535 176.021Z" fill="#F8FBFF"/>
<path opacity="0.18" d="M233.535 176.183C223.591 172.561 215.528 178.939 215.528 190.423C215.528 201.907 223.591 214.149 233.535 217.765C243.478 221.387 251.542 215.009 251.542 203.525C251.542 192.041 243.478 179.799 233.535 176.183Z" fill="#F7FAFE"/>
<path opacity="0.2" d="M233.535 176.345C223.669 172.751 215.667 179.079 215.667 190.473C215.667 201.868 223.663 214.015 233.535 217.603C243.4 221.197 251.402 214.869 251.402 203.475C251.402 192.08 243.406 179.933 233.535 176.345Z" fill="#F6FAFE"/>
<path opacity="0.23" d="M233.534 176.506C223.747 172.941 215.807 179.218 215.807 190.523C215.807 201.829 223.741 213.881 233.534 217.442C243.322 221.007 251.262 214.73 251.262 203.424C251.262 192.119 243.327 180.066 233.534 176.506Z" fill="#F5F9FE"/>
<path opacity="0.25" d="M233.535 176.668C223.82 173.136 215.952 179.358 215.952 190.574C215.952 201.79 223.825 213.748 233.535 217.28C243.25 220.812 251.123 214.59 251.123 203.374C251.123 192.158 243.25 180.2 233.535 176.668Z" fill="#F4F9FE"/>
<path opacity="0.27" d="M233.535 176.83C223.898 173.326 216.091 179.497 216.091 190.624C216.091 201.75 223.903 213.614 233.535 217.118C243.171 220.622 250.978 214.451 250.978 203.324C250.978 192.197 243.166 180.334 233.535 176.83Z" fill="#F3F8FE"/>
<path opacity="0.3" d="M233.534 176.992C223.976 173.515 216.231 179.642 216.231 190.674C216.231 201.706 223.981 213.48 233.534 216.956C243.093 220.433 250.838 214.306 250.838 203.274C250.838 192.242 243.088 180.468 233.534 176.992Z" fill="#F2F8FE"/>
<path opacity="0.32" d="M233.534 177.153C224.054 173.705 216.37 179.782 216.37 190.73C216.37 201.678 224.054 213.351 233.534 216.8C243.015 220.248 250.699 214.172 250.699 203.223C250.699 192.275 243.015 180.602 233.534 177.153Z" fill="#F1F7FE"/>
<path opacity="0.34" d="M233.534 177.315C224.132 173.895 216.51 179.921 216.51 190.78C216.51 201.639 224.132 213.217 233.534 216.638C242.937 220.059 250.559 214.032 250.559 203.173C250.559 192.315 242.937 180.736 233.534 177.315Z" fill="#F0F6FE"/>
<path opacity="0.36" d="M233.535 177.477C224.211 174.085 216.65 180.061 216.65 190.83C216.65 201.6 224.211 213.084 233.535 216.476C242.859 219.869 250.42 213.893 250.42 203.123C250.42 192.354 242.859 180.87 233.535 177.477Z" fill="#EFF6FE"/>
<path opacity="0.39" d="M233.535 177.639C224.289 174.274 216.789 180.2 216.789 190.88C216.789 201.561 224.289 212.95 233.535 216.314C242.781 219.679 250.281 213.753 250.281 203.073C250.281 192.393 242.781 181.004 233.535 177.639Z" fill="#EEF5FE"/>
<path opacity="0.41" d="M233.535 177.801C224.361 174.464 216.928 180.34 216.928 190.931C216.928 201.522 224.361 212.816 233.535 216.153C242.708 219.49 250.141 213.614 250.141 203.023C250.141 192.432 242.708 181.138 233.535 177.801Z" fill="#EDF5FE"/>
<path opacity="0.43" d="M233.535 177.963C224.439 174.654 217.068 180.485 217.068 190.987C217.068 201.488 224.439 212.687 233.535 215.996C242.63 219.305 250.001 213.474 250.001 202.972C250.001 192.471 242.63 181.272 233.535 177.963Z" fill="#ECF4FE"/>
<path opacity="0.45" d="M233.535 178.125C224.517 174.843 217.207 180.624 217.207 191.037C217.207 201.449 224.517 212.548 233.535 215.835C242.552 219.116 249.862 213.335 249.862 202.922C249.862 192.51 242.552 181.411 233.535 178.125Z" fill="#EBF4FE"/>
<path opacity="0.48" d="M233.534 178.286C224.595 175.033 217.347 180.764 217.347 191.087C217.347 201.41 224.595 212.414 233.534 215.673C242.474 218.926 249.722 213.195 249.722 202.872C249.722 192.549 242.474 181.545 233.534 178.286Z" fill="#EAF3FE"/>
<path opacity="0.5" d="M233.534 178.443C224.673 175.217 217.486 180.898 217.486 191.132C217.486 201.365 224.673 212.274 233.534 215.505C242.395 218.731 249.583 213.05 249.583 202.816C249.583 192.582 242.395 181.673 233.534 178.443Z" fill="#EAF3FE"/>
<path opacity="0.52" d="M233.535 178.604C224.752 175.407 217.626 181.037 217.626 191.182C217.626 201.326 224.746 212.141 233.535 215.338C242.318 218.535 249.444 212.905 249.444 202.76C249.444 192.616 242.324 181.802 233.535 178.604Z" fill="#E9F2FD"/>
<path opacity="0.55" d="M233.535 178.766C224.824 175.597 217.766 181.177 217.766 191.232C217.766 201.287 224.824 212.007 233.535 215.176C242.245 218.346 249.304 212.766 249.304 202.71C249.304 192.655 242.245 181.936 233.535 178.766Z" fill="#E8F1FD"/>
<path opacity="0.57" d="M233.535 178.928C224.902 175.787 217.905 181.322 217.905 191.288C217.905 201.254 224.902 211.878 233.535 215.02C242.167 218.162 249.164 212.626 249.164 202.66C249.164 192.694 242.167 182.07 233.535 178.928Z" fill="#E7F1FD"/>
<path opacity="0.59" d="M233.535 179.09C224.98 175.976 218.044 181.461 218.044 191.338C218.044 201.215 224.98 211.744 233.535 214.858C242.089 217.972 249.025 212.487 249.025 202.61C249.025 192.733 242.089 182.204 233.535 179.09Z" fill="#E6F0FD"/>
<path opacity="0.61" d="M233.534 179.252C225.058 176.166 218.189 181.601 218.189 191.388C218.189 201.176 225.058 211.611 233.534 214.696C242.01 217.782 248.885 212.347 248.885 202.56C248.885 192.772 242.016 182.338 233.534 179.252Z" fill="#E5F0FD"/>
<path opacity="0.64" d="M233.535 179.414C225.137 176.356 218.329 181.741 218.329 191.439C218.329 201.137 225.137 211.477 233.535 214.534C241.933 217.592 248.741 212.208 248.741 202.509C248.741 192.811 241.933 182.471 233.535 179.414Z" fill="#E4EFFD"/>
<path opacity="0.66" d="M233.535 179.575C225.215 176.545 218.469 181.88 218.469 191.489C218.469 201.097 225.215 211.342 233.535 214.372C241.855 217.402 248.601 212.068 248.601 202.459C248.601 192.85 241.855 182.605 233.535 179.575Z" fill="#E3EFFD"/>
<path opacity="0.68" d="M233.535 179.737C225.287 176.735 218.608 182.019 218.608 191.545C218.608 201.07 225.293 211.214 233.535 214.216C241.782 217.218 248.461 211.934 248.461 202.409C248.461 192.884 241.776 182.739 233.535 179.737Z" fill="#E2EEFD"/>
<path opacity="0.7" d="M233.534 179.899C225.365 176.925 218.747 182.164 218.747 191.595C218.747 201.025 225.371 211.08 233.534 214.054C241.704 217.029 248.322 211.789 248.322 202.359C248.322 192.928 241.698 182.873 233.534 179.899Z" fill="#E1EDFD"/>
<path opacity="0.73" d="M233.534 180.061C225.443 177.115 218.887 182.304 218.887 191.645C218.887 200.986 225.443 210.947 233.534 213.893C241.625 216.839 248.182 211.65 248.182 202.309C248.182 192.968 241.625 183.007 233.534 180.061Z" fill="#E0EDFD"/>
<path opacity="0.75" d="M233.534 180.223C225.521 177.304 219.026 182.443 219.026 191.695C219.026 200.947 225.521 210.812 233.534 213.731C241.547 216.649 248.042 211.51 248.042 202.258C248.042 193.006 241.547 183.141 233.534 180.223Z" fill="#DFECFD"/>
<path opacity="0.77" d="M233.534 180.385C225.599 177.494 219.166 182.583 219.166 191.746C219.166 200.908 225.599 210.679 233.534 213.569C241.469 216.46 247.903 211.371 247.903 202.208C247.903 193.046 241.469 183.275 233.534 180.385Z" fill="#DEECFD"/>
<path opacity="0.8" d="M233.535 180.546C225.678 177.684 219.306 182.722 219.306 191.796C219.306 200.869 225.678 210.545 233.535 213.407C241.392 216.27 247.764 211.231 247.764 202.158C247.764 193.085 241.392 183.409 233.535 180.546Z" fill="#DDEBFD"/>
<path opacity="0.82" d="M233.535 180.708C225.756 177.874 219.445 182.862 219.445 191.852C219.445 200.841 225.751 210.416 233.535 213.251C241.319 216.086 247.624 211.097 247.624 202.108C247.624 193.118 241.319 183.543 233.535 180.708Z" fill="#DCEBFD"/>
<path opacity="0.84" d="M233.535 180.87C225.829 178.063 219.584 183.007 219.584 191.902C219.584 200.796 225.829 210.282 233.535 213.089C241.241 215.896 247.485 210.952 247.485 202.057C247.485 193.163 241.241 183.677 233.535 180.87Z" fill="#DBEAFC"/>
<path opacity="0.86" d="M233.535 181.026C225.907 178.253 219.724 183.141 219.724 191.946C219.724 200.752 225.907 210.143 233.535 212.922C241.162 215.695 247.345 210.807 247.345 202.002C247.345 193.196 241.162 183.805 233.535 181.026Z" fill="#DAE9FC"/>
<path opacity="0.89" d="M233.534 181.188C225.985 178.443 219.863 183.281 219.863 191.997C219.863 200.713 225.985 210.009 233.534 212.76C241.084 215.505 247.206 210.668 247.206 201.951C247.206 193.235 241.084 183.939 233.534 181.188Z" fill="#D9E9FC"/>
<path opacity="0.91" d="M233.534 181.35C226.063 178.632 220.003 183.42 220.003 192.047C220.003 200.673 226.063 209.875 233.534 212.592C241.006 215.31 247.066 210.522 247.066 201.895C247.066 193.269 241.006 184.067 233.534 181.35Z" fill="#D8E8FC"/>
<path opacity="0.93" d="M233.534 181.512C226.141 178.822 220.142 183.559 220.142 192.103C220.142 200.646 226.135 209.747 233.534 212.436C240.928 215.126 246.926 210.388 246.926 201.845C246.926 193.302 240.933 184.201 233.534 181.512Z" fill="#D7E8FC"/>
<path opacity="0.95" d="M233.535 181.673C226.219 179.012 220.282 183.699 220.282 192.153C220.282 200.607 226.214 209.613 233.535 212.274C240.85 214.936 246.787 210.249 246.787 201.795C246.787 193.341 240.856 184.335 233.535 181.673Z" fill="#D6E7FC"/>
<path opacity="0.98" d="M233.535 181.835C226.292 179.202 220.422 183.844 220.422 192.203C220.422 200.562 226.292 209.479 233.535 212.113C240.778 214.747 246.648 210.104 246.648 201.745C246.648 193.386 240.778 184.469 233.535 181.835Z" fill="#D5E7FC"/>
<path d="M233.535 181.997C226.37 179.391 220.567 183.984 220.567 192.253C220.567 200.523 226.376 209.345 233.535 211.951C240.7 214.557 246.509 209.964 246.509 201.695C246.509 193.425 240.7 184.603 233.535 181.997Z" fill="#D4E6FC"/>
</g>
<path d="M229.973 183.777C222.731 181.138 216.855 185.786 216.855 194.15C216.855 202.515 222.731 211.438 229.973 214.071C237.216 216.711 243.092 212.062 243.092 203.698C243.092 195.333 237.216 186.411 229.973 183.777Z" fill="#FF6984"/>
<path d="M229.974 190.044C227.68 189.207 225.822 190.786 225.822 193.565C225.822 196.343 227.68 199.641 229.974 200.473C232.267 201.31 234.125 199.362 234.125 196.583C234.125 193.805 232.267 190.875 229.974 190.044Z" fill="white"/>
<path d="M229.973 202.208C225.448 200.562 221.782 200.891 221.782 202.945C221.782 204.998 225.448 209.256 229.973 210.902C234.499 212.548 238.165 210.958 238.165 208.904C238.165 206.851 234.499 203.854 229.973 202.208Z" fill="white"/>
<g style="mix-blend-mode:multiply" opacity="0.22">
<path d="M258.008 197.9L348.567 230.862V225.22L258.008 192.259V197.9Z" fill="#72ABFE"/>
</g>
<g style="mix-blend-mode:multiply" opacity="0.22">
<path d="M258.008 209.987L348.567 242.942V237.307L258.008 204.345V209.987Z" fill="#72ABFE"/>
</g>
<g style="mix-blend-mode:multiply" opacity="0.22">
<path d="M258.008 222.073L296.198 235.956V230.315L258.008 216.432V222.073Z" fill="#72ABFE"/>
</g>
<path d="M306.655 234.455C305.729 234.12 304.959 234.589 304.713 235.527C304.468 234.416 303.698 233.378 302.772 233.044C301.65 232.636 300.74 233.401 300.74 234.757C300.74 235.097 300.796 235.437 300.902 235.767C301.209 236.76 304.713 241.274 304.713 241.274C304.713 241.274 308.19 239.327 308.508 238.59C308.625 238.322 308.686 238.004 308.686 237.647C308.686 236.291 307.777 234.863 306.655 234.455Z" fill="#FF6984"/>
<path d="M317.514 238.908C316.588 238.573 315.818 239.042 315.573 239.98C315.327 238.869 314.557 237.831 313.631 237.496C312.509 237.089 311.6 237.854 311.6 239.21C311.6 239.55 311.655 239.89 311.761 240.219C312.068 241.213 315.573 245.727 315.573 245.727C315.573 245.727 319.049 243.78 319.367 243.043C319.484 242.775 319.546 242.457 319.546 242.1C319.546 240.744 318.636 239.316 317.514 238.908Z" fill="#FF6984"/>
<path d="M328.373 243.361C327.446 243.026 326.676 243.495 326.431 244.432C326.185 243.322 325.415 242.284 324.489 241.949C323.367 241.542 322.458 242.306 322.458 243.662C322.458 244.003 322.514 244.343 322.62 244.672C322.926 245.666 326.431 250.18 326.431 250.18C326.431 250.18 329.907 248.232 330.225 247.496C330.342 247.228 330.404 246.91 330.404 246.553C330.404 245.197 329.494 243.768 328.373 243.361Z" fill="#FF6984"/>
<defs>
<linearGradient id="paint0_linear_66_1368" x1="194.105" y1="206.382" x2="177.292" y2="206.589" gradientUnits="userSpaceOnUse">
<stop offset="0.31" stop-color="#1831A1"/>
<stop offset="1" stop-color="#2848BD"/>
</linearGradient>
<linearGradient id="paint1_linear_66_1368" x1="658.108" y1="193.252" x2="-67.8677" y2="194.184" gradientUnits="userSpaceOnUse">
<stop stop-color="#83A8FA"/>
<stop offset="1" stop-color="#2848BD"/>
</linearGradient>
<linearGradient id="paint2_linear_66_1368" x1="275.83" y1="168.884" x2="294.981" y2="98.3411" gradientUnits="userSpaceOnUse">
<stop stop-color="white"/>
<stop offset="1" stop-color="#F7FBFF"/>
</linearGradient>
<linearGradient id="paint3_linear_66_1368" x1="536.677" y1="381.624" x2="449.472" y2="207.838" gradientUnits="userSpaceOnUse">
<stop stop-color="#20267F"/>
<stop offset="0.24" stop-color="#212881"/>
<stop offset="0.42" stop-color="#252F8B"/>
<stop offset="0.57" stop-color="#2C3B9B"/>
<stop offset="0.71" stop-color="#364DB1"/>
<stop offset="0.85" stop-color="#4363CE"/>
<stop offset="0.98" stop-color="#527EF2"/>
<stop offset="1" stop-color="#5684F9"/>
</linearGradient>
<linearGradient id="paint4_linear_66_1368" x1="407.643" y1="200.35" x2="631.884" y2="78.8833" gradientUnits="userSpaceOnUse">
<stop stop-color="#20267F"/>
<stop offset="0.24" stop-color="#212881"/>
<stop offset="0.42" stop-color="#252F8B"/>
<stop offset="0.57" stop-color="#2C3B9B"/>
<stop offset="0.71" stop-color="#364DB1"/>
<stop offset="0.85" stop-color="#4363CE"/>
<stop offset="0.98" stop-color="#527EF2"/>
<stop offset="1" stop-color="#5684F9"/>
</linearGradient>
<linearGradient id="paint5_linear_66_1368" x1="495.306" y1="160.48" x2="258.455" y2="257.183" gradientUnits="userSpaceOnUse">
<stop stop-color="#20267F"/>
<stop offset="0.24" stop-color="#212881"/>
<stop offset="0.42" stop-color="#252F8B"/>
<stop offset="0.57" stop-color="#2C3B9B"/>
<stop offset="0.71" stop-color="#364DB1"/>
<stop offset="0.85" stop-color="#4363CE"/>
<stop offset="0.98" stop-color="#527EF2"/>
<stop offset="1" stop-color="#5684F9"/>
</linearGradient>
<linearGradient id="paint6_linear_66_1368" x1="480.703" y1="409.708" x2="393.504" y2="235.923" gradientUnits="userSpaceOnUse">
<stop stop-color="#20267F"/>
<stop offset="0.24" stop-color="#212881"/>
<stop offset="0.42" stop-color="#252F8B"/>
<stop offset="0.57" stop-color="#2C3B9B"/>
<stop offset="0.71" stop-color="#364DB1"/>
<stop offset="0.85" stop-color="#4363CE"/>
<stop offset="0.98" stop-color="#527EF2"/>
<stop offset="1" stop-color="#5684F9"/>
</linearGradient>
<linearGradient id="paint7_linear_66_1368" x1="207.631" y1="-32.7568" x2="196.086" y2="382.974" gradientUnits="userSpaceOnUse">
<stop stop-color="#E8F0FD"/>
<stop offset="0.17" stop-color="#DEE8FC"/>
<stop offset="0.46" stop-color="#C3D6FB"/>
<stop offset="0.83" stop-color="#98B7FA"/>
<stop offset="1" stop-color="#83A8FA"/>
</linearGradient>
<linearGradient id="paint8_linear_66_1368" x1="272.484" y1="32.3903" x2="338.178" y2="32.3903" gradientUnits="userSpaceOnUse">
<stop stop-color="#DF6981"/>
<stop offset="1" stop-color="#2C314D"/>
</linearGradient>
<linearGradient id="paint9_linear_66_1368" x1="366.821" y1="90.0434" x2="438.731" y2="90.0434" gradientUnits="userSpaceOnUse">
<stop stop-color="#F1CFBA"/>
<stop offset="1" stop-color="#D388A1"/>
</linearGradient>
<linearGradient id="paint10_linear_66_1368" x1="342.541" y1="35.2418" x2="372.02" y2="35.2418" gradientUnits="userSpaceOnUse">
<stop stop-color="#DF6981"/>
<stop offset="1" stop-color="#2C314D"/>
</linearGradient>
<linearGradient id="paint11_linear_66_1368" x1="368.946" y1="98.4302" x2="429.178" y2="98.4302" gradientUnits="userSpaceOnUse">
<stop stop-color="#F1CFBA"/>
<stop offset="1" stop-color="#D388A1"/>
</linearGradient>
<linearGradient id="paint12_linear_66_1368" x1="429.356" y1="84.497" x2="293.258" y2="64.565" gradientUnits="userSpaceOnUse">
<stop stop-color="#E8F0FD"/>
<stop offset="0.17" stop-color="#DEE8FC"/>
<stop offset="0.46" stop-color="#C3D6FB"/>
<stop offset="0.83" stop-color="#98B7FA"/>
<stop offset="1" stop-color="#83A8FA"/>
</linearGradient>
<linearGradient id="paint13_linear_66_1368" x1="425.304" y1="112.185" x2="289.201" y2="92.2533" gradientUnits="userSpaceOnUse">
<stop stop-color="#E8F0FD"/>
<stop offset="0.17" stop-color="#DEE8FC"/>
<stop offset="0.46" stop-color="#C3D6FB"/>
<stop offset="0.83" stop-color="#98B7FA"/>
<stop offset="1" stop-color="#83A8FA"/>
</linearGradient>
<linearGradient id="paint14_linear_66_1368" x1="337.748" y1="46.932" x2="361.782" y2="46.932" gradientUnits="userSpaceOnUse">
<stop stop-color="#F1CFBA"/>
<stop offset="1" stop-color="#D388A1"/>
</linearGradient>
<linearGradient id="paint15_linear_66_1368" x1="334.936" y1="42.8976" x2="354.22" y2="42.8976" gradientUnits="userSpaceOnUse">
<stop stop-color="#F1CFBA"/>
<stop offset="1" stop-color="#D388A1"/>
</linearGradient>
<linearGradient id="paint16_linear_66_1368" x1="341.866" y1="37.4403" x2="346.977" y2="37.4403" gradientUnits="userSpaceOnUse">
<stop stop-color="#F1CFBA"/>
<stop offset="1" stop-color="#D388A1"/>
</linearGradient>
<linearGradient id="paint17_linear_66_1368" x1="345.393" y1="36.9828" x2="375.503" y2="36.9828" gradientUnits="userSpaceOnUse">
<stop stop-color="#F1CFBA"/>
<stop offset="1" stop-color="#D388A1"/>
</linearGradient>
<linearGradient id="paint18_linear_66_1368" x1="330.566" y1="32.7696" x2="383.928" y2="32.7696" gradientUnits="userSpaceOnUse">
<stop stop-color="#F1CFBA"/>
<stop offset="1" stop-color="#D388A1"/>
</linearGradient>
<linearGradient id="paint19_linear_66_1368" x1="349.019" y1="36.8375" x2="380.077" y2="36.8375" gradientUnits="userSpaceOnUse">
<stop stop-color="#DF6981"/>
<stop offset="1" stop-color="#2C314D"/>
</linearGradient>
<linearGradient id="paint20_linear_66_1368" x1="450.108" y1="107.118" x2="317.018" y2="102.135" gradientUnits="userSpaceOnUse">
<stop stop-color="#F1CFBA"/>
<stop offset="1" stop-color="#D388A1"/>
</linearGradient>
<linearGradient id="paint21_linear_66_1368" x1="315.534" y1="120.433" x2="380.831" y2="120.433" gradientUnits="userSpaceOnUse">
<stop stop-color="#F1CFBA"/>
<stop offset="1" stop-color="#D388A1"/>
</linearGradient>
<linearGradient id="paint22_linear_66_1368" x1="427.352" y1="98.1903" x2="291.255" y2="78.2583" gradientUnits="userSpaceOnUse">
<stop stop-color="#E8F0FD"/>
<stop offset="0.17" stop-color="#DEE8FC"/>
<stop offset="0.46" stop-color="#C3D6FB"/>
<stop offset="0.83" stop-color="#98B7FA"/>
<stop offset="1" stop-color="#83A8FA"/>
</linearGradient>
<linearGradient id="paint23_linear_66_1368" x1="449.555" y1="121.805" x2="316.465" y2="116.822" gradientUnits="userSpaceOnUse">
<stop stop-color="#F1CFBA"/>
<stop offset="1" stop-color="#D388A1"/>
</linearGradient>
<linearGradient id="paint24_linear_66_1368" x1="183.688" y1="418.307" x2="-43.0465" y2="317.397" gradientUnits="userSpaceOnUse">
<stop stop-color="#20267F"/>
<stop offset="0.24" stop-color="#212881"/>
<stop offset="0.42" stop-color="#252F8B"/>
<stop offset="0.57" stop-color="#2C3B9B"/>
<stop offset="0.71" stop-color="#364DB1"/>
<stop offset="0.85" stop-color="#4363CE"/>
<stop offset="0.98" stop-color="#527EF2"/>
<stop offset="1" stop-color="#5684F9"/>
</linearGradient>
<linearGradient id="paint25_linear_66_1368" x1="201.398" y1="378.51" x2="-25.3359" y2="277.606" gradientUnits="userSpaceOnUse">
<stop stop-color="#20267F"/>
<stop offset="0.24" stop-color="#212881"/>
<stop offset="0.42" stop-color="#252F8B"/>
<stop offset="0.57" stop-color="#2C3B9B"/>
<stop offset="0.71" stop-color="#364DB1"/>
<stop offset="0.85" stop-color="#4363CE"/>
<stop offset="0.98" stop-color="#527EF2"/>
<stop offset="1" stop-color="#5684F9"/>
</linearGradient>
<linearGradient id="paint26_linear_66_1368" x1="30.9393" y1="207.855" x2="209.401" y2="255.503" gradientUnits="userSpaceOnUse">
<stop stop-color="#20267F"/>
<stop offset="0.24" stop-color="#212881"/>
<stop offset="0.42" stop-color="#252F8B"/>
<stop offset="0.57" stop-color="#2C3B9B"/>
<stop offset="0.71" stop-color="#364DB1"/>
<stop offset="0.85" stop-color="#4363CE"/>
<stop offset="0.98" stop-color="#527EF2"/>
<stop offset="1" stop-color="#5684F9"/>
</linearGradient>
<linearGradient id="paint27_linear_66_1368" x1="-4.6892" y1="222.838" x2="173.772" y2="270.492" gradientUnits="userSpaceOnUse">
<stop stop-color="#20267F"/>
<stop offset="0.24" stop-color="#212881"/>
<stop offset="0.42" stop-color="#252F8B"/>
<stop offset="0.57" stop-color="#2C3B9B"/>
<stop offset="0.71" stop-color="#364DB1"/>
<stop offset="0.85" stop-color="#4363CE"/>
<stop offset="0.98" stop-color="#527EF2"/>
<stop offset="1" stop-color="#5684F9"/>
</linearGradient>
<linearGradient id="paint28_linear_66_1368" x1="172.996" y1="45.2128" x2="90.0276" y2="9.94993" gradientUnits="userSpaceOnUse">
<stop offset="0.04" stop-color="#0F1782"/>
<stop offset="0.12" stop-color="#0F1782"/>
<stop offset="1" stop-color="#0168FF"/>
</linearGradient>
<linearGradient id="paint29_linear_66_1368" x1="140.521" y1="90.6744" x2="140.727" y2="52.0549" gradientUnits="userSpaceOnUse">
<stop stop-color="#F1CFBA"/>
<stop offset="1" stop-color="#D388A1"/>
</linearGradient>
<linearGradient id="paint30_linear_66_1368" x1="127.441" y1="49.8339" x2="165.843" y2="49.8339" gradientUnits="userSpaceOnUse">
<stop stop-color="#F1CFBA"/>
<stop offset="1" stop-color="#D388A1"/>
</linearGradient>
<linearGradient id="paint31_linear_66_1368" x1="104.222" y1="44.784" x2="140.347" y2="42.9147" gradientUnits="userSpaceOnUse">
<stop stop-color="#F1CFBA"/>
<stop offset="1" stop-color="#D388A1"/>
</linearGradient>
<linearGradient id="paint32_linear_66_1368" x1="109.528" y1="43.2999" x2="157.377" y2="43.2999" gradientUnits="userSpaceOnUse">
<stop stop-color="#F1CFBA"/>
<stop offset="1" stop-color="#D388A1"/>
</linearGradient>
<linearGradient id="paint33_linear_66_1368" x1="76.2776" y1="149.655" x2="113.374" y2="149.655" gradientUnits="userSpaceOnUse">
<stop stop-color="#F1CFBA"/>
<stop offset="1" stop-color="#D388A1"/>
</linearGradient>
<linearGradient id="paint34_linear_66_1368" x1="76.2776" y1="149.655" x2="113.374" y2="149.655" gradientUnits="userSpaceOnUse">
<stop stop-color="#F1CFBA"/>
<stop offset="1" stop-color="#D388A1"/>
</linearGradient>
<linearGradient id="paint35_linear_66_1368" x1="74.1965" y1="161.92" x2="166.401" y2="161.92" gradientUnits="userSpaceOnUse">
<stop stop-color="#F1CFBA"/>
<stop offset="1" stop-color="#D388A1"/>
</linearGradient>
<linearGradient id="paint36_linear_66_1368" x1="74.2014" y1="164.035" x2="166.401" y2="164.035" gradientUnits="userSpaceOnUse">
<stop stop-color="#F1CFBA"/>
<stop offset="1" stop-color="#D388A1"/>
</linearGradient>
<linearGradient id="paint37_linear_66_1368" x1="378.454" y1="156.725" x2="90.9027" y2="333.412" gradientUnits="userSpaceOnUse">
<stop stop-color="#E8F0FD"/>
<stop offset="0.17" stop-color="#DEE8FC"/>
<stop offset="0.46" stop-color="#C3D6FB"/>
<stop offset="0.83" stop-color="#98B7FA"/>
<stop offset="1" stop-color="#83A8FA"/>
</linearGradient>
<linearGradient id="paint38_linear_66_1368" x1="276.814" y1="80.3621" x2="220.092" y2="120.678" gradientUnits="userSpaceOnUse">
<stop offset="0.04" stop-color="#0F1782"/>
<stop offset="0.12" stop-color="#0F1782"/>
<stop offset="1" stop-color="#0168FF"/>
</linearGradient>
</defs>
</svg>
