<svg width="48" height="54" viewBox="0 0 48 54" fill="none" xmlns="http://www.w3.org/2000/svg">
<path d="M39.112 0.333328H8.89065C2.96531 0.333328 0.00262451 3.29602 0.00262451 9.22135V35.888C0.00262451 41.8134 2.96531 44.776 8.89065 44.776H12.8906C14.2906 44.776 15.608 45.4347 16.4453 46.5547L20.4453 51.888C22.224 54.2587 25.7786 54.2587 27.5573 51.888L31.5573 46.5547C32.3973 45.4347 33.7147 44.776 35.112 44.776H39.112C45.0373 44.776 48 41.8134 48 35.888V9.22135C48 3.29602 45.0373 0.333328 39.112 0.333328ZM16 33.5334C16 33.976 15.6426 34.3333 15.1999 34.3333H13.4401C12.2775 34.3333 11.3334 33.3894 11.3334 32.2267V22.36C11.3334 21.2 12.2801 20.2533 13.4401 20.2533H15.1999C15.6426 20.2533 16 20.6107 16 21.0534V33.5334ZM36.3174 23L33.4906 31.4533C32.9306 33.16 32.3172 34.3333 29.4906 34.3333H19.4639C19.0212 34.3333 18.6641 33.976 18.6641 33.5334V19.5013C18.6641 19.416 18.6775 19.3333 18.7041 19.2506L21.5973 10.4399C21.944 9.53327 22.7975 9 23.7041 9C24.1308 9 24.5574 9.1067 24.9307 9.37337C26.104 10.1467 26.7972 11.4801 26.7972 12.8934V17.4533H32.3174C36.5307 17.4533 37.2241 20.28 36.3174 23Z" fill="url(#paint0_linear_66_1059)"/>
<defs>
<linearGradient id="paint0_linear_66_1059" x1="0.00262466" y1="42.7741" x2="18.949" y2="42.7741" gradientUnits="userSpaceOnUse">
<stop stop-color="#0CD890"/>
<stop offset="1" stop-color="#01F0FD"/>
</linearGradient>
</defs>
</svg>
