<svg width="224" height="114" viewBox="0 0 224 114" fill="none" xmlns="http://www.w3.org/2000/svg">
<path d="M177.984 108.835H61.2521L74.9189 25.3303C75.1696 23.7004 76.6742 22.4465 78.3042 22.4465H189.143C190.773 22.4465 191.901 23.9511 191.65 25.5811L177.984 108.835Z" fill="#737B98"/>
<path d="M178.485 109.337H61.2521V109.086L74.9189 25.5811C75.1696 23.8257 76.7996 22.4465 78.555 22.4465L189.017 21.8196L190.773 22.948C191.776 23.5749 192.277 24.578 192.027 25.7065L178.485 109.337ZM61.7537 108.835H177.984L191.65 25.5811C191.776 24.7034 191.4 23.8257 190.647 23.3242L189.017 22.3211L78.6804 22.948C77.1758 22.948 75.7966 24.2019 75.5458 25.7065L61.7537 108.835Z" fill="#212435"/>
<path d="M176.73 108.208H59.9983L73.665 24.7034C73.9158 23.0734 75.4204 21.8196 77.0504 21.8196H187.889C189.519 21.8196 190.647 23.0734 190.397 24.7034L176.73 108.208Z" fill="#B4BAD0"/>
<path d="M59.9981 108.459C59.8727 108.459 59.7473 108.334 59.7473 108.208L73.414 24.7034C73.6648 22.9481 75.2948 21.5688 77.0502 21.5688H187.889C188.766 21.5688 189.519 21.945 190.02 22.4465C190.522 23.0734 190.772 23.8257 190.647 24.7034L178.109 101.563C178.109 101.689 177.983 101.814 177.858 101.814C177.733 101.814 177.607 101.689 177.607 101.563L190.146 24.7034C190.271 23.9511 190.146 23.3242 189.644 22.8227C189.268 22.3211 188.641 22.0704 187.889 22.0704H77.0502C75.5456 22.0704 74.1663 23.3242 73.9156 24.8288L60.2488 108.334C60.2488 108.459 60.1235 108.459 59.9981 108.459Z" fill="#212435"/>
<path d="M65.515 103.569L78.0533 26.4587H185.381L172.843 103.569H65.515Z" fill="#EEF0F5"/>
<path d="M174.598 113.349H14.8604C12.2273 113.349 10.0958 111.218 10.0958 108.585C10.0958 105.952 12.2273 103.82 14.8604 103.82H174.598C177.231 103.82 179.363 105.952 179.363 108.585C179.237 111.218 177.106 113.349 174.598 113.349Z" fill="#737B98"/>
<path d="M174.598 110.089H14.8604C12.8542 110.089 11.0989 108.835 10.472 107.08C10.2212 107.581 10.0958 108.208 10.0958 108.71C10.0958 111.343 12.2273 113.474 14.8604 113.474H174.598C177.231 113.474 179.363 111.343 179.363 108.71C179.363 108.083 179.237 107.581 178.987 107.08C178.234 108.71 176.604 110.089 174.598 110.089Z" fill="#212435"/>
<path d="M59.9981 106.955H49.3406C47.209 106.955 45.3283 105.826 44.4506 103.945H64.888C64.0104 105.826 62.1296 106.955 59.9981 106.955Z" fill="#212435"/>
<path d="M174.598 113.6H14.8605C12.102 113.6 9.84515 111.343 9.84515 108.584C9.84515 105.826 12.102 103.569 14.8605 103.569H174.598C177.357 103.569 179.614 105.826 179.614 108.584C179.488 111.343 177.357 113.6 174.598 113.6ZM14.8605 104.196C12.3528 104.196 10.3467 106.202 10.3467 108.71C10.3467 111.217 12.3528 113.224 14.8605 113.224H174.598C177.106 113.224 179.112 111.217 179.112 108.71C179.112 106.202 177.106 104.196 174.598 104.196H14.8605Z" fill="#212435"/>
<path d="M174.598 113.349H91.344C88.711 113.349 86.5794 111.218 86.5794 108.585C86.5794 105.952 88.711 103.82 91.344 103.82H174.598C177.231 103.82 179.363 105.952 179.363 108.585C179.237 111.218 177.106 113.349 174.598 113.349Z" fill="#737B98"/>
<path d="M174.598 113.6H91.3441C88.5856 113.6 86.3287 111.343 86.3287 108.584C86.3287 105.826 88.5856 103.569 91.3441 103.569H174.598C177.357 103.569 179.614 105.826 179.614 108.584C179.488 111.343 177.357 113.6 174.598 113.6ZM91.3441 104.196C88.8364 104.196 86.8303 106.202 86.8303 108.71C86.8303 111.217 88.8364 113.224 91.3441 113.224H174.598C177.106 113.224 179.112 111.217 179.112 108.71C179.112 106.202 177.106 104.196 174.598 104.196H91.3441Z" fill="#212435"/>
<g opacity="0.3">
<path d="M76.6499 19.5202C74.8287 19.5202 73.1377 20.9511 72.8775 22.7722L63.5117 79.7478H160.812C162.894 79.7478 164.585 78.3169 164.845 76.2356L174.211 19.3901H76.6499V19.5202Z" fill="#002280"/>
</g>
<path d="M156.26 74.2843H50.5038C47.9022 74.2843 46.0811 71.9429 46.4713 69.4713L56.0973 10.8047C56.4876 8.85346 58.1786 7.29248 60.1299 7.29248H165.886C168.488 7.29248 170.309 9.63395 169.918 12.1055L160.292 70.7721C159.902 72.8534 158.211 74.2843 156.26 74.2843Z" fill="url(#paint0_linear_66_709)"/>
<path d="M80.6826 59.5854L77.5606 74.2846H84.585L88.3574 60.496L80.6826 59.5854Z" fill="white"/>
<g opacity="0.3">
<path d="M77.5606 74.2846H79.1216C80.6826 70.9025 84.1948 62.4472 82.5037 59.8456C82.2435 59.4554 80.9427 59.5854 80.6826 59.7155L77.5606 74.2846Z" fill="#B3CDFA"/>
</g>
<path d="M128.032 59.5854L128.682 74.2846H121.658L120.097 60.496L128.032 59.5854Z" fill="white"/>
<g opacity="0.3">
<path d="M128.032 59.7154C127.642 59.7154 126.471 59.5853 126.081 59.8455C123.87 62.317 126.081 70.7723 126.992 74.1544H128.553L128.032 59.7154Z" fill="#B3CDFA"/>
</g>
<path d="M122.569 36.1707C122.178 35.6504 121.658 35.1301 121.268 34.4797C120.617 33.5691 120.227 32.5285 120.097 31.3577C119.967 29.2764 120.748 26.935 120.357 24.8537C119.967 22.7724 118.276 22.3821 117.495 20.6911C117.105 19.9106 117.105 19 116.845 18.0895C116.585 16.6586 116.065 15.3578 115.024 14.3171C112.682 11.8456 107.479 11.8456 104.357 13.1464C100.975 14.5773 98.2435 17.4391 96.1622 20.561C94.6012 22.9025 94.7313 25.6342 92.9101 27.8456C91.9996 28.8862 90.6987 29.6667 90.0483 30.9675C89.1378 32.3984 89.1378 34.0895 89.1378 35.7805C89.0077 37.3415 88.7475 38.9025 87.5768 40.0732C86.276 41.5041 84.4548 42.5447 84.715 44.7561C84.8451 46.187 85.8857 47.3577 87.1866 48.0081C88.4874 48.6586 89.9183 48.7886 91.3491 48.9187C94.8613 49.0488 98.5036 48.3984 101.365 46.187C102.146 45.5366 103.056 44.626 104.097 44.3659C105.008 44.1057 105.268 44.626 106.048 44.8862C107.869 45.5366 110.601 45.4065 112.422 44.496C113.593 43.9756 114.634 43.0651 115.935 43.0651C117.495 43.0651 118.276 44.3659 119.967 44.2358C121.268 44.1057 122.569 43.3252 123.219 42.1545C124.26 40.0732 123.739 37.7317 122.569 36.1707Z" fill="#212435"/>
<path d="M101.105 36.6912C101.105 36.6912 101.105 39.0327 100.715 40.5937L90.1784 45.2766C88.3573 45.6668 88.4874 64.3985 88.4874 64.3985H117.365C117.365 64.3985 122.178 44.8863 120.357 44.366L110.991 40.2034L110.601 36.1709L101.105 36.6912Z" fill="white"/>
<path d="M117.495 64.6586H88.2271V64.3985C88.2271 64.3985 88.2271 59.7155 88.4873 55.0326C88.8775 45.5367 89.7881 45.1465 90.1783 45.1465L100.585 40.4635C100.845 38.9026 100.845 36.6912 100.845 36.6912V36.431L110.731 36.0408L111.121 40.0733L120.357 44.1058C120.747 44.2359 121.658 44.6261 119.707 54.6424C118.796 59.5855 117.625 64.3985 117.495 64.5286V64.6586ZM88.7474 64.1383H117.105C117.365 63.2277 118.406 58.805 119.186 54.5123C121.008 45.1465 120.227 44.6261 120.097 44.6261L110.601 40.4635L110.211 36.5611L101.235 36.9513C101.235 37.6017 101.235 39.4229 100.845 40.7237V40.8538L90.0482 45.6668C89.9182 45.6668 89.1377 46.3172 88.7474 55.1627C88.7474 59.0652 88.7474 63.0977 88.7474 64.1383Z" fill="#212435"/>
<g opacity="0.3">
<path d="M99.9346 55.1626C102.146 53.4715 103.056 45.9268 103.056 45.9268C104.227 41.2439 107.609 37.9918 107.609 37.9918L110.601 36.5609V36.3008L101.235 36.691C101.235 36.691 101.235 39.0325 100.845 40.5935L90.3085 45.2764C88.4874 45.6666 88.6175 64.3983 88.6175 64.3983H94.9915C94.8614 64.3983 98.5037 56.3333 99.9346 55.1626Z" fill="#B3CDFA"/>
</g>
<path d="M105.398 52.9513C105.398 52.9513 101.235 39.0326 100.845 40.5936L87.1866 43.5855C85.3655 43.9757 83.9346 45.4066 83.4143 47.0976L79.6419 64.1383C82.2435 63.748 85.4956 63.618 87.3167 64.5285L84.7151 74.1545H121.658L120.487 63.8781C120.487 63.8781 124.26 62.5773 128.422 63.3578L127.252 47.3578C126.991 45.4066 125.691 43.9757 123.87 43.4554L110.861 40.0732L105.788 52.8212L105.398 52.9513Z" fill="#737B98"/>
<g opacity="0.57">
<path d="M86.0159 47.2277C86.5362 45.4065 87.9671 44.1057 89.7882 43.7155L101.365 41.1138C101.105 40.5935 100.975 40.3334 100.845 40.5935L87.1866 43.5854C85.3655 43.9756 83.9346 45.4065 83.4143 47.0976L79.6419 64.1382C80.4224 64.0081 82.7639 63.8781 82.7639 63.8781C84.4549 59.3252 86.0159 47.2277 86.0159 47.2277Z" fill="#212435"/>
<path d="M127.121 63.3576C127.512 63.3576 128.032 63.4877 128.422 63.4877V63.2275C127.902 63.3576 127.512 63.3576 127.121 63.3576Z" fill="#BF411A"/>
</g>
<path d="M114.764 23.2927C114.373 20.9513 113.333 19.3903 110.601 18.7399C108.65 18.2196 106.568 18.3497 104.487 18.3497C103.837 18.3497 103.316 18.3497 102.666 18.6098C100.715 19.3903 101.105 21.6017 100.845 23.0326C100.585 24.0732 100.064 24.9838 99.6741 25.8944C99.0237 27.8456 99.1538 29.7968 99.544 31.748C99.9343 33.9594 100.325 37.2115 102.666 38.3822C105.268 39.683 108.52 38.5123 110.471 36.561C111.902 35.1301 113.463 32.6586 113.593 30.7074C113.593 29.4066 113.463 27.9757 113.983 26.6749C114.243 26.1545 114.503 25.6342 114.633 25.1139C114.894 24.5936 114.894 23.9432 114.764 23.2927Z" fill="white"/>
<path d="M105.138 39.1626C104.357 39.1626 103.447 39.0325 102.666 38.6422C100.195 37.4715 99.6742 34.2195 99.4141 32.0081V31.878C99.1539 29.7967 98.8938 27.8455 99.5442 25.8943C99.6742 25.504 99.8043 25.1138 100.064 24.7235C100.325 24.2032 100.585 23.5528 100.715 23.0325C100.845 22.6423 100.845 22.3821 100.845 21.8618C100.975 20.5609 101.105 19 102.666 18.3496C103.317 18.0894 103.967 18.0894 104.487 18.0894C106.569 18.0894 108.65 17.9593 110.601 18.4797C113.593 19.2601 114.504 20.9512 114.894 23.2927C115.024 23.813 115.154 24.5935 114.894 25.374C114.764 25.7642 114.634 26.0244 114.504 26.2845C114.373 26.5447 114.243 26.6748 114.243 26.9349C113.853 27.8455 113.853 28.8861 113.853 29.9268C113.853 30.317 113.853 30.5772 113.853 30.9675C113.853 32.9187 112.162 35.3902 110.731 36.9512C109.3 38.1219 107.219 39.1626 105.138 39.1626ZM106.438 18.4797C105.788 18.4797 105.138 18.4797 104.487 18.4797C103.967 18.4797 103.317 18.4796 102.796 18.7398C101.495 19.2601 101.365 20.5609 101.235 21.8618C101.235 22.252 101.105 22.6423 101.105 23.0325C100.975 23.6829 100.715 24.3333 100.455 24.8536C100.325 25.2439 100.064 25.6341 99.9344 25.8943C99.284 27.7154 99.4141 29.6666 99.8043 31.6179V31.7479C100.195 33.9593 100.585 36.9512 102.796 37.9918C105.268 39.1626 108.39 37.9918 110.211 36.1707C111.642 34.7398 113.203 32.3983 113.203 30.5772C113.203 30.187 113.203 29.9268 113.203 29.5366C113.203 28.4959 113.203 27.4553 113.593 26.4146C113.723 26.1544 113.853 26.0244 113.853 25.7642C113.983 25.504 114.113 25.2439 114.243 24.8536C114.373 24.2032 114.373 23.5528 114.243 23.0325C113.853 20.8211 113.073 19.3902 110.341 18.6097C109.3 18.6097 107.869 18.4797 106.438 18.4797Z" fill="#212435"/>
<g opacity="0.3">
<path d="M107.999 18.3496C108.129 18.3496 108.129 18.3496 107.999 18.3496C106.959 18.2195 105.658 18.2195 104.487 18.2195C103.837 18.2195 103.316 18.2195 102.666 18.4797C100.715 19.2601 101.105 21.4715 100.845 22.9024C100.585 23.9431 100.064 24.8536 99.6741 25.7642C99.0237 27.7154 99.1538 29.6666 99.544 31.6179C99.8042 33.1788 100.064 35.1301 100.975 36.691C101.495 35.7805 102.016 34.8699 102.146 33.9593C102.146 33.0487 102.146 32.2683 101.886 31.4878C101.495 30.7073 100.845 29.9268 101.105 29.0162C101.235 28.4959 101.886 28.1057 102.276 27.5853C103.577 25.7642 101.235 23.9431 102.926 21.8618C104.097 20.3008 106.568 19.7805 107.999 18.3496Z" fill="#B3CDFA"/>
</g>
<g opacity="0.3">
<path d="M110.601 18.6098C110.341 18.4797 110.081 18.4797 109.82 18.4797L109.3 19.5204C110.211 19.9106 109.69 21.6017 110.211 22.3822C111.511 24.0732 109.3 26.8049 110.081 28.8862C110.471 29.7968 112.422 30.4472 112.812 31.3578C113.072 31.8781 113.203 32.3984 113.203 32.9188C113.463 32.2683 113.723 31.6179 113.723 30.9675C113.723 29.6667 113.593 28.2358 114.113 26.935C114.373 26.4147 114.633 25.8944 114.763 25.374C115.024 24.7236 114.894 24.0732 114.763 23.4228C114.243 20.8212 113.333 19.3903 110.601 18.6098Z" fill="#B3CDFA"/>
</g>
<path d="M119.056 40.5934C119.316 40.0731 119.316 39.5528 119.316 39.0325C119.316 37.4715 119.316 35.7804 119.446 34.2195C119.446 33.439 119.446 32.6585 119.316 32.0081C118.926 30.5772 117.885 29.2764 117.495 27.8455C117.235 26.5447 117.625 25.1138 117.625 23.813C117.885 20.1707 114.113 17.1788 110.861 16.9186C108.129 16.6585 107.479 19.7804 109.69 20.9512C110.601 21.3414 111.642 21.6016 112.162 22.3821C113.463 24.0731 111.772 26.8048 112.552 28.8861C112.942 29.7967 113.723 30.4471 114.113 31.3577C114.764 32.5284 114.503 34.0894 114.243 35.5203C113.983 37.0812 113.593 38.7723 113.333 40.3333C112.812 43.1951 115.154 47.4877 118.536 45.9268C117.885 45.1463 117.105 44.2357 117.495 43.065C117.755 42.0243 118.666 41.3739 119.056 40.5934Z" fill="#212435"/>
<path d="M107.219 15.2277C104.487 13.9269 101.626 17.6992 100.325 19.6504C98.5037 22.5122 96.6825 25.5041 95.772 28.7561C94.4712 33.1789 93.3004 37.6017 93.6907 42.0244C93.8208 42.935 93.8208 44.1057 93.0403 44.8862C92.2598 45.6667 90.8289 45.4065 90.1785 44.626C89.5281 43.8456 89.398 42.6748 89.2679 41.6342C89.2679 42.6748 89.0078 43.5854 89.0078 44.626C89.0078 45.6667 89.1378 46.7074 89.9183 47.3578C90.1785 47.6179 90.5687 47.8781 91.089 47.8781C92.5199 48.2683 94.0809 47.8781 95.2516 46.9675C96.4224 46.0569 97.2029 44.496 97.2029 43.0651C97.2029 41.374 96.8126 40.3334 97.8533 38.7724C98.7638 37.3415 100.455 36.0407 100.585 34.3496C100.715 33.4391 100.715 32.6586 100.585 31.8781C100.325 31.0976 99.6744 30.187 100.065 29.4065C100.325 28.8862 100.845 28.496 101.235 27.9757C102.666 26.2846 100.585 24.2033 102.406 22.2521C103.837 20.6911 106.309 20.561 107.87 19.2602C109.17 17.9594 108.52 15.8781 107.219 15.2277Z" fill="#212435"/>
<path d="M107.089 35.5204L106.959 34.7399L110.341 34.3497C111.512 34.2196 112.553 33.309 112.943 32.0082L113.203 30.3171L113.983 30.4472L113.723 32.1383C113.333 33.6993 112.032 34.87 110.471 35.0001L107.089 35.5204Z" fill="#212435"/>
<path d="M108.65 35.7805L106.829 35.9105C106.438 35.9105 106.048 35.6504 106.048 35.2601C106.048 34.8699 106.438 34.4796 106.829 34.3496L108.65 34.2195C109.04 34.2195 109.43 34.4796 109.43 34.8699C109.43 35.3902 109.04 35.7805 108.65 35.7805Z" fill="#212435"/>
<g opacity="0.3">
<path d="M160.682 38.7725H136.227L134.796 47.4879C134.536 49.0489 135.837 50.4798 137.398 50.4798H163.674L164.845 43.5855C165.235 41.1139 163.284 38.7725 160.682 38.7725Z" fill="#002280"/>
</g>
<path d="M133.105 45.9268H218.699C219.739 45.9268 220.52 45.2764 220.78 44.2358L223.122 30.3171C223.382 28.7561 222.081 27.3252 220.52 27.3252H134.926C133.886 27.3252 133.105 27.9756 132.845 29.0163L130.504 42.935C130.244 44.4959 131.544 45.9268 133.105 45.9268Z" fill="#1067DB"/>
<path d="M156.13 33.9594H195.414C195.544 33.9594 195.675 33.8293 195.675 33.6993L196.195 32.1383C196.195 32.0082 196.065 31.748 195.935 31.748H156.65C156.52 31.748 156.39 31.8781 156.39 32.0082L155.87 33.5692C155.87 33.6993 156 33.9594 156.13 33.9594Z" fill="#4085E2"/>
<path d="M196.585 38.9025H213.366C213.496 38.9025 213.626 38.7725 213.626 38.6424L214.146 37.0814C214.146 36.9513 214.016 36.6912 213.886 36.6912H197.106C196.975 36.6912 196.845 36.8212 196.845 36.9513L196.325 38.5123C196.195 38.7725 196.325 38.9025 196.585 38.9025Z" fill="white"/>
<path d="M155.219 38.9025H192.943C193.073 38.9025 193.203 38.7725 193.203 38.6424L193.723 37.0814C193.723 36.9513 193.593 36.6912 193.463 36.6912H155.74C155.61 36.6912 155.479 36.8212 155.479 36.9513L154.959 38.5123C154.959 38.7725 155.089 38.9025 155.219 38.9025Z" fill="white"/>
<path d="M138.569 35.13C138.829 34.8699 138.959 34.6097 139.089 34.3495C139.089 34.0894 139.089 33.8292 138.959 33.6991C138.829 33.569 138.569 33.439 138.309 33.439C137.788 33.439 137.268 33.8292 136.748 34.4796L135.577 33.6991C136.097 33.1788 136.487 32.6585 137.008 32.3983C137.528 32.1381 138.048 32.0081 138.699 32.0081C139.349 32.0081 139.87 32.2682 140.39 32.6585C140.78 33.0487 140.91 33.6991 140.78 34.3495C140.65 34.7398 140.52 35.13 140.26 35.5202C140 35.9105 139.479 36.3007 138.829 36.9511L137.138 38.3821H140.26L140 39.943H134.536L134.796 38.6422L137.528 36.3007C137.918 35.7804 138.309 35.3902 138.569 35.13Z" fill="white"/>
<path d="M144.683 36.561L144.943 35.2602H146.634L146.374 36.561H147.284L147.024 38.122H146.114L145.723 39.9431H144.032L144.423 38.122H141.171L141.431 36.8211L145.203 32.2683H147.154L143.642 36.6911H144.683V36.561Z" fill="white"/>
<path d="M150.016 34.7399L149.626 36.561H148.715L149.626 31.748H150.536L150.146 33.4391C150.536 33.1789 150.796 33.0489 151.187 33.0489C151.577 33.0489 151.837 33.1789 151.967 33.4391C152.227 33.6993 152.227 34.0895 152.097 34.4798L151.707 36.561H150.796L151.187 34.6098C151.317 34.0895 151.187 33.8293 150.796 33.8293C150.666 33.8293 150.406 33.9594 150.276 34.0895C150.276 34.3497 150.146 34.4798 150.016 34.7399Z" fill="white"/>
<g opacity="0.3">
<path d="M74.6346 45.7725H44.0655L41.5939 60.8619H73.0736C74.3744 60.8619 75.5451 59.9513 75.6752 58.6505L77.1061 48.8944C77.4964 47.2034 76.1955 45.7725 74.6346 45.7725Z" fill="#002280"/>
</g>
<path d="M0.878591 54.0976L2.30948 44.3415C2.56965 43.0407 3.6103 42.1301 4.91111 42.1301H70.7322C72.4233 42.1301 73.594 43.561 73.3338 45.2521L71.903 55.0082C71.6428 56.309 70.6021 57.2196 69.3013 57.2196H3.48022C1.91924 57.2196 0.618429 55.7887 0.878591 54.0976Z" fill="white"/>
<path d="M22.0822 46.6829L22.3423 44.9918C22.3423 44.7316 22.6025 44.6016 22.7326 44.6016H54.9927C55.2529 44.6016 55.513 44.8617 55.383 45.1219L55.1228 46.8129C55.1228 47.0731 54.8626 47.2032 54.7325 47.2032H22.6025C22.3423 47.2032 22.0822 46.943 22.0822 46.6829Z" fill="#B3CDFA"/>
<path d="M21.0413 53.3171L21.3014 51.6261C21.3014 51.3659 21.5616 51.2358 21.6917 51.2358H68.5209C68.7811 51.2358 69.0412 51.496 68.9112 51.7562L68.651 53.4472C68.651 53.7074 68.3908 53.8375 68.2608 53.8375H21.4315C21.3014 53.8375 21.0413 53.5773 21.0413 53.3171Z" fill="#E1EBFD"/>
<path d="M2.43986 44.3415L1.00896 54.0976C0.7488 55.6585 2.04961 57.2195 3.61059 57.2195H17.009C17.009 57.0894 17.009 56.9593 17.139 56.8293L19.3504 42.5203C19.3504 42.3902 19.3504 42.2602 19.3504 42H5.04148C3.74067 42.1301 2.56994 43.0407 2.43986 44.3415Z" fill="#1067DB"/>
<path d="M8.81369 48.8945C8.94377 48.3741 8.94377 48.114 8.81369 47.9839C8.68361 47.8538 8.42345 47.7237 8.0332 47.7237L8.16328 47.0733H8.42345C8.94377 47.0733 9.4641 47.0733 9.85434 47.0733C10.3747 47.0733 10.7649 46.9432 11.2852 46.9432L10.3747 52.5367C10.2446 53.0571 10.2446 53.4473 10.3747 53.5774C10.5047 53.7075 10.6348 53.7075 11.0251 53.8375L10.895 54.4879H6.99255L7.12263 53.8375C7.51288 53.8375 7.77304 53.7075 7.90312 53.5774C8.0332 53.4473 8.16329 53.1871 8.29337 52.6668L8.81369 48.8945ZM9.20394 44.8619C9.20394 44.6018 9.33402 44.3416 9.59418 44.0814C9.85434 43.9514 10.1145 43.8213 10.5047 43.8213C10.895 43.8213 11.1552 43.9514 11.2852 44.0814C11.4153 44.2115 11.5454 44.4717 11.5454 44.8619C11.5454 45.1221 11.4153 45.3823 11.1552 45.6424C10.895 45.7725 10.6348 45.9026 10.2446 45.9026C9.85434 45.9026 9.59418 45.7725 9.33402 45.6424C9.20393 45.3823 9.07385 45.1221 9.20394 44.8619Z" fill="white"/>
<path d="M39.9936 23.8049L24.5139 23.9349C22.3025 23.9349 20.6114 21.9837 20.8716 19.7723L23.6033 3.64227C23.9936 1.69105 25.6846 0.130079 27.6358 0.130079L43.1155 0C45.3269 0 47.0179 1.95121 46.7578 4.1626L44.0261 20.2927C43.6358 22.374 41.9448 23.8049 39.9936 23.8049Z" fill="#0CDA97"/>
<path d="M34.9204 15.9999L29.9773 16.9105C29.5871 17.0406 29.1968 16.6503 29.3269 16.2601C29.3269 15.9999 29.7172 15.6097 29.9773 15.6097L34.9204 14.6991C35.3106 14.569 35.7009 14.9593 35.5708 15.3495C35.5708 15.6097 35.1806 15.8698 34.9204 15.9999Z" fill="white"/>
<path d="M34.53 18.0812L29.5869 18.9918C29.1966 19.1219 28.8064 18.7316 28.9365 18.3414C28.9365 18.0812 29.3267 17.691 29.5869 17.691L34.53 16.7804C34.9202 16.6503 35.3104 17.0406 35.1804 17.4308C35.0503 17.691 34.7901 17.9511 34.53 18.0812Z" fill="white"/>
<path d="M38.5625 8.45539C39.0828 5.85377 37.3917 3.77246 34.7901 3.77246C32.1885 3.77246 29.7169 5.85377 29.1966 8.45539C28.9364 9.88629 29.3267 11.1871 30.1072 12.0977L29.5868 14.9595L35.9608 13.7887L36.3511 11.9676C37.3917 11.1871 38.3023 9.88629 38.5625 8.45539Z" fill="white"/>
<path d="M31.148 19.2521C31.148 19.7724 31.5383 20.0325 31.9285 20.0325C32.4488 20.0325 32.9691 19.6423 33.0992 18.9919V18.8618L31.148 19.2521Z" fill="white"/>
<path d="M154.898 91.1951L158.28 70.122C158.54 68.3008 160.101 67 161.923 67H207.227C209.569 67 211.26 69.0813 210.87 71.2927L207.487 92.3658C207.227 94.187 205.666 95.4878 203.845 95.4878H158.54C156.329 95.4878 154.508 93.4065 154.898 91.1951Z" fill="white"/>
<path d="M183.776 78.5774L184.296 75.5856C184.296 75.3254 184.556 75.1953 184.816 75.1953H202.325C202.585 75.1953 202.845 75.4555 202.845 75.8457L202.325 78.8376C202.325 79.0978 202.065 79.2278 201.804 79.2278H184.296C183.906 79.2278 183.646 78.9677 183.776 78.5774Z" fill="#1067DB"/>
<path d="M182.865 84.1709L183.386 81.1791C183.386 80.9189 183.646 80.7888 183.906 80.7888H197.365C197.625 80.7888 197.886 81.049 197.886 81.4392L197.365 84.4311C197.365 84.6913 197.105 84.8213 196.845 84.8213H183.386C182.995 84.8213 182.735 84.5612 182.865 84.1709Z" fill="#737B98"/>
<path d="M175.191 83.0001H177.012C177.402 83.0001 177.662 82.74 177.793 82.3497L178.183 80.1384C178.183 79.7481 178.053 79.4879 177.662 79.4879H176.232C175.971 79.4879 175.841 79.3579 175.841 79.0977C175.841 78.9676 175.841 78.8375 175.711 78.7075C175.711 78.4473 175.711 78.3172 175.971 78.0571L177.142 77.0164C177.402 76.7562 177.532 76.366 177.272 76.1058L175.971 74.5449C175.711 74.2847 175.321 74.2847 175.061 74.5449L173.89 75.5855C173.76 75.7156 173.5 75.8457 173.24 75.7156C173.11 75.7156 172.98 75.5855 172.849 75.5855C172.719 75.4554 172.589 75.3253 172.589 75.0652L172.849 73.6343C172.98 73.244 172.719 72.9839 172.329 72.9839H170.118C169.727 72.9839 169.467 73.244 169.337 73.6343L169.077 75.0652C169.077 75.3253 168.817 75.4554 168.687 75.5855C168.557 75.5855 168.427 75.7156 168.297 75.7156C168.036 75.8457 167.776 75.7156 167.646 75.5855L166.866 74.6749C166.606 74.4148 166.215 74.4148 165.955 74.6749L164.134 76.2359C163.874 76.4961 163.744 76.8863 164.004 77.1465L164.784 78.1871C164.914 78.3172 164.914 78.5774 164.784 78.8375C164.654 78.9676 164.654 79.0977 164.524 79.2278C164.394 79.488 164.134 79.618 164.004 79.618H162.573C162.183 79.618 161.923 79.8782 161.793 80.2684L161.402 82.4798C161.402 82.8701 161.532 83.1302 161.923 83.1302H163.354C163.614 83.1302 163.744 83.2603 163.744 83.5205C163.744 83.6505 163.744 83.7806 163.874 83.9107C163.874 84.1709 163.874 84.301 163.614 84.5611L162.443 85.6018C162.183 85.8619 162.053 86.2522 162.313 86.5123L163.614 88.0733C163.874 88.3335 164.264 88.3335 164.524 88.0733L165.695 87.0327C165.825 86.9026 166.085 86.7725 166.345 86.9026C166.475 86.9026 166.606 87.0327 166.736 87.0327C166.866 87.1627 166.996 87.2928 166.996 87.553L166.736 88.9839C166.736 89.3741 166.866 89.6343 167.256 89.6343H169.467C169.858 89.6343 170.118 89.3741 170.248 88.9839L170.508 87.553C170.508 87.2928 170.768 87.1627 170.898 87.0327C171.028 87.0327 171.158 86.9026 171.288 86.9026C171.549 86.7725 171.809 86.9026 171.939 87.0327L172.719 87.9432C172.98 88.2034 173.37 88.2034 173.63 87.9432L175.451 86.3823C175.711 86.1221 175.841 85.7318 175.581 85.4717L174.801 84.431C174.671 84.301 174.671 84.0408 174.801 83.7806C174.931 83.3904 175.191 83.0001 175.191 83.0001ZM166.606 80.6587C167.386 78.7075 169.597 77.5367 171.288 78.3172C172.589 78.8375 173.24 80.3985 172.589 81.8294C171.809 83.7806 169.597 84.9514 167.906 84.1709C166.606 83.6505 166.085 82.0896 166.606 80.6587Z" fill="#1067DB"/>
<path d="M112.422 91.0651C111.902 94.4472 108.78 97.0488 105.528 97.0488C102.146 97.0488 99.9345 94.3171 100.455 91.0651C100.975 87.683 104.097 85.0814 107.349 85.0814C110.601 84.9513 112.943 87.683 112.422 91.0651Z" fill="#FF5722"/>
<path d="M108.78 90.9352C108.78 90.8051 108.78 90.8051 108.78 90.9352C108.78 90.8051 108.78 90.8051 108.78 90.675C108.78 90.675 108.78 90.675 108.78 90.5449V90.4148V90.2847C108.91 89.6343 109.04 88.5937 109.04 88.5937C109.04 88.4636 109.04 88.3335 108.91 88.2034L108.78 88.0734L108.13 87.423L108 87.2929C107.869 87.1628 107.739 87.1628 107.739 87.2929L106.829 88.8538V88.9839V89.114C106.829 89.114 106.959 89.2441 107.089 89.2441C107.219 89.3742 107.219 89.3742 107.219 89.5043C107.219 90.2847 105.788 91.7156 105.008 91.7156C104.878 91.7156 104.878 91.5856 104.748 91.5856C104.617 91.4555 104.617 91.3254 104.617 91.3254H104.487H104.357L102.796 92.236C102.666 92.366 102.666 92.4961 102.796 92.4961L102.926 92.6262L103.577 93.2766L103.707 93.4067C103.707 93.4067 103.837 93.5368 103.967 93.5368H104.097C104.097 93.5368 106.309 93.1465 106.439 93.1465C106.959 92.7563 108.13 91.5856 108.78 90.9352Z" fill="white"/>
<path d="M135.707 91.0651C135.187 94.4472 132.065 97.0488 128.813 97.0488C125.431 97.0488 123.219 94.3171 123.739 91.0651C124.26 87.683 127.382 85.0814 130.634 85.0814C133.886 84.9513 136.227 87.683 135.707 91.0651Z" fill="#1067DB"/>
<path d="M127.902 89.5041C127.772 89.6341 127.772 89.6341 127.902 89.5041C127.772 89.6341 127.772 89.6341 127.772 89.6341C127.772 89.6341 127.772 89.6341 127.642 89.6341C127.642 89.6341 127.642 89.6342 127.512 89.7642C127.512 89.7642 127.382 89.7642 127.382 89.8943C126.862 90.2845 126.081 90.935 126.081 90.935C125.951 91.065 125.951 91.1951 125.951 91.3252V91.4553V92.2358V92.4959C125.951 92.626 126.081 92.7561 126.211 92.7561L127.902 92.2358C127.902 92.2358 128.032 92.2358 128.032 92.1057V91.9756C128.032 91.9756 128.032 91.8455 128.032 91.7155C128.032 91.5854 128.032 91.4553 128.032 91.4553C128.553 90.9349 130.634 90.8049 131.154 91.3252C131.284 91.3252 131.284 91.5854 131.284 91.5854C131.284 91.7154 131.284 91.8455 131.284 91.8455C131.284 91.8455 131.284 91.9756 131.414 91.9756H131.544L133.235 92.3659C133.366 92.3659 133.496 92.2358 133.496 92.1057V91.9756V91.065V90.935C133.496 90.8049 133.496 90.6748 133.366 90.6748C133.366 90.6748 133.366 90.6748 133.235 90.5447C133.235 90.5447 131.414 89.2439 131.284 89.2439C130.374 89.5041 128.813 89.5041 127.902 89.5041Z" fill="white"/>
<defs>
<linearGradient id="paint0_linear_66_709" x1="46.4186" y1="60.6029" x2="95.1894" y2="60.6029" gradientUnits="userSpaceOnUse">
<stop stop-color="#0CD890"/>
<stop offset="1" stop-color="#01F0FD"/>
</linearGradient>
</defs>
</svg>
