<svg width="56" height="46" viewBox="0 0 56 46" fill="none" xmlns="http://www.w3.org/2000/svg">
<path d="M38.1865 19.6133C37.7865 19.3466 37.7601 18.7868 38.0801 18.4401C40.1067 16.0668 41.36 13.0267 41.36 9.66666C41.36 8.67999 41.2534 7.72011 41.04 6.78678C41.04 6.78678 40.9867 6.57348 40.9867 6.49348C40.9867 6.06682 41.3227 5.71188 41.7494 5.68522C41.776 5.68522 42.1066 5.66666 42.2399 5.66666C47.2266 5.66666 51.12 10.5468 49.36 15.7734C48.5867 18.0934 46.6133 19.9065 44.2666 20.5198C41.9999 21.1065 39.8665 20.6799 38.1865 19.6133ZM45.7868 23.4534C45.2801 23.4534 44.96 23.7999 44.96 24.2532C44.96 24.4399 45.1093 24.6798 45.2533 24.8398C48.4266 28.1198 49.9199 32.7066 49.9199 37.2666V39.64C49.9199 40.0133 50.24 40.3333 50.64 40.3333H54.6667C55.4133 40.3333 56 39.7467 56 39V33.6934C56 28.9734 53.3335 23.4534 45.7868 23.4534ZM11.7334 20.5198C14.0001 21.1065 16.1335 20.6799 17.8135 19.6133C18.2135 19.3466 18.2399 18.7868 17.9199 18.4401C15.8933 16.0668 14.64 13.0267 14.64 9.66666C14.64 8.67999 14.7466 7.72011 14.96 6.78678C14.96 6.78678 15.0133 6.57348 15.0133 6.49348C15.0133 6.06682 14.6773 5.71188 14.2507 5.68522C14.224 5.68522 13.8934 5.66666 13.7601 5.66666C8.77343 5.66666 4.87997 10.5468 6.63997 15.7734C7.41331 18.0934 9.38673 19.9065 11.7334 20.5198ZM11.04 24.2532C11.04 23.7999 10.7199 23.4534 10.2132 23.4534C2.66655 23.4534 0 28.9734 0 33.6934V39C0 39.7467 0.586667 40.3333 1.33333 40.3333H5.36003C5.76003 40.3333 6.08008 40.0133 6.08008 39.64V37.2666C6.08008 32.7066 7.57341 28.1198 10.7467 24.8398C10.8907 24.6798 11.04 24.4399 11.04 24.2532ZM28.0215 19C33.1682 19 37.3548 14.8133 37.3548 9.66666C37.3548 4.51999 33.1682 0.333328 28.0215 0.333328C22.8748 0.333328 18.6882 4.51999 18.6882 9.66666C18.6882 14.8133 22.8748 19 28.0215 19ZM32.7386 24.0374H23.2588C13.5255 24.0374 10.0719 31.1626 10.0719 37.2666V44.3333C10.0719 45.0693 10.6693 45.6667 11.4053 45.6667H44.5921C45.3281 45.6667 45.9255 45.0693 45.9255 44.3333V37.2666C45.9281 31.1626 42.4746 24.0374 32.7386 24.0374Z" fill="url(#paint0_linear_66_1053)"/>
<defs>
<linearGradient id="paint0_linear_66_1053" x1="1.73233e-07" y1="36.4084" x2="22.1053" y2="36.4084" gradientUnits="userSpaceOnUse">
<stop stop-color="#0CD890"/>
<stop offset="1" stop-color="#01F0FD"/>
</linearGradient>
</defs>
</svg>
