<svg width="234" height="115" viewBox="0 0 234 115" fill="none" xmlns="http://www.w3.org/2000/svg">
<path d="M233.481 114.6H0.519317C0.393934 114.6 0.268555 114.475 0.268555 114.349C0.268555 114.224 0.393934 114.098 0.519317 114.098H233.481C233.606 114.098 233.732 114.224 233.732 114.349C233.732 114.475 233.606 114.6 233.481 114.6Z" fill="#212435"/>
<path d="M189.722 109.835H72.9906L86.6573 26.3303C86.9081 24.7004 88.4127 23.4465 90.0427 23.4465H200.881C202.511 23.4465 203.64 24.9511 203.389 26.5811L189.722 109.835Z" fill="#737B98"/>
<path d="M190.224 110.337H72.9906V110.086L86.6573 26.5811C86.9081 24.8257 88.5381 23.4465 90.2935 23.4465L200.756 22.8196L202.511 23.948C203.514 24.5749 204.016 25.578 203.765 26.7065L190.224 110.337ZM73.4921 109.835H189.722L203.389 26.5811C203.514 25.7034 203.138 24.8257 202.386 24.3242L200.756 23.3211L90.4188 23.948C88.9142 23.948 87.535 25.2019 87.2843 26.7065L73.4921 109.835Z" fill="#212435"/>
<path d="M188.468 109.208H71.7368L85.4036 25.7034C85.6543 24.0734 87.1589 22.8196 88.7889 22.8196H199.627C201.257 22.8196 202.386 24.0734 202.135 25.7034L188.468 109.208Z" fill="#B4BAD0"/>
<path d="M71.7365 109.459C71.6111 109.459 71.4857 109.334 71.4857 109.208L85.1525 25.7034C85.4032 23.9481 87.0332 22.5688 88.7886 22.5688H199.627C200.505 22.5688 201.257 22.945 201.759 23.4465C202.26 24.0734 202.511 24.8257 202.385 25.7034L189.847 102.563C189.847 102.689 189.722 102.814 189.596 102.814C189.471 102.814 189.346 102.689 189.346 102.563L201.884 25.7034C202.009 24.9511 201.884 24.3242 201.382 23.8227C201.006 23.3211 200.379 23.0704 199.627 23.0704H88.7886C87.284 23.0704 85.9047 24.3242 85.654 25.8288L71.9872 109.334C71.9872 109.459 71.8619 109.459 71.7365 109.459Z" fill="#212435"/>
<path d="M77.2535 104.569L89.7918 27.4587H197.12L184.581 104.569H77.2535Z" fill="#EEF0F5"/>
<path d="M186.337 114.349H26.5989C23.9659 114.349 21.8344 112.218 21.8344 109.585C21.8344 106.952 23.9659 104.82 26.5989 104.82H186.337C188.97 104.82 191.101 106.952 191.101 109.585C190.976 112.218 188.844 114.349 186.337 114.349Z" fill="#737B98"/>
<path d="M186.337 111.089H26.5989C24.5928 111.089 22.8374 109.835 22.2105 108.08C21.9597 108.581 21.8344 109.208 21.8344 109.71C21.8344 112.343 23.9659 114.474 26.5989 114.474H186.337C188.97 114.474 191.101 112.343 191.101 109.71C191.101 109.083 190.976 108.581 190.725 108.08C189.973 109.71 188.343 111.089 186.337 111.089Z" fill="#212435"/>
<path d="M71.7366 107.955H61.079C58.9475 107.955 57.0668 106.826 56.1891 104.945H76.6265C75.7488 106.826 73.8681 107.955 71.7366 107.955Z" fill="#212435"/>
<path d="M186.337 114.6H26.5989C23.8405 114.6 21.5836 112.343 21.5836 109.584C21.5836 106.826 23.8405 104.569 26.5989 104.569H186.337C189.095 104.569 191.352 106.826 191.352 109.584C191.227 112.343 189.095 114.6 186.337 114.6ZM26.5989 105.196C24.0913 105.196 22.0852 107.202 22.0852 109.71C22.0852 112.217 24.0913 114.224 26.5989 114.224H186.337C188.844 114.224 190.851 112.217 190.851 109.71C190.851 107.202 188.844 105.196 186.337 105.196H26.5989Z" fill="#212435"/>
<path d="M186.337 114.349H103.082C100.449 114.349 98.3179 112.218 98.3179 109.585C98.3179 106.952 100.449 104.82 103.082 104.82H186.337C188.97 104.82 191.101 106.952 191.101 109.585C190.976 112.218 188.844 114.349 186.337 114.349Z" fill="#737B98"/>
<path d="M186.337 114.6H103.082C100.324 114.6 98.0671 112.343 98.0671 109.584C98.0671 106.826 100.324 104.569 103.082 104.569H186.337C189.095 104.569 191.352 106.826 191.352 109.584C191.227 112.343 189.095 114.6 186.337 114.6ZM103.082 105.196C100.575 105.196 98.5687 107.202 98.5687 109.71C98.5687 112.217 100.575 114.224 103.082 114.224H186.337C188.844 114.224 190.851 112.217 190.851 109.71C190.851 107.202 188.844 105.196 186.337 105.196H103.082Z" fill="#212435"/>
<path d="M105.519 30.604L107.149 19.9465C107.4 18.5673 108.528 17.5642 110.033 17.5642H181.626C183.382 17.5642 184.761 19.1942 184.51 20.9495L182.88 31.6071C182.63 32.9863 181.501 33.9894 179.996 33.9894H108.403C106.522 33.864 105.143 32.3594 105.519 30.604Z" fill="white"/>
<path d="M128.59 22.4542L128.84 20.5734C128.84 20.3226 129.091 20.1973 129.342 20.1973H164.324C164.574 20.1973 164.825 20.448 164.825 20.8242L164.574 22.7049C164.574 22.9557 164.324 23.0811 164.073 23.0811H129.091C128.715 23.0811 128.464 22.7049 128.59 22.4542Z" fill="#737B98"/>
<path d="M127.461 29.6011L127.712 27.7204C127.712 27.4696 127.963 27.3442 128.213 27.3442H179.119C179.37 27.3442 179.62 27.595 179.62 27.9712L179.37 29.8519C179.37 30.1027 179.119 30.228 178.868 30.228H127.963C127.587 30.228 127.336 29.9773 127.461 29.6011Z" fill="#B4BAD0"/>
<path d="M107.024 19.9465L105.394 30.6041C105.143 32.3594 106.522 33.9894 108.278 33.9894H122.822C122.822 33.864 122.822 33.7387 122.947 33.6133L125.33 18.0658C125.33 17.9404 125.33 17.6897 125.33 17.5643H109.908C108.528 17.4389 107.275 18.4419 107.024 19.9465Z" fill="#0BD88F"/>
<path d="M119.311 26.2157L111.788 30.228C111.412 30.4788 110.91 30.228 111.036 29.7265L112.415 21.702C112.54 21.2004 113.042 20.9497 113.418 21.2004L119.687 25.2127C119.938 25.3381 119.813 25.965 119.311 26.2157L111.788 30.228C111.412 30.4788 110.91 30.228 111.036 29.7265L112.415 21.702C112.54 21.2004 113.042 20.9497 113.418 21.2004L119.687 25.2127C119.938 25.3381 119.813 25.965 119.311 26.2157Z" fill="white"/>
<path d="M96.312 78.239L97.942 67.5815C98.1927 66.2023 99.3212 65.1992 100.826 65.1992H172.419C174.175 65.1992 175.554 66.8292 175.303 68.5846L173.673 79.2421C173.422 80.6213 172.294 81.6244 170.789 81.6244H99.1958C97.315 81.6244 95.9358 79.9944 96.312 78.239Z" fill="white"/>
<path d="M119.382 70.0892L119.633 68.2084C119.633 67.9576 119.884 67.8323 120.135 67.8323H155.117C155.367 67.8323 155.618 68.083 155.618 68.4592L155.367 70.3399C155.367 70.5907 155.117 70.7161 154.866 70.7161H119.884C119.508 70.7161 119.257 70.4653 119.382 70.0892Z" fill="#737B98"/>
<path d="M118.128 77.3614L118.379 75.4806C118.379 75.2299 118.63 75.1045 118.881 75.1045H169.786C170.037 75.1045 170.288 75.3553 170.288 75.7314L170.037 77.6122C170.037 77.8629 169.786 77.9883 169.535 77.9883H118.63C118.379 77.8629 118.128 77.6122 118.128 77.3614Z" fill="#B4BAD0"/>
<path d="M97.8166 67.5815L96.1866 78.239C95.9359 79.9944 97.3151 81.6244 99.0704 81.6244H113.615C113.615 81.499 113.615 81.3736 113.74 81.2482L116.123 65.7007C116.123 65.5754 116.123 65.3246 116.123 65.1992H100.7C99.3212 65.1992 98.0674 66.2023 97.8166 67.5815Z" fill="#1067DB"/>
<path d="M110.104 73.8508L102.581 77.863C102.205 78.1138 101.703 77.863 101.829 77.3615L103.208 69.337C103.333 68.8354 103.835 68.5847 104.211 68.8354L110.48 72.8477C110.606 73.0985 110.606 73.6 110.104 73.8508L102.581 77.863C102.205 78.1138 101.703 77.863 101.829 77.3615L103.208 69.337C103.333 68.8354 103.835 68.5847 104.211 68.8354L110.48 72.8477C110.606 73.0985 110.606 73.6 110.104 73.8508Z" fill="white"/>
<path d="M93.3026 96.9209L94.9326 86.2634C95.1834 84.8842 96.3118 83.8811 97.8164 83.8811H169.41C171.165 83.8811 172.545 85.5111 172.294 87.2665L170.664 97.924C170.413 99.3032 169.285 100.306 167.78 100.306H96.1864C94.3057 100.306 93.0519 98.6763 93.3026 96.9209Z" fill="white"/>
<path d="M116.373 88.7711L116.624 86.8903C116.624 86.6395 116.875 86.5142 117.126 86.5142H152.107C152.358 86.5142 152.609 86.7649 152.609 87.1411L152.358 89.0218C152.358 89.2726 152.107 89.398 151.857 89.398H116.875C116.499 89.398 116.373 89.1472 116.373 88.7711Z" fill="#737B98"/>
<path d="M115.245 96.0433L115.496 94.1625C115.496 93.9118 115.746 93.7864 115.997 93.7864H166.903C167.153 93.7864 167.404 94.0371 167.404 94.4133L167.153 96.294C167.153 96.5448 166.903 96.6702 166.652 96.6702H115.746C115.37 96.5448 115.12 96.294 115.245 96.0433Z" fill="#B4BAD0"/>
<path d="M94.9328 86.2634L93.3028 96.9209C93.0521 98.6763 94.4313 100.306 96.1867 100.306H110.731C110.731 100.181 110.731 100.056 110.856 99.9301L113.239 84.3826C113.239 84.2573 113.239 84.0065 113.239 83.8811H97.8166C96.312 83.8811 95.0582 84.8842 94.9328 86.2634Z" fill="#737B98"/>
<path d="M107.22 92.5324L99.6972 96.5446C99.3211 96.7954 98.8195 96.5447 98.9449 96.0431L100.324 88.0186C100.45 87.5171 100.951 87.2663 101.327 87.5171L107.596 91.5293C107.722 91.7801 107.596 92.2816 107.22 92.5324L99.6972 96.5446C99.3211 96.7954 98.8195 96.5447 98.9449 96.0431L100.324 88.0186C100.45 87.5171 100.951 87.2663 101.327 87.5171L107.596 91.5293C107.722 91.7801 107.596 92.2816 107.22 92.5324Z" fill="white"/>
<g opacity="0.3">
<path d="M181.627 39.3809H116.177H98.247C96.617 39.3809 95.2378 40.6347 94.9871 42.2647L94.7363 43.8947L93.1063 54.6776C92.9809 55.3045 93.1063 55.9314 93.3571 56.4329C93.6079 57.0599 94.1094 57.6868 94.7363 58.0629C95.2378 58.3137 95.8647 58.5645 96.4917 58.5645H113.418H179.871C181.501 58.5645 182.881 57.3106 183.131 55.6806L185.012 43.2677C185.263 41.2616 183.633 39.3809 181.627 39.3809Z" fill="#002280"/>
</g>
<path d="M90.5985 52.0443L92.4793 39.6314C92.73 38.0014 94.1092 36.7476 95.7392 36.7476H179.244C181.25 36.7476 182.88 38.6283 182.504 40.6344L180.623 53.0474C180.373 54.6773 178.993 55.9311 177.364 55.9311H93.8585C91.8523 55.9311 90.3477 54.0504 90.5985 52.0443Z" fill="white"/>
<path d="M117.556 42.6406L117.932 40.5091C117.932 40.2583 118.183 40.0076 118.559 40.0076H159.434C159.81 40.0076 160.061 40.3837 160.061 40.6345L159.685 42.766C159.685 43.0168 159.434 43.2675 159.058 43.2675H118.183C117.681 43.2675 117.43 42.8914 117.556 42.6406Z" fill="#737B98"/>
<path d="M116.177 50.9157L116.553 48.7842C116.553 48.5335 116.804 48.2827 117.18 48.2827H176.611C176.987 48.2827 177.238 48.6589 177.238 48.9096L176.862 51.0411C176.862 51.2919 176.611 51.5427 176.235 51.5427H116.804C116.428 51.668 116.177 51.2919 116.177 50.9157Z" fill="#B4BAD0"/>
<path d="M92.4794 39.6314L90.5986 52.0443C90.2225 54.0504 91.8525 55.9311 93.8586 55.9311H110.785C110.785 55.8058 110.911 55.6804 110.911 55.555L113.669 37.3745C113.669 37.1237 113.669 36.9983 113.669 36.7476H95.7393C94.1094 36.7476 92.7301 38.0014 92.4794 39.6314Z" fill="url(#paint0_linear_66_413)"/>
<path d="M106.773 46.9035L97.9962 51.5426C97.4946 51.7934 96.9931 51.4173 97.1185 50.9157L98.6231 41.6374C98.7485 41.1359 99.3754 40.7597 99.7515 41.0105L107.024 45.6496C107.4 46.0258 107.275 46.6527 106.773 46.9035L97.9962 51.5426C97.4946 51.7934 96.9931 51.4173 97.1185 50.9157L98.6231 41.6374C98.7485 41.1359 99.3754 40.7597 99.7515 41.0105L107.024 45.6496C107.4 46.0258 107.275 46.6527 106.773 46.9035Z" fill="white"/>
<path d="M227.935 52.9115L218.532 53.0369C217.152 53.0369 216.149 51.783 216.4 50.5292L218.03 40.7493C218.281 39.4955 219.284 38.6178 220.538 38.6178L229.941 38.4924C231.321 38.4924 232.324 39.7463 232.073 41.0001L230.443 50.78C230.192 52.0338 229.189 52.9115 227.935 52.9115Z" fill="#0BD88F"/>
<path d="M227.81 45.0125C227.936 44.8871 227.936 44.7617 227.81 44.7617L225.553 44.5109L225.303 43.2571L225.052 42.3794C225.052 42.2541 224.926 42.2541 224.801 42.3794L223.296 44.5109L223.171 44.6363L220.789 45.0125C220.663 45.0125 220.538 45.1379 220.663 45.2632L221.541 46.3917L221.917 46.8932V47.0186L221.29 48.6486V48.774L221.04 49.4009C221.04 49.5263 221.04 49.5263 221.165 49.5263C221.165 49.5263 221.165 49.5263 221.29 49.5263L223.673 48.3978H223.798L225.553 49.4009C225.679 49.4009 225.804 49.4009 225.804 49.2755L226.055 47.0186C226.055 47.0186 226.055 46.8932 226.18 46.8932L227.81 45.0125Z" fill="white"/>
<path d="M205.897 33.7278L193.358 33.8532C191.603 33.8532 190.098 32.2232 190.474 30.4678L192.606 17.428C192.857 15.798 194.236 14.6696 195.866 14.6696L208.404 14.5442C210.16 14.5442 211.664 16.1742 211.288 17.9295L209.156 30.9694C209.031 32.5993 207.527 33.7278 205.897 33.7278Z" fill="#1067DB"/>
<path d="M196.117 22.694C196.493 21.1894 198.123 19.9355 199.628 19.9355C200.38 19.9355 201.007 20.3117 201.383 20.8132C202.01 20.3117 202.762 19.9355 203.514 19.9355C205.019 19.9355 205.897 21.1894 205.521 22.694C205.27 23.4463 204.894 24.0732 204.267 24.5747L199.377 28.4616L196.368 24.4493L196.242 24.1986C195.991 23.8224 195.991 23.3209 196.117 22.694Z" fill="white"/>
<g opacity="0.3">
<path d="M99.0703 22.945L98.1927 27.9603C98.0673 28.7126 97.315 29.3395 96.5627 29.3395H84.2751L85.4036 22.8196L99.0703 22.945Z" fill="#002280"/>
</g>
<path d="M84.2887 89.7741H40.7809C39.7778 89.7741 39.0255 88.8965 39.1509 87.8934L43.1631 64.0706C43.2885 63.3183 44.0408 62.6914 44.7931 62.6914H88.301C89.3041 62.6914 90.0564 63.5691 89.931 64.5722L85.9187 88.3949C85.7933 89.2726 85.1664 89.7741 84.2887 89.7741Z" fill="#0BD88F"/>
<path d="M68.7411 73.2237L62.5973 69.2114C62.2212 68.9606 61.5943 69.3368 61.4689 69.8383L60.0897 77.7374C59.9643 78.239 60.4658 78.6151 60.9674 78.3644L68.4903 74.3521C69.1172 74.2267 69.2426 73.4744 68.7411 73.2237Z" fill="white"/>
<path d="M45.2947 83.1287H82.408L82.6588 81.7495H45.5454L45.2947 83.1287Z" fill="white"/>
<path d="M61.5944 83.1287H82.4079L82.6587 81.7495H61.8451L61.5944 83.1287Z" fill="#212435"/>
<path d="M60.09 82.3764C59.9646 83.2541 60.4661 83.881 61.3438 83.881C62.2215 83.881 63.0992 83.1287 63.2246 82.3764C63.3499 81.4987 62.8484 80.8718 61.9707 80.8718C61.0931 80.8718 60.3408 81.4987 60.09 82.3764Z" fill="white"/>
<path d="M60.8422 82.3765C60.7168 82.878 61.0929 83.2541 61.5945 83.2541C62.096 83.2541 62.5975 82.878 62.5975 82.3765C62.7229 81.8749 62.3468 81.4988 61.8452 81.4988C61.3437 81.4988 60.9676 81.8749 60.8422 82.3765Z" fill="#212435"/>
<path d="M86.8309 2.13151L83.8217 20.0613C83.5709 21.3151 82.4425 22.1928 81.314 22.1928H77.4272L77.3018 23.1958L76.8003 26.0797C76.6749 26.5812 76.1733 26.7066 75.9226 26.3304L70.9073 22.1928H54.7329C53.479 22.1928 52.7267 21.1897 52.9775 20.0613L55.9867 2.13151C56.2374 0.877677 57.3659 0 58.4943 0H85.0755C86.204 0 87.0817 1.00306 86.8309 2.13151Z" fill="#1067DB"/>
<path d="M78.6809 17.5536H57.9927C57.742 17.5536 57.6166 17.3029 57.6166 17.0521L59.7481 4.01227C59.7481 3.7615 59.9989 3.51074 60.2496 3.51074H80.9378C81.1886 3.51074 81.3139 3.7615 81.3139 4.01227L79.1824 17.0521C79.1824 17.3029 78.9317 17.5536 78.6809 17.5536Z" fill="#267CEF"/>
<path d="M74.1671 10.5321C73.5401 13.1652 70.9071 15.2967 68.2741 15.2967C65.641 15.2967 64.011 13.1652 64.638 10.5321C65.2649 7.89909 67.8979 5.76758 70.531 5.76758C73.164 5.76758 74.794 7.89909 74.1671 10.5321Z" fill="white"/>
<path d="M69.2769 10.9083C69.1515 10.9083 69.0262 10.7829 69.1515 10.6575L69.7785 8.02445C69.7785 7.89907 69.9038 7.77368 70.0292 7.77368C70.1546 7.77368 70.28 7.89907 70.1546 8.02445L69.5277 10.6575C69.5277 10.7829 69.4023 10.9083 69.2769 10.9083Z" fill="#1067DB"/>
<path d="M71.534 10.6575C71.534 10.5321 71.534 10.4067 71.4086 10.4067H69.4025C69.2771 10.4067 69.1517 10.5321 69.1517 10.6575C69.1517 10.7829 69.1517 10.9083 69.2771 10.9083H71.2832C71.4086 10.9083 71.534 10.7829 71.534 10.6575Z" fill="#1067DB"/>
<defs>
<linearGradient id="paint0_linear_66_413" x1="90.5443" y1="52.0134" x2="99.6725" y2="52.0134" gradientUnits="userSpaceOnUse">
<stop stop-color="#0CD890"/>
<stop offset="1" stop-color="#01F0FD"/>
</linearGradient>
</defs>
</svg>
