<svg width="234" height="115" viewBox="0 0 234 115" fill="none" xmlns="http://www.w3.org/2000/svg">
<path d="M52.7331 110.588H169.733L156.035 26.8904C155.784 25.2567 154.276 24 152.642 24L41.0001 23.5C39.3664 23.5 38.7836 25.2567 39.035 26.8904L52.7331 110.588Z" fill="#737B98"/>
<path d="M169.907 110.314H52.4048L38.7066 26.4913C38.5809 25.3602 39.0836 24.2292 39.9633 23.7265L41.7227 22.5955H41.8484L152.565 23.2238C154.324 23.2238 155.958 24.6062 156.209 26.3656L169.907 110.314ZM52.7818 109.811H169.279L155.707 26.3656C155.455 24.8575 154.073 23.6008 152.565 23.6008L41.9741 22.9725L40.3403 23.9778C39.5863 24.4805 39.0836 25.3602 39.335 26.2399L52.7818 109.811Z" fill="#212435"/>
<path d="M54.0386 109.309H171.039L157.34 25.6119C157.089 23.9782 155.581 22.7214 153.947 22.7214H42.8538C41.2201 22.7214 40.089 23.9782 40.3404 25.6119L54.0386 109.309Z" fill="#B4BAD0"/>
<path d="M171.039 109.56C170.913 109.56 170.787 109.434 170.787 109.309L157.215 25.6117C156.963 24.1036 155.581 22.8469 154.073 22.8469H42.8539C42.0999 22.8469 41.5972 23.0983 41.0945 23.601C40.7175 24.1036 40.4662 24.732 40.5918 25.486L53.159 102.523C53.159 102.648 53.0333 102.774 52.9076 102.774C52.782 102.774 52.6563 102.648 52.6563 102.523L40.0892 25.486C39.9635 24.6063 40.2148 23.8523 40.7175 23.2239C41.2202 22.5956 41.9742 22.3442 42.8539 22.3442H153.947C155.707 22.3442 157.34 23.7266 157.592 25.486L171.29 109.183C171.416 109.434 171.29 109.56 171.039 109.56C171.164 109.56 171.164 109.56 171.039 109.56Z" fill="#212435"/>
<path d="M165.635 104.533L152.942 27.3711H45.3672L58.06 104.533H165.635Z" fill="#EEF0F5"/>
<path d="M56.3009 114.336H216.406C219.045 114.336 221.182 112.199 221.182 109.56C221.182 106.921 219.045 104.785 216.406 104.785H56.3009C53.6618 104.785 51.5254 106.921 51.5254 109.56C51.5254 112.325 53.6618 114.336 56.3009 114.336Z" fill="#737B98"/>
<path d="M56.3009 111.068H216.406C218.417 111.068 220.176 109.811 220.805 108.052C221.056 108.555 221.182 109.183 221.182 109.686C221.182 112.325 219.045 114.461 216.406 114.461H56.3009C53.6618 114.461 51.5254 112.325 51.5254 109.686C51.5254 109.057 51.6511 108.555 51.9024 108.052C52.5308 109.811 54.2902 111.068 56.3009 111.068Z" fill="#212435"/>
<path d="M171.039 108.052H181.721C183.857 108.052 185.742 106.921 186.622 105.036H166.137C167.017 106.796 168.902 108.052 171.039 108.052Z" fill="#212435"/>
<path d="M216.406 114.587H56.3005C53.5358 114.587 51.2737 112.325 51.2737 109.56C51.2737 106.796 53.5358 104.533 56.3005 104.533H216.406C219.171 104.533 221.433 106.796 221.433 109.56C221.307 112.451 219.045 114.587 216.406 114.587ZM56.3005 105.162C53.7871 105.162 51.7764 107.173 51.7764 109.686C51.7764 112.199 53.7871 114.21 56.3005 114.21H216.406C218.919 114.21 220.93 112.199 220.93 109.686C220.93 107.173 218.919 105.162 216.406 105.162H56.3005Z" fill="#212435"/>
<path d="M56.3009 114.336H139.747C142.386 114.336 144.522 112.199 144.522 109.56C144.522 106.921 142.386 104.785 139.747 104.785H56.3009C53.6618 104.785 51.5254 106.921 51.5254 109.56C51.5254 112.325 53.6618 114.336 56.3009 114.336Z" fill="#737B98"/>
<path d="M139.746 114.587H56.3005C53.5358 114.587 51.2737 112.325 51.2737 109.56C51.2737 106.796 53.5358 104.533 56.3005 104.533H139.746C142.511 104.533 144.773 106.796 144.773 109.56C144.647 112.451 142.511 114.587 139.746 114.587ZM56.3005 105.162C53.7871 105.162 51.7764 107.173 51.7764 109.686C51.7764 112.199 53.7871 114.21 56.3005 114.21H139.746C142.26 114.21 144.27 112.199 144.27 109.686C144.27 107.173 142.26 105.162 139.746 105.162H56.3005Z" fill="#212435"/>
<path d="M233.749 114.587H0.251339C0.125667 114.587 0 114.461 0 114.336C0 114.21 0.125667 114.084 0.251339 114.084H233.749C233.874 114.084 234 114.21 234 114.336C234 114.461 233.874 114.587 233.749 114.587Z" fill="#212435"/>
<path d="M80.1622 104.533H155.691L140.861 9.77728C140.484 7.5152 138.348 5.63013 135.96 5.63013H68.2234C65.9613 5.63013 64.3276 7.5152 64.7046 9.77728L80.1622 104.533Z" fill="white"/>
<path d="M78.1514 47.1017H140.107C140.987 47.1017 141.49 46.4733 141.364 45.5936L138.097 24.7322C137.971 23.8525 137.217 23.2241 136.337 23.2241H74.507C73.6273 23.2241 73.1246 23.8525 73.2503 24.7322L76.5177 45.5936C76.6434 46.3476 77.3974 47.1017 78.1514 47.1017Z" fill="url(#paint0_linear_66_539)"/>
<path d="M99.5156 58.1605H122.765C122.89 58.1605 122.89 58.0349 122.89 57.9092L122.513 55.1444C122.513 55.0187 122.388 54.8931 122.262 54.8931H99.0129C98.8873 54.8931 98.8873 55.0187 98.8873 55.1444L99.2643 57.9092C99.39 58.0349 99.5156 58.1605 99.5156 58.1605Z" fill="#CFD8ED"/>
<path d="M100.521 63.6901H146.391C146.517 63.6901 146.517 63.5644 146.517 63.4387L146.14 60.6739C146.14 60.5483 146.014 60.4226 145.888 60.4226H100.018C99.8928 60.4226 99.8928 60.5483 99.8928 60.6739L100.27 63.4387C100.395 63.5644 100.395 63.6901 100.521 63.6901Z" fill="#CFD8ED"/>
<path d="M103.286 78.7706H126.535C126.661 78.7706 126.661 78.6449 126.661 78.5193L126.284 75.7545C126.284 75.6288 126.158 75.5032 126.032 75.5032H102.783C102.657 75.5032 102.657 75.6288 102.657 75.7545L103.034 78.5193C103.034 78.7706 103.16 78.7706 103.286 78.7706Z" fill="#CFD8ED"/>
<path d="M104.291 84.3002H150.161C150.287 84.3002 150.287 84.1745 150.287 84.0488L149.91 81.2841C149.91 81.1584 149.784 81.0327 149.658 81.0327H103.788C103.663 81.0327 103.663 81.1584 103.663 81.2841L104.04 84.0488C104.04 84.3002 104.165 84.3002 104.291 84.3002Z" fill="#CFD8ED"/>
<path d="M106.93 99.5065H130.179C130.305 99.5065 130.305 99.3808 130.305 99.2551L129.928 96.4904C129.928 96.3647 129.802 96.239 129.677 96.239H106.427C106.302 96.239 106.302 96.3647 106.302 96.4904L106.679 99.2551C106.679 99.3808 106.804 99.5065 106.93 99.5065Z" fill="#CFD8ED"/>
<path d="M153.429 102.02C153.429 101.894 153.303 101.769 153.177 101.769H107.433C107.307 101.769 107.307 101.894 107.307 102.02L107.684 104.533H153.931L153.429 102.02Z" fill="#CFD8ED"/>
<path d="M81.0418 66.7062H96.4994C97.0021 66.7062 97.3791 66.3292 97.2534 65.7009L95.2427 52.5054C95.117 52.0027 94.6143 51.5 94.1116 51.5H78.6541C78.1514 51.5 77.7744 51.877 77.9 52.5054L79.9108 65.7009C79.9108 66.3292 80.4135 66.7062 81.0418 66.7062Z" fill="#CFD8ED"/>
<path d="M84.4352 87.5678H99.8928C100.395 87.5678 100.772 87.1908 100.647 86.5624L98.636 73.3669C98.5104 72.8642 98.0077 72.3616 97.505 72.3616H82.0474C81.5447 72.3616 81.1677 72.7386 81.2934 73.3669L83.3041 86.5624C83.4298 87.1908 83.9325 87.5678 84.4352 87.5678Z" fill="#B3CDFA"/>
<path d="M102.155 94.2283C102.029 93.7256 101.526 93.2229 101.024 93.2229H85.566C85.0633 93.2229 84.6863 93.5999 84.812 94.2283L86.4457 104.659H103.788L102.155 94.2283Z" fill="#CFD8ED"/>
<path d="M66.2127 19.2025L64.7047 9.90277C64.3277 7.64069 65.9614 5.75562 68.2235 5.75562H135.96C138.222 5.75562 140.484 7.64069 140.861 9.90277L142.37 19.2025H66.2127Z" fill="#737B98"/>
<path d="M82.4242 12.4165C82.5499 13.0449 83.1782 13.5475 83.8066 13.5475C84.4349 13.5475 84.9376 13.0449 84.812 12.4165C84.6863 11.7881 84.0579 11.2855 83.4296 11.2855C82.8012 11.1598 82.4242 11.7881 82.4242 12.4165Z" fill="white"/>
<path d="M77.3973 12.4165C77.523 13.0449 78.1514 13.5475 78.7797 13.5475C79.4081 13.5475 79.9108 13.0449 79.7851 12.4165C79.6594 11.7881 79.0311 11.2855 78.4027 11.2855C77.7744 11.1598 77.3973 11.7881 77.3973 12.4165Z" fill="white"/>
<path d="M72.3706 12.4165C72.4963 13.0449 73.1246 13.5475 73.753 13.5475C74.3813 13.5475 74.884 13.0449 74.7583 12.4165C74.6327 11.7881 74.0043 11.2855 73.376 11.2855C72.7476 11.1598 72.2449 11.7881 72.3706 12.4165Z" fill="white"/>
<path d="M125.781 42.075H91.2212L90.9698 40.6926H125.529L125.781 42.075Z" fill="#212435"/>
<path d="M110.7 42.075H91.2212L90.9698 40.6926H110.449L110.7 42.075Z" fill="white"/>
<path d="M111.957 41.4465C112.083 42.2006 111.58 42.9546 110.826 42.9546C110.072 42.9546 109.192 42.3262 109.067 41.4465C108.941 40.6925 109.444 39.9385 110.198 39.9385C111.077 39.9385 111.831 40.5668 111.957 41.4465Z" fill="white"/>
<path d="M111.329 41.4466C111.454 41.9493 111.077 42.2006 110.7 42.2006C110.198 42.2006 109.821 41.8236 109.695 41.4466C109.569 40.9439 109.946 40.6926 110.323 40.6926C110.826 40.5669 111.203 40.9439 111.329 41.4466Z" fill="#212435"/>
<path d="M111.329 32.2724L104.165 36.9223C103.663 37.2993 102.909 36.7966 102.783 36.1683L100.898 26.7429C100.772 26.1146 101.401 25.7375 102.029 25.9889L111.077 30.6387C111.706 31.1414 111.831 31.8954 111.329 32.2724Z" fill="white"/>
<path d="M137.72 70.9792L131.185 82.164C130.054 84.0491 130.431 86.4368 132.064 87.9449L142.998 97.9986L148.527 90.961L137.72 70.9792Z" fill="#B3CDFA"/>
<path d="M192.387 48.6096L195.403 53.3851L193.895 54.3905L191.004 50.9974L192.387 48.6096Z" fill="#F1F2F2"/>
<path d="M192.261 48.6096L195.529 60.4227C195.529 60.5484 195.529 60.7997 195.277 60.7997L189.999 62.3078C189.873 62.3078 189.622 62.3078 189.622 62.0564L186.355 50.2434L192.261 48.6096Z" fill="#0CDA97"/>
<path d="M183.338 48.2327C180.825 48.9867 178.186 47.4786 177.558 44.9652C176.804 42.4518 178.312 39.8127 180.825 39.1843L183.338 48.2327Z" fill="#0CDA97"/>
<path d="M217.395 38.0532C219.783 37.4248 221.04 35.037 220.412 32.6493C219.783 30.2615 217.396 29.0048 215.008 29.6332L217.395 38.0532Z" fill="#0CDA97"/>
<path d="M191.506 34.4581L179.643 37.7625L182.947 49.6262L194.811 46.3219L191.506 34.4581Z" fill="white"/>
<path d="M193.087 40.3966L181.223 43.7009L182.875 49.6328L194.739 46.3285L193.087 40.3966Z" fill="#D1E1F2"/>
<path d="M214.364 18.9163L212.185 19.5232L220.176 48.2142L222.355 47.6073L214.364 18.9163Z" fill="white"/>
<path d="M193.28 46.784L184.564 49.2117L184.968 50.6644L193.685 48.2367L193.28 46.784Z" fill="#0CDA97"/>
<path d="M189.119 50.9972L186.732 51.6255L187.234 53.6363L189.622 53.0079C190.125 52.8822 190.502 52.2539 190.376 51.7512C190.25 51.1228 189.748 50.7458 189.119 50.9972Z" fill="#0CDA97"/>
<path d="M190.125 54.3905L187.737 55.0189L188.24 57.0296L190.627 56.4013C191.13 56.2756 191.507 55.6473 191.381 55.1446C191.256 54.5162 190.627 54.2649 190.125 54.3905Z" fill="#002280"/>
<path d="M191.13 57.7836L188.742 58.412L189.245 60.4227L191.633 59.7944C192.135 59.6687 192.512 59.0404 192.387 58.5377C192.261 58.035 191.633 57.658 191.13 57.7836Z" fill="#002280"/>
<path d="M212.117 19.5796L191.507 34.5345L193.015 40.3154L216.139 33.9061L212.117 19.5796Z" fill="#28F7B3"/>
<path d="M193.015 40.3153L194.775 46.3475L220.16 48.1069L216.139 33.906L193.015 40.3153Z" fill="#0CDA97"/>
<path d="M167.881 46.9759C167.881 46.9759 164.362 50.9974 164.362 54.2648V57.7836H154.685C154.685 57.7836 156.57 42.326 154.685 41.0693H161.22L167.881 46.9759Z" fill="white"/>
<path d="M164.739 58.0351H154.434V57.7837C155.188 51.8772 155.816 42.0748 154.56 41.3208L153.931 40.8181H161.472L168.384 46.976L168.258 47.1017C168.258 47.1017 164.739 51.1232 164.865 54.2649L164.739 58.0351ZM155.062 57.5324H164.236V54.2649C164.111 51.2488 166.876 47.73 167.63 46.976L161.346 41.3208H155.188C156.57 43.9599 155.314 55.1446 155.062 57.5324Z" fill="#212435"/>
<path d="M176.301 30.6385C176.175 30.2615 175.924 29.7588 175.798 29.3818V29.2561L176.301 30.6385Z" fill="white"/>
<path d="M156.822 34.1574C157.199 33.2777 157.701 32.398 158.204 31.5183C159.712 29.0049 161.597 26.6171 164.236 25.6117C165.744 25.109 167.378 24.9834 169.012 25.109C170.269 25.109 171.525 25.2347 172.656 25.7374C174.164 26.4914 175.044 27.8738 175.798 29.5075C176.049 30.6386 176.175 31.644 176.301 32.775C176.552 34.7857 178.186 36.6708 178.06 38.6816C178.06 39.0586 176.552 39.3099 176.552 39.6869C176.426 41.195 176.049 42.5774 175.672 44.0854C175.295 45.3421 174.667 46.5988 173.662 47.6042C172.782 48.3582 171.651 48.8609 170.52 49.1123C169.263 49.3636 168.006 49.615 166.75 49.3636C165.619 49.1123 164.613 48.6096 163.482 47.9812C162.226 47.3529 160.969 46.5988 159.838 45.5935C156.57 42.8287 155.314 38.0532 156.822 34.1574Z" fill="white"/>
<path d="M153.052 38.4303C151.669 37.0479 151.544 34.7858 152.549 33.2777C152.675 33.1521 152.8 32.9007 152.8 32.6494C152.8 32.398 152.675 32.2724 152.549 32.021C151.921 31.0156 151.921 29.7589 152.549 28.7536C152.675 28.5022 152.8 28.3766 152.8 28.1252C152.8 27.9995 152.8 27.7482 152.675 27.6225C152.423 26.6172 152.675 25.4861 153.429 24.7321C154.183 23.9781 155.188 23.601 156.193 23.8524C156.193 22.9727 156.193 22.093 156.57 21.4646C156.947 20.8363 158.078 20.3336 158.707 20.8363C158.707 19.2025 160.969 18.9512 162.1 18.8255C162.98 18.6999 163.734 18.5742 164.613 18.8255C164.99 18.9512 165.493 19.0769 165.87 19.3282C165.996 19.3282 166.75 20.0822 166.75 19.9566C168.761 19.2025 171.274 19.8309 172.531 21.5903C173.285 20.9619 174.29 20.8363 175.17 21.2133C175.672 21.4646 176.049 21.8416 176.301 22.2187C176.552 22.5957 176.552 22.9727 176.803 23.224C177.18 23.601 177.809 23.7267 178.312 24.1037C178.689 24.4807 179.066 24.8578 179.191 25.3604C179.443 25.8631 179.317 26.4915 179.317 27.1198C179.317 27.6225 179.191 28.1252 178.814 28.6279C178.563 29.0049 178.186 29.2563 177.809 29.3819C177.055 29.7589 176.175 30.0103 175.295 30.136C174.667 30.136 174.039 29.7589 173.536 29.5076C173.159 29.2563 171.777 27.9995 172.154 27.4969C171.651 27.9995 171.148 28.6279 170.394 28.8792C169.766 29.1306 168.886 29.1306 168.258 28.6279C168.635 29.6333 168.258 30.6386 168.258 31.644C168.258 32.775 168.383 34.0318 168.006 35.1628C167.629 36.2938 166.875 37.1735 166.75 38.3046C166.75 38.5559 166.75 38.8073 166.624 39.1843C166.498 39.4356 166.373 39.687 166.121 39.8126C165.87 39.8126 165.619 39.8126 165.493 39.5613C164.99 39.1843 164.99 38.5559 164.99 37.9276C164.99 37.0479 165.116 36.2938 165.116 35.4141C165.116 34.5344 165.242 33.7804 164.362 33.5291C162.854 33.1521 161.095 33.4034 160.215 34.7858C159.461 36.0425 159.712 37.5506 159.335 38.9329C158.958 40.441 157.701 41.5721 156.319 42.2004C154.937 42.8288 153.303 42.9544 151.795 42.9544C151.544 41.4464 151.921 39.5613 153.052 38.4303Z" fill="#212435"/>
<path d="M155.565 45.9705C155.565 45.9705 154.936 46.3475 153.805 46.8502C144.631 51.2487 138.348 60.1713 137.468 70.3507C137.217 72.8641 137.217 75.7546 137.343 78.8963C137.343 79.776 139.353 90.4581 139.479 91.3378C139.605 92.7202 139.228 98.5011 138.725 104.785L173.787 104.91L168.886 70.602C168.76 68.0886 168.383 65.5752 167.629 63.0617L164.487 53.1337L155.565 45.9705Z" fill="#212435"/>
<path d="M157.701 60.0458L172.405 73.3669C173.159 74.1209 174.416 73.9953 175.044 73.2413L186.857 59.6687L184.846 57.281C184.218 56.527 183.967 55.6473 183.967 54.6419C184.092 53.2595 184.972 52.1285 186.229 51.6258L186.732 51.5001L186.983 53.5109L189.371 52.7568L192.387 49.4894C193.141 48.484 194.397 47.9813 195.654 48.3583L196.408 48.6097L197.162 49.7407L196.785 50.9974L197.539 52.3798L197.162 54.3906L197.414 55.0189C197.791 55.7729 197.791 56.7783 197.414 57.5323L196.534 60.0458C196.408 60.5485 196.031 60.9255 195.654 61.1768L192.261 63.4389L179.191 86.0597C177.809 88.4475 174.667 89.2015 172.405 87.5678L148.779 71.3562C145.134 68.8428 144.506 63.6902 147.522 60.4228C150.161 57.5323 154.685 57.4067 157.701 60.0458Z" fill="white"/>
<path d="M174.793 87.9446C174.039 87.9446 173.159 87.6933 172.405 87.1906L148.402 71.6073C146.642 70.3506 145.385 68.4656 145.134 66.2035C144.883 64.0671 145.637 61.9306 147.145 60.2969C149.91 57.2808 154.685 57.1551 157.701 59.7942L171.902 73.7437C172.279 73.9951 172.907 74.2464 173.536 74.1208C174.164 74.1208 174.667 73.8694 174.918 73.6181L186.103 59.9199C186.229 59.6686 186.229 59.4172 186.103 59.1659L184.469 57.2808C183.841 56.5268 183.464 55.5214 183.59 54.516C183.715 53.008 184.595 51.7513 185.977 51.2486L186.731 50.9972L186.983 53.008L188.993 52.3796L192.01 49.1122C192.764 47.9811 194.146 47.4785 195.528 47.8555L196.408 48.1068L197.288 49.3635L196.911 50.6202L197.665 52.0026L197.288 54.0134L197.539 54.516C197.916 55.3957 197.916 56.4011 197.539 57.2808L196.659 59.7942C196.534 60.2969 196.157 60.7996 195.654 61.051L192.261 63.1874L179.065 85.0542C178.186 86.4366 177.055 87.4419 175.672 87.8189C175.421 87.9446 175.17 87.9446 174.793 87.9446ZM152.8 58.4118C150.915 58.4118 149.03 59.1659 147.648 60.6739C146.265 62.182 145.637 64.1927 145.888 66.2035C146.139 68.2142 147.145 70.0993 148.904 71.2303L172.907 86.8136C173.787 87.4419 174.793 87.5676 175.672 87.4419C176.803 87.1906 177.934 86.3109 178.688 84.9285L192.135 63.1874L195.654 60.9253C196.031 60.6739 196.282 60.2969 196.408 59.9199L197.288 57.4065C197.539 56.6524 197.539 55.7728 197.288 55.0187L197.036 54.3904L197.413 52.3796L196.659 50.8716L197.036 49.6149L196.408 48.7352L195.654 48.4838C194.523 48.1068 193.392 48.6095 192.764 49.4892L189.747 52.7566L186.983 53.5107L186.731 51.4999L186.48 51.6256C185.349 52.0026 184.469 53.1337 184.344 54.3904C184.344 55.2701 184.595 56.1498 185.098 56.9038L186.731 58.7889C187.108 59.1659 187.108 59.7942 186.731 60.1712L175.547 73.8694C175.17 74.2464 174.541 74.4978 173.787 74.6234C172.907 74.6234 172.153 74.4978 171.776 73.9951L157.576 60.0456C156.193 59.0402 154.434 58.4118 152.8 58.4118Z" fill="#212435"/>
<path d="M186.229 59.5429L175.044 73.2411C174.29 73.9951 173.159 74.1208 172.405 73.3667L157.701 60.0456C154.811 57.4065 150.161 57.5322 147.522 60.5483C144.506 63.8157 145.134 68.9682 148.779 71.4817L172.405 87.6933C174.667 89.327 177.809 88.573 179.191 86.1852L192.01 64.6954L186.229 59.5429Z" fill="#B3CDFA"/>
<path d="M154.434 44.5881L153.303 47.7299L166.373 63.8158L168.509 54.8932L154.434 44.5881Z" fill="#B3CDFA"/>
<g opacity="0.5">
<path d="M109.526 92.1396L106.51 71.0268C106.259 69.5187 105.002 68.3877 103.494 68.3877H70.8194C69.3113 68.3877 68.3059 69.5187 68.5573 71.0268L71.5734 92.1396C71.8247 93.6476 73.0815 94.7787 74.5895 94.7787H107.264C108.646 94.7787 109.652 93.522 109.526 92.1396Z" fill="#001755"/>
</g>
<path d="M71.0707 92.3912H103.745C105.253 92.3912 106.259 91.2602 106.007 89.7521L102.991 68.6393C102.74 67.1313 101.483 66.0002 99.9751 66.0002H67.3006C65.7925 66.0002 64.7871 67.1313 65.0385 68.6393L68.0546 89.7521C68.3059 91.1345 69.6883 92.3912 71.0707 92.3912Z" fill="white"/>
<path d="M73.3326 88.6211H101.232C102.363 88.6211 103.242 87.6157 103.117 86.4847L100.855 70.6501C100.729 69.519 99.5979 68.5137 98.4669 68.5137H70.4422C69.3112 68.5137 68.4315 69.519 68.5571 70.6501L70.8192 86.4847C71.0706 87.7414 72.0759 88.6211 73.3326 88.6211Z" fill="#1067DB"/>
<path d="M102.614 83.0915L103.117 86.6103C103.243 87.7413 102.489 88.621 101.232 88.621H90.6754L96.582 75.9282L102.614 83.0915Z" fill="#0CDA97"/>
<path d="M96.3306 79.6984L95.9536 80.4524L95.0739 79.3214L96.582 75.9282L99.3467 79.3214L98.8441 80.4524L98.09 79.6984L97.4617 81.0808L96.3306 79.6984Z" fill="white"/>
<path d="M91.9321 85.8562L87.4079 80.3267L83.3864 88.621H90.6754L91.9321 85.8562Z" fill="#0CDA97"/>
<path d="M75.2179 75.4255C75.4692 77.4363 77.3543 78.9443 79.2394 78.9443C81.2501 78.9443 82.5068 77.3106 82.2555 75.4255C82.0042 73.4148 80.1191 71.9067 78.234 71.9067C76.3489 71.9067 74.9665 73.4148 75.2179 75.4255Z" fill="#0CDA97"/>
<path d="M87.0308 83.9711L86.7794 84.7252L85.774 83.5941L87.4078 80.3267L90.0469 83.5941L89.5442 84.7252L88.9158 83.9711L88.2875 85.3535L87.0308 83.9711Z" fill="white"/>
<path d="M42.6847 65.8561L55.6289 65.9817C57.514 65.9817 58.8963 64.348 58.645 62.4629L56.3829 49.0161C56.1316 47.3824 54.6235 46.1257 52.9898 46.1257L40.0456 46C38.1606 46 36.7782 47.6337 37.0295 49.5188L39.2916 62.9656C39.543 64.5994 41.051 65.8561 42.6847 65.8561Z" fill="#1067DB"/>
<path d="M44.5698 57.5618C44.6954 57.6875 44.6954 57.8132 44.5698 57.9388L44.0671 58.5672C43.9414 58.6929 43.9414 58.9442 44.1927 59.1956L45.4495 60.2009C45.7008 60.3266 45.9521 60.3266 46.0778 60.2009L46.5805 59.5726C46.7062 59.4469 46.8318 59.4469 46.9575 59.4469C47.0832 59.4469 47.0832 59.5726 47.2089 59.5726C47.3345 59.5726 47.4602 59.6982 47.4602 59.9496L47.5859 60.8293C47.5859 61.0806 47.8372 61.2063 48.0886 61.2063H49.5966C49.848 61.2063 49.9736 61.0806 49.9736 60.8293L49.848 59.9496C49.848 59.8239 49.848 59.6982 49.9736 59.5726C50.0993 59.5726 50.0993 59.4469 50.225 59.4469C50.3506 59.4469 50.4763 59.4469 50.602 59.5726L51.356 60.2009C51.6074 60.3266 51.8587 60.3266 51.9844 60.2009L52.8641 59.1956C52.9897 59.0699 52.9897 58.8185 52.7384 58.5672L51.9844 57.9388C51.8587 57.8132 51.8587 57.6875 51.8587 57.5618C51.8587 57.4362 51.8587 57.4362 51.8587 57.3105C51.8587 57.1848 51.9844 57.0591 52.11 57.0591H52.9897C53.2411 57.0591 53.3668 56.9335 53.3668 56.6821L53.1154 55.1741C53.1154 54.9227 52.8641 54.7971 52.6127 54.7971H51.733C51.6074 54.7971 51.4817 54.6714 51.356 54.5457C51.356 54.42 51.2303 54.42 51.2303 54.2944C51.1047 54.1687 51.1047 54.043 51.2303 53.9173L51.733 53.289C51.8587 53.1633 51.8587 52.912 51.6074 52.6606L50.3506 51.6553C50.0993 51.5296 49.848 51.5296 49.7223 51.6553L49.2196 52.2836C49.0939 52.4093 48.9683 52.4093 48.8426 52.4093C48.7169 52.4093 48.7169 52.2836 48.5912 52.2836C48.4656 52.2836 48.3399 52.158 48.3399 51.9066L48.2142 51.0269C48.2142 50.7756 47.9629 50.6499 47.7115 50.6499H46.2035C45.9521 50.6499 45.8265 50.7756 45.8265 51.0269L45.9521 51.9066C45.9521 52.0323 45.9521 52.158 45.8265 52.2836C45.7008 52.2836 45.7008 52.4093 45.5751 52.4093C45.4495 52.4093 45.3238 52.4093 45.1981 52.2836L44.4441 51.6553C44.1927 51.5296 43.9414 51.5296 43.8157 51.6553L42.936 52.6606C42.8104 52.7863 42.8104 53.0376 43.0617 53.289L43.8157 53.9173C43.9414 54.043 43.9414 54.1687 43.9414 54.2944C43.9414 54.42 43.9414 54.42 43.9414 54.5457C43.9414 54.6714 43.8157 54.7971 43.6901 54.7971H42.8104C42.559 54.7971 42.4333 54.9227 42.4333 55.1741L42.6847 56.6821C42.6847 56.9335 42.936 57.0591 43.1874 57.0591H44.3184C44.3184 57.1848 44.4441 57.4362 44.5698 57.5618ZM48.9683 57.9388C47.8372 58.4415 46.3292 57.6875 45.9521 56.4308C45.5751 55.4254 45.9521 54.5457 46.8318 54.1687C47.9629 53.666 49.4709 54.42 49.848 55.6768C50.0993 56.5565 49.7223 57.5618 48.9683 57.9388Z" fill="white"/>
<path d="M12.4389 5.28688L14.0726 17.1C14.3239 18.608 15.5806 19.7391 17.0887 19.7391H18.3454L18.7224 22.5039L19.2251 26.1483C19.2251 26.3997 19.6021 26.5253 19.7278 26.3997L25.6344 19.8648H39.7095C41.2176 19.8648 42.223 18.608 42.0973 17.2257L40.4636 5.41256C40.2122 3.9045 38.9555 2.77345 37.4475 2.77345H14.8266C13.3186 2.64778 12.3132 3.77882 12.4389 5.28688Z" fill="#0CDA97"/>
<path d="M23.6237 8.17724H37.5732C38.0759 8.17724 38.4529 7.67455 38.4529 7.17187C38.3273 6.66918 37.8246 6.1665 37.3219 6.1665H23.3724C22.8697 6.1665 22.4927 6.66918 22.4927 7.17187C22.6183 7.80023 23.121 8.17724 23.6237 8.17724Z" fill="white"/>
<path d="M24.2521 12.5757H38.2016C38.7043 12.5757 39.0813 12.073 39.0813 11.5703C38.9556 11.0676 38.4529 10.5649 37.9503 10.5649H24.0007C23.498 10.5649 23.121 11.0676 23.121 11.5703C23.121 12.073 23.6237 12.5757 24.2521 12.5757Z" fill="white"/>
<path d="M24.7546 16.8486H38.7042C39.2068 16.8486 39.5838 16.3459 39.5838 15.8433C39.4582 15.3406 38.9555 14.8379 38.4528 14.8379H24.5033C24.0006 14.8379 23.6236 15.3406 23.6236 15.8433C23.7493 16.3459 24.2519 16.8486 24.7546 16.8486Z" fill="white"/>
<g opacity="0.3">
<path d="M14.8266 2.64771H31.6666V2.77337L33.3003 15.4662C33.5517 17.0999 32.4206 18.3566 30.7869 18.3566H29.4045L29.6558 19.739H25.6344L24.629 20.87L21.6129 18.3566H14.5753C14.3239 17.9796 14.0726 17.6026 14.0726 17.0999L12.4389 5.2868C12.3132 3.77874 13.3186 2.64771 14.8266 2.64771Z" fill="#231F20"/>
</g>
<path d="M30.7869 2.77343L32.4206 15.4662C32.6719 17.1 31.5409 18.3567 29.9072 18.3567H28.5248L28.9018 21.3728L29.4045 25.2686C29.4045 25.5199 29.0275 25.7713 28.9018 25.5199L20.6075 18.4823H11.9362C10.3024 18.4823 8.92004 17.2256 8.6687 15.5919L7.03497 2.89911C6.78362 1.26538 7.91466 0.00866536 9.54839 0.00866536H27.3937C29.0275 -0.117006 30.5355 1.1397 30.7869 2.77343Z" fill="#1067DB"/>
<path d="M11.9362 5.78961H26.6397C27.0167 5.78961 27.268 5.53827 27.268 5.16125L27.1424 4.5329C27.1424 4.15588 26.7654 3.90454 26.3884 3.90454H11.6848C11.3078 3.90454 11.0565 4.15588 11.0565 4.5329L11.1821 5.16125C11.3078 5.53827 11.5591 5.78961 11.9362 5.78961Z" fill="white"/>
<path d="M12.8158 9.6853H26.7654C27.2681 9.6853 27.6451 9.18262 27.6451 8.67993C27.5194 8.17725 27.0167 7.67456 26.514 7.67456H12.5645C12.0618 7.67456 11.6848 8.17725 11.6848 8.67993C11.6848 9.18262 12.1875 9.6853 12.8158 9.6853Z" fill="white"/>
<path d="M14.0726 13.4556H22.3669C22.8696 13.4556 23.2466 12.9529 23.2466 12.4502C23.1209 11.9475 22.6182 11.4448 22.1155 11.4448H13.8212C13.3185 11.4448 12.9415 11.9475 12.9415 12.4502C12.9415 13.0786 13.4442 13.4556 14.0726 13.4556Z" fill="white"/>
<defs>
<linearGradient id="paint0_linear_66_539" x1="73.2311" y1="42.2253" x2="100.133" y2="42.2253" gradientUnits="userSpaceOnUse">
<stop stop-color="#0CD890"/>
<stop offset="1" stop-color="#01F0FD"/>
</linearGradient>
</defs>
</svg>
