<svg width="522" height="576" viewBox="0 0 522 576" fill="none" xmlns="http://www.w3.org/2000/svg">
<path d="M239.905 178.937C272.645 146.197 272.645 93.1166 239.905 60.3774C207.166 27.6382 154.085 27.6382 121.346 60.3774C88.6069 93.1166 88.6069 146.197 121.346 178.937C154.085 211.676 207.166 211.676 239.905 178.937Z" fill="#3486FE"/>
<path d="M428.65 235.991C427.33 255.37 442.044 272.158 461.52 273.484C480.996 274.811 497.853 260.187 499.18 240.808C500.5 221.429 485.786 204.641 466.31 203.314C446.834 201.987 429.977 216.611 428.65 235.991ZM447.912 237.304C448.513 228.513 456.164 221.871 464.997 222.479C473.836 223.08 480.513 230.697 479.911 239.495C479.31 248.286 471.659 254.928 462.827 254.319C453.987 253.718 447.311 246.102 447.912 237.304Z" fill="#FF6984"/>
<path d="M499.18 240.808C498.855 245.604 497.57 250.11 495.531 254.154L478.26 245.549C479.186 243.711 479.766 241.672 479.918 239.495C480.34 233.316 477.168 227.739 472.178 224.739L482.137 208.276C493.126 214.87 500.113 227.193 499.18 240.808Z" fill="#3486FE"/>
<path d="M141.085 59.4828C153.719 54.2786 168.171 60.3052 173.375 72.9321C178.579 85.566 172.553 100.018 159.926 105.222C147.292 110.426 132.84 104.399 127.636 91.7723C122.432 79.1385 128.458 64.687 141.085 59.4828Z" fill="#FF6984"/>
<path d="M152.393 86.7339C160.196 83.5202 167.826 84.08 169.436 87.9779C171.046 91.8828 166.022 97.6468 158.212 100.861C150.409 104.074 142.779 103.515 141.169 99.6166C139.559 95.7117 144.583 89.9477 152.393 86.7339Z" fill="white"/>
<path d="M144.41 67.3339C148.446 65.6683 153.07 67.5965 154.735 71.6327C156.401 75.6689 155.039 81.6679 150.996 83.3336C146.96 84.9992 141.77 81.6956 140.104 77.6594C138.438 73.6232 140.367 68.9995 144.403 67.3339H144.41Z" fill="white"/>
<path d="M354.665 2.28489e-05L337.96 60.4402L355.387 65.2567L372.092 4.81647L354.665 2.28489e-05Z" fill="#3486FE"/>
<path d="M375.65 25.2279L363.934 67.6153L381.361 72.4317L393.076 30.0443L375.65 25.2279Z" fill="#3486FE"/>
<path d="M397.308 48.0142L389.993 74.4805L407.419 79.297L414.734 52.8306L397.308 48.0142Z" fill="#3486FE"/>
<path opacity="0.56" d="M408.636 56.1934C583.844 122.832 536.571 265.702 393.88 249.129C293.528 237.47 208.028 263.318 132.025 322.23C132.025 322.23 50.1258 247.781 27.3324 241.679C15.8043 238.589 5.22314 225.845 5.22314 225.845C236.662 237.235 160.036 -38.3531 408.636 56.1934Z" fill="url(#paint0_linear_66_1643)"/>
<path d="M146.007 191.862C153.201 195.497 175.691 205.145 180.791 206.873C184.593 208.166 184.005 205.201 184.537 201.496C185.063 197.792 187.869 196.817 190.951 191.371C194.033 185.932 205.195 142.965 226.42 135.811C229.17 134.885 248.405 150.933 237.844 171.55C228.127 190.528 216.834 209.811 216.834 209.811C216.834 209.811 211.291 215.029 208.056 217.04C204.822 219.051 204.552 219.867 204.49 224.428C204.428 228.996 198.781 225.444 196.404 233.454C195.049 238.016 190.834 237.159 179.264 233.136C167.701 229.114 145.758 217.994 138.536 210.108C131.313 202.222 138.805 188.213 146.007 191.848V191.862Z" fill="url(#paint1_linear_66_1643)"/>
<path opacity="0.5" d="M146.007 191.862C153.202 195.497 175.691 205.146 180.792 206.873C184.593 208.166 184.005 205.201 184.538 201.496C185.063 197.792 187.869 196.818 190.951 191.371C193.253 187.301 207.697 140.518 221.617 138.542C222.322 160.001 207.759 171.474 202.832 193.003C197.904 214.531 195.381 209.051 192.043 211.815C188.705 214.573 182.644 217.019 174.247 211.663C167.425 207.316 147.03 196.728 139.614 192.906C141.466 191.309 143.754 190.708 146.007 191.848V191.862Z" fill="#3486FE"/>
<path d="M267.155 534.635C267.846 541.194 272.428 552.798 269.415 556.094C266.402 559.391 248.412 569.316 238.39 573.449C228.369 577.581 216.917 576.178 213.814 572.992C208.264 567.304 203.827 562.93 212.487 560.455C225.058 556.861 236.337 548.036 237.512 535.81C238.687 523.584 267.155 534.628 267.155 534.628V534.635Z" fill="white"/>
<mask id="mask0_66_1643" style="mask-type:luminance" maskUnits="userSpaceOnUse" x="207" y="530" width="64" height="47">
<path d="M267.154 534.635C267.846 541.194 272.428 552.798 269.414 556.095C266.401 559.391 248.411 569.316 238.39 573.449C228.368 577.582 216.916 576.179 213.813 572.993C208.263 567.305 203.826 562.93 212.486 560.456C225.058 556.862 236.337 548.036 237.512 535.81C238.687 523.584 267.154 534.628 267.154 534.628V534.635Z" fill="white"/>
</mask>
<g mask="url(#mask0_66_1643)">
<path d="M207.891 563.378C212.743 569.142 226.026 572.55 234.416 569.847C239.441 568.23 241.901 566.924 249.31 562.397C256.719 557.87 265.04 553.129 271.751 543.895C271.751 543.895 283.542 553.723 284.433 554.428C285.325 555.133 265.579 567.166 265.579 567.166L221.029 585.619L198.028 571.326C198.028 571.326 203.661 558.354 207.884 563.378H207.891Z" fill="url(#paint2_linear_66_1643)"/>
</g>
<path d="M263.941 536.943C264.045 539.645 241.342 546.605 240.961 541.041C240.526 534.724 238.404 530.916 238.404 530.916L262.227 529.741C264.432 535.201 263.838 534.241 263.941 536.943Z" fill="#77A9E5"/>
<path d="M220.345 286.395C220.345 286.395 270.272 240.525 269.146 272.178C268.019 303.832 240.042 398.703 241.77 414.966C242.703 423.771 245.108 433.91 250.617 461.631C251.017 462.073 252.462 479.365 256.076 484.12C258.689 487.548 258.025 490.479 257.369 493.298C256.719 496.118 258.834 498.274 261.758 502.919C264.633 507.494 261.999 514.689 262.2 519.582C262.435 525.401 262.276 529.624 262.228 529.742C259.684 535.236 235.598 538.754 233.076 533.584C230.159 527.613 224.457 511.233 217.422 484.334C205.79 439.86 196.653 413.279 198.215 398.233C199.307 387.666 216.959 322.983 220.352 286.402L220.345 286.395Z" fill="#FF6984"/>
<path d="M213.772 401.081C212.798 391.695 231.175 305.656 232.46 275.675L271.343 283.478C263.008 324.137 240.484 402.926 241.77 414.966C242.703 423.771 245.108 433.909 250.616 461.631C251.017 462.073 252.462 479.365 256.076 484.12C258.689 487.548 258.025 490.478 257.369 493.298C256.719 496.118 258.834 498.274 261.757 502.919C264.632 507.494 261.999 514.689 262.2 519.582C262.435 525.401 262.276 529.624 262.227 529.741C260.251 534.013 245.281 537.081 237.512 535.823C227.691 502.255 210.69 429.341 209.245 424.047C207.455 417.481 214.754 410.473 213.772 401.088V401.081Z" fill="url(#paint3_linear_66_1643)"/>
<path d="M399.906 427.717C405.74 429.431 417.247 429.604 418.995 433.336C420.744 437.061 424.987 462.08 424.987 472.08C424.987 482.081 417.475 494.307 413.674 495.835C406.873 498.564 401.586 500.818 402.519 492.559C403.873 480.574 396.299 460.698 386.291 455.403C376.284 450.109 399.906 427.724 399.906 427.724V427.717Z" fill="white"/>
<mask id="mask1_66_1643" style="mask-type:luminance" maskUnits="userSpaceOnUse" x="383" y="427" width="42" height="72">
<path d="M399.906 427.717C405.74 429.431 417.247 429.604 418.995 433.336C420.744 437.061 424.987 462.08 424.987 472.081C424.987 482.081 417.475 494.307 413.674 495.835C406.873 498.565 401.586 500.818 402.519 492.559C403.873 480.575 396.299 460.698 386.291 455.404C376.284 450.11 399.906 427.724 399.906 427.724V427.717Z" fill="white"/>
</mask>
<g mask="url(#mask1_66_1643)">
<path d="M403.39 497.5C410.011 495.392 419.88 482.302 420.523 474.202C420.91 469.344 418.567 460.601 417.309 452.688C416.052 444.781 414.939 436.017 409.424 427.053C409.424 427.053 421.947 420.46 422.859 419.942C423.778 419.43 429.383 437.531 429.383 437.531L429.266 491.156L406.701 508.704C406.701 508.704 397.626 499.346 403.39 497.507V497.5Z" fill="url(#paint4_linear_66_1643)"/>
</g>
<path d="M404.351 430.019C406.362 430.979 400.273 449.156 396.361 452.314C392.45 455.473 382.076 450.386 382.076 450.386L395.705 428.429C400.681 428.823 402.333 429.058 404.351 430.019Z" fill="#77A9E5"/>
<path d="M306.93 254.112C322.743 289.982 300.537 360.574 310.565 398.095C312.728 406.195 319.273 390.5 385.477 424.137C394.973 428.961 397.012 426.045 400.605 426.791C405.747 427.862 390.612 457.097 386.99 454.471C365.848 439.162 315.189 436.964 289.327 431.746C276.686 429.196 268.454 433.032 259.041 387.991C250.029 344.837 240.948 312.533 239.434 306.555C231.32 274.459 283.756 201.545 306.93 254.112Z" fill="url(#paint5_linear_66_1643)"/>
<path d="M261.232 322.499C262.732 342.356 267.542 382.158 272.608 396.284C278.801 413.57 275.732 409.699 288.753 424.662C295.602 432.534 314.477 437.877 288.615 432.659C275.974 430.108 267.743 433.944 258.33 388.903C249.317 345.749 249.303 347.159 248.515 341.049C246.933 328.761 259.332 297.342 261.225 322.499H261.232Z" fill="#FF6984"/>
<path d="M242.572 221.643C258.8 223.668 277.44 225.624 287.074 226.971C287.074 226.971 291.65 208.553 295.465 195.352C298.969 183.251 293.557 170.575 300.607 162.627C307.656 154.679 311.623 147.077 319.585 157.52C327.554 167.97 317.809 189.042 311.43 203.494C305.051 217.945 302.901 232.846 298.9 240.048C293.744 249.316 290.744 250.691 280.688 247.235C269.07 243.248 250.583 241.54 236.262 232.839C231.328 229.84 236.103 220.834 242.566 221.636L242.572 221.643Z" fill="url(#paint6_linear_66_1643)"/>
<path d="M289.562 114.884L291.048 128.451L242.828 147.733L242.323 120.537L268.206 112.099C268.206 112.099 283.321 110.903 289.555 114.884H289.562Z" fill="#001F99"/>
<path d="M217.477 88.7869C202.998 75.6761 216.675 64.936 228.196 54.9284C232.758 50.9613 251.971 39.8411 260.472 52.6477C266.623 51.4382 271.724 54.3271 274.917 67.818C278.904 84.6677 273.355 92.0697 272.553 106.266L227.657 86.3472L217.477 88.7869Z" fill="#FF6984"/>
<mask id="mask2_66_1643" style="mask-type:luminance" maskUnits="userSpaceOnUse" x="211" y="46" width="66" height="61">
<path d="M217.477 88.7869C202.998 75.6761 216.675 64.936 228.196 54.9284C232.758 50.9613 251.971 39.8411 260.472 52.6477C266.623 51.4382 271.723 54.3271 274.916 67.818C278.904 84.6677 273.355 92.0697 272.553 106.266L227.657 86.3472L217.477 88.7869Z" fill="white"/>
</mask>
<g mask="url(#mask2_66_1643)">
<g style="mix-blend-mode:multiply">
<path d="M220.725 82.7812C230.809 77.4388 233.02 79.2841 238.287 70.6035C244.065 61.0797 244.341 56.3455 250.713 52.4129C255.772 49.289 258.115 51.1966 257.714 53.422C252.731 57.4651 248.875 63.5678 248.488 65.5375C246.594 75.1096 258.717 87.2597 264.004 94.5857L262.075 98.3662L232.592 90.1624L216.115 89.3677C216.115 89.3677 217.691 84.3846 220.732 82.7743L220.725 82.7812Z" fill="#B7CFF5"/>
</g>
</g>
<path d="M256.891 98.0689C262.579 94.6754 264.805 93.4867 264.805 93.4867C265.406 91.3925 265.102 86.686 269.173 85.4005C277.155 82.8847 276.955 101.352 272.988 101.317C267.873 101.269 276.25 122.507 287.322 129.467C294.192 133.78 260.223 142.377 251.95 140.159C237.616 136.309 254.3 115.713 245.073 107.931C241.673 105.063 249.503 97.9375 256.898 98.0689H256.891Z" fill="url(#paint7_linear_66_1643)"/>
<mask id="mask3_66_1643" style="mask-type:luminance" maskUnits="userSpaceOnUse" x="244" y="85" width="45" height="56">
<path d="M256.89 98.069C262.578 94.6755 264.804 93.4868 264.804 93.4868C265.405 91.3927 265.101 86.6861 269.172 85.4006C277.154 82.8849 276.954 101.352 272.987 101.317C267.873 101.269 276.249 122.507 287.321 129.467C294.191 133.78 260.222 142.377 251.949 140.159C237.615 136.309 254.299 115.714 245.072 107.931C241.672 105.063 249.502 97.9377 256.897 98.069H256.89Z" fill="white"/>
</mask>
<g mask="url(#mask3_66_1643)">
<path style="mix-blend-mode:multiply" d="M273.844 74.9233C319.708 140 295.055 144.41 272.752 147.34C272.752 147.34 273.063 117.704 254.299 115.714C234.616 113.634 273.851 74.9233 273.851 74.9233H273.844Z" fill="url(#paint8_linear_66_1643)"/>
<path style="mix-blend-mode:multiply" d="M259.697 134.222L260.202 145.405C260.202 145.405 237.395 148.093 237.36 147.464C237.325 146.835 236.199 121.906 236.199 121.906L247.831 118.333C247.99 133.296 259.69 134.222 259.69 134.222H259.697Z" fill="url(#paint9_linear_66_1643)"/>
</g>
<path style="mix-blend-mode:multiply" d="M271.724 90.3697C272.906 92.4016 273.465 101.483 268.766 99.4788C266.692 98.5941 266.589 95.4564 266.761 94.0189C267.404 88.5037 270.542 88.3378 271.731 90.3697H271.724Z" fill="url(#paint10_linear_66_1643)"/>
<path d="M254.937 90.0589C260.618 98.85 270.701 99.942 265.933 108.325C258.931 120.634 256.167 121.077 249.58 122.556C243.139 124 233.049 112.161 231.632 108.934C228.805 102.499 228.985 98.7809 227.81 95.8574C226.49 92.5746 224.907 92.5607 224.258 85.7531C224.258 85.7531 230.174 84.5851 235.495 79.8992C238.674 77.1002 242.496 77.2315 246.754 79.6573C251.108 82.1385 250.866 83.7765 254.93 90.0589H254.937Z" fill="url(#paint11_linear_66_1643)"/>
<mask id="mask4_66_1643" style="mask-type:luminance" maskUnits="userSpaceOnUse" x="224" y="77" width="44" height="46">
<path d="M254.938 90.0589C260.619 98.85 270.702 99.942 265.933 108.325C258.932 120.634 256.168 121.077 249.581 122.556C243.14 124 233.05 112.161 231.633 108.934C228.806 102.499 228.986 98.7809 227.811 95.8574C226.491 92.5746 224.908 92.5607 224.258 85.7531C224.258 85.7531 230.174 84.5851 235.496 79.8992C238.675 77.1002 242.497 77.2315 246.755 79.6573C251.109 82.1385 250.867 83.7765 254.931 90.0589H254.938Z" fill="white"/>
</mask>
<g mask="url(#mask4_66_1643)">
<path style="mix-blend-mode:multiply" d="M290.301 105.208C290.142 108.471 279.292 111.228 282.664 118.243C285.954 125.085 251.584 122.148 254.522 123.779L239.13 131.914C238.563 132.079 249.117 126.15 252.027 113.371C253.25 108.014 245.074 107.938 248.516 92.7542C250.002 86.2161 220.677 101.338 227.512 79.6158C230.795 69.1867 292.907 51.245 290.301 105.201V105.208Z" fill="url(#paint12_linear_66_1643)"/>
</g>
<path d="M278.496 134.747C313.744 124.339 300.612 286.492 300.612 286.492C259.255 296.078 224.498 285.234 224.498 285.234L221.561 160.796L233.137 132.695C233.137 132.695 243.249 145.156 278.496 134.74V134.747Z" fill="white"/>
<g style="mix-blend-mode:multiply">
<path d="M243.678 134.298C248.198 136.648 256.519 138.797 256.519 138.797C256.519 138.797 254.307 184.218 255.24 199.775C256.166 215.333 247.285 253.124 248.896 271.024C250.506 288.924 229.489 316.438 229.489 316.438C229.489 316.438 220.829 312.582 212.259 307.156C203.689 301.731 232.24 144.665 232.24 144.665C232.24 144.665 240.243 132.515 243.678 134.305V134.298Z" fill="#72ABFE"/>
</g>
<path d="M263.976 134.27C283.286 127.234 289.569 114.884 289.569 114.884C289.569 114.884 298.215 125.672 301.207 128.637C304.2 131.609 305.23 132.846 315.887 137.905C325.825 142.626 329.44 188.033 328.113 199.167C320.766 260.664 320.898 241.388 354.127 310.971C361.543 326.494 308.865 350.994 308.865 350.994C262.311 300.113 269.657 162.834 269.491 153.995C269.381 147.927 263.983 134.27 263.983 134.27H263.976Z" fill="url(#paint13_linear_66_1643)"/>
<path d="M211.478 255.301C212.867 227.538 211.755 187.218 214.429 160.201C215.59 148.48 215.404 139.412 226.414 135.818C238.045 132.024 242.323 120.544 242.323 120.544C242.323 120.544 241.826 125.88 246.678 133.966C246.678 133.966 243.18 145.639 242.828 147.733C236.704 184.737 243.001 228.934 238.508 275.06C237.361 286.823 218.763 331.111 218.763 331.111C218.763 331.111 191.857 329.355 197.269 312.969C204.09 292.297 210.566 273.415 211.471 255.301H211.478Z" fill="url(#paint14_linear_66_1643)"/>
<path d="M123.062 184.28C122.723 183.665 118.093 182.58 115.535 182.891C110.352 183.527 113.089 179.291 116.537 179.263C119.191 179.242 122.613 178.917 125.294 180.88C127.976 182.843 134.3 185.538 134.88 185.213C135.461 184.896 135.841 182.96 132.122 180.244C128.404 177.528 129.987 174.266 135.965 178.634C141.943 183.002 144.079 191.841 148.295 194.917C152.504 197.992 140.692 205.74 140.692 205.74C123.884 200.874 130.554 197.419 121.327 195.097C112.287 192.816 111.589 190.77 111.119 187.626C110.469 183.251 118.528 183.513 123.062 184.274V184.28Z" fill="url(#paint15_linear_66_1643)"/>
<g style="mix-blend-mode:multiply">
<path d="M317.09 192.774C319.405 224.297 312.915 245.155 311.298 256.047C309.674 266.939 296.777 279.428 304.345 276.67C311.913 273.913 325.079 266.241 325.079 266.241C325.079 266.241 336.794 292.884 337.948 298.565L325.079 272.959C325.079 272.959 302.956 280.161 296.231 282.614C289.507 285.061 278.407 265.543 278.407 265.543V236.537L299.473 179.56L317.09 192.767V192.774Z" fill="#A5BCD9"/>
</g>
<path d="M261.205 246.219C262.553 241.188 269.816 243.476 270.549 240.469C271.275 237.463 273.728 235.002 276.873 232.611C280.024 230.213 279.52 227.338 279.838 223.682C280.156 220.026 291.608 146.137 305.133 140.456C318.659 134.775 321.188 162.33 324.561 173.174C329.641 189.498 307.22 245.1 300.904 253.151C294.587 261.203 245.572 283.609 235.495 288.682C225.425 293.755 225.232 294.509 220.366 296.022C215.501 297.536 204.767 288.012 212.688 280.693C220.608 273.374 259.857 251.251 261.205 246.219Z" fill="url(#paint16_linear_66_1643)"/>
<path d="M189.182 294.073C195.05 294.349 193.723 290.472 187.731 287.328C181.732 284.176 186.729 281.246 192.244 284.141C197.759 287.037 199.805 285.676 203.862 285.137C207.919 284.604 214.65 282.835 214.65 282.835C220.11 288.42 220.283 294.363 216.537 297.218C212.784 300.072 204.546 304.143 201.761 306.264C198.975 308.386 183.017 308.835 178.988 306.714C174.959 304.592 173.708 304.129 173.113 300.936C172.339 296.768 183.314 293.797 189.182 294.073Z" fill="url(#paint17_linear_66_1643)"/>
<path opacity="0.5" d="M261.205 246.22C262.552 241.188 269.816 243.476 270.549 240.469C271.274 237.463 273.728 235.002 276.872 232.611C280.024 230.213 279.52 227.338 279.837 223.682C280.024 221.498 284.178 194.343 290.363 171.564L284.896 234.056C284.896 234.056 281.254 240.711 275.739 246.385C270.224 252.06 262.711 250.332 246.352 264.493C233.449 275.662 221.174 280.617 212.943 280.465C221.402 272.925 259.871 251.203 261.205 246.226V246.22Z" fill="#3486FE"/>
<path d="M65.1446 298.427L124.347 272.586C127.173 271.356 132.474 271.37 136.186 272.627L200.005 294.211C201.622 294.757 202.907 293.175 203.343 293.88C203.488 294.115 203.336 296.623 203.343 296.858C203.364 297.536 202.804 298.192 201.622 298.711L142.42 324.552C139.593 325.782 134.292 325.768 130.581 324.511L66.7618 302.927C63.0435 301.669 62.3247 299.658 65.1446 298.42V298.427Z" fill="url(#paint18_linear_66_1643)"/>
<path d="M65.1446 295.462L124.347 269.621C127.173 268.391 132.474 268.405 136.186 269.662L200.005 291.246C203.723 292.504 204.442 294.515 201.622 295.753L142.42 321.594C139.593 322.824 134.292 322.81 130.581 321.552L66.7618 299.968C63.0435 298.711 62.3247 296.699 65.1446 295.462Z" fill="url(#paint19_linear_66_1643)"/>
<path d="M65.1446 295.462L124.347 269.621C127.173 268.391 132.474 268.405 136.186 269.662L200.005 291.246C203.723 292.504 204.442 294.515 201.622 295.753L142.42 321.594C139.593 322.824 134.292 322.81 130.581 321.552L66.7618 299.968C63.0435 298.711 62.3247 296.699 65.1446 295.462Z" fill="#3486FE"/>
<path d="M128.486 286.74L147.589 278.405C148.502 278.004 150.209 278.011 151.411 278.419L172 285.386C173.196 285.793 173.431 286.443 172.518 286.837L153.415 295.172C152.503 295.573 150.796 295.566 149.593 295.158L129.005 288.192C127.802 287.784 127.574 287.134 128.486 286.74Z" fill="url(#paint20_linear_66_1643)"/>
<path d="M3.90287 221.208L92.6508 253.476C95.5467 254.527 99.3755 258.197 101.207 261.666L132.577 321.283C134.409 324.753 133.538 326.715 130.642 325.658L41.9012 293.389C39.0054 292.339 35.1765 288.669 33.345 285.199L1.96771 225.582C0.136216 222.113 1.00704 220.15 3.90287 221.208Z" fill="url(#paint21_linear_66_1643)"/>
<path d="M2.88742 221.995L91.6285 254.264C94.5243 255.314 98.3532 258.984 100.185 262.454L131.555 322.071C133.387 325.54 132.516 327.503 129.62 326.446L40.8788 294.177C37.983 293.126 34.1541 289.456 32.3226 285.987L0.959165 226.37C-0.872328 222.9 -0.00150508 220.938 2.89433 221.995H2.88742Z" fill="url(#paint22_linear_66_1643)"/>
<path d="M200.392 286.374C200.392 286.374 204.442 295.449 203.343 293.88C202.244 292.318 184.095 288.489 184.952 284.467C185.809 280.444 190.509 283.851 200.392 286.367V286.374Z" fill="url(#paint23_linear_66_1643)"/>
<path d="M407.681 455.971C408.317 455.701 409.05 456.005 409.312 456.634C409.582 457.27 409.278 457.996 408.649 458.265C398.372 462.585 398.648 467.533 398.648 467.561C398.731 468.245 398.247 468.867 397.563 468.95C397.515 468.95 397.46 468.957 397.411 468.957C396.789 468.957 396.257 468.494 396.174 467.865C396.139 467.588 395.483 461.092 407.681 455.971Z" fill="#91BEFF"/>
<path d="M409.182 462.115C409.818 461.845 410.55 462.149 410.813 462.778C411.082 463.414 410.778 464.14 410.149 464.409C399.872 468.729 400.149 473.677 400.149 473.705C400.232 474.389 399.748 475.011 399.064 475.094C399.008 475.094 398.96 475.101 398.912 475.101C398.29 475.101 397.757 474.638 397.674 474.009C397.64 473.732 396.99 467.236 409.182 462.115Z" fill="#91BEFF"/>
<path d="M410.923 469.109C411.559 468.839 412.291 469.143 412.554 469.772C412.823 470.408 412.519 471.134 411.89 471.403C401.613 475.723 401.89 480.671 401.89 480.699C401.973 481.383 401.489 482.005 400.805 482.088C400.749 482.088 400.701 482.095 400.653 482.095C400.031 482.095 399.498 481.632 399.415 481.003C399.381 480.727 398.731 474.23 410.923 469.109Z" fill="#91BEFF"/>
<path d="M240.961 550.614C241.486 551.056 241.548 551.844 241.106 552.369C240.857 552.66 240.512 552.805 240.152 552.805C239.869 552.805 239.578 552.708 239.344 552.508C230.85 545.285 226.558 547.766 226.537 547.78C225.97 548.16 225.189 548.015 224.809 547.442C224.422 546.868 224.581 546.094 225.148 545.714C225.376 545.555 230.877 542.044 240.961 550.614Z" fill="#91BEFF"/>
<path d="M236.151 554.726C236.676 555.175 236.738 555.956 236.296 556.481C236.047 556.772 235.701 556.917 235.342 556.917C235.059 556.917 234.768 556.82 234.533 556.62C226.04 549.397 221.748 551.878 221.727 551.892C221.16 552.272 220.379 552.127 219.999 551.554C219.612 550.98 219.764 550.206 220.338 549.826C220.566 549.667 226.074 546.156 236.151 554.726Z" fill="#91BEFF"/>
<path d="M230.697 559.432C231.223 559.882 231.285 560.663 230.842 561.188C230.594 561.478 230.248 561.623 229.889 561.623C229.605 561.623 229.315 561.527 229.08 561.326C220.586 554.104 216.294 556.585 216.273 556.599C215.7 556.979 214.933 556.834 214.546 556.26C214.166 555.686 214.318 554.912 214.884 554.532C215.112 554.38 220.614 550.862 230.697 559.432Z" fill="#91BEFF"/>
<path d="M396.983 149.613C396.983 158.37 404.081 165.468 412.838 165.468C421.594 165.468 428.692 158.37 428.692 149.613C428.692 140.856 421.594 133.759 412.838 133.759C404.081 133.759 396.983 140.856 396.983 149.613ZM405.643 149.613C405.643 145.639 408.864 142.418 412.838 142.418C416.812 142.418 420.033 145.639 420.033 149.613C420.033 153.587 416.812 156.808 412.838 156.808C408.864 156.808 405.643 153.587 405.643 149.613Z" fill="white"/>
<defs>
<linearGradient id="paint0_linear_66_1643" x1="-11.5367" y1="188.586" x2="439.156" y2="170.817" gradientUnits="userSpaceOnUse">
<stop stop-color="#3486FE"/>
<stop offset="0.77" stop-color="#2848BD"/>
<stop offset="1" stop-color="#3486FE"/>
</linearGradient>
<linearGradient id="paint1_linear_66_1643" x1="240.982" y1="186.16" x2="135.605" y2="186.16" gradientUnits="userSpaceOnUse">
<stop offset="0.57" stop-color="#172182"/>
<stop offset="0.63" stop-color="#182688"/>
<stop offset="0.72" stop-color="#1D369B"/>
<stop offset="0.82" stop-color="#244FBB"/>
<stop offset="0.94" stop-color="#2E72E6"/>
<stop offset="1" stop-color="#3486FE"/>
</linearGradient>
<linearGradient id="paint2_linear_66_1643" x1="284.468" y1="564.76" x2="198.035" y2="564.76" gradientUnits="userSpaceOnUse">
<stop stop-color="#FF6984"/>
<stop offset="1" stop-color="#252D4D"/>
</linearGradient>
<linearGradient id="paint3_linear_66_1643" x1="271.35" y1="405.891" x2="208.955" y2="405.891" gradientUnits="userSpaceOnUse">
<stop stop-color="#FF6984"/>
<stop offset="1" stop-color="#252D4D"/>
</linearGradient>
<linearGradient id="paint4_linear_66_1643" x1="429.383" y1="464.312" x2="401.476" y2="464.312" gradientUnits="userSpaceOnUse">
<stop stop-color="#FF6984"/>
<stop offset="1" stop-color="#252D4D"/>
</linearGradient>
<linearGradient id="paint5_linear_66_1643" x1="462.171" y1="438.16" x2="200.15" y2="282.739" gradientUnits="userSpaceOnUse">
<stop stop-color="#FF6984"/>
<stop offset="1" stop-color="#252D4D"/>
</linearGradient>
<linearGradient id="paint6_linear_66_1643" x1="322.585" y1="200.702" x2="234.231" y2="200.702" gradientUnits="userSpaceOnUse">
<stop stop-color="#FED1BC"/>
<stop offset="1" stop-color="#EB8AA4"/>
</linearGradient>
<linearGradient id="paint7_linear_66_1643" x1="244.251" y1="112.845" x2="288.234" y2="112.845" gradientUnits="userSpaceOnUse">
<stop stop-color="#FED1BC"/>
<stop offset="1" stop-color="#EB8AA4"/>
</linearGradient>
<linearGradient id="paint8_linear_66_1643" x1="299.72" y1="111.132" x2="248.77" y2="111.132" gradientUnits="userSpaceOnUse">
<stop stop-color="#FED1BC"/>
<stop offset="1" stop-color="#EB8AA4"/>
</linearGradient>
<linearGradient id="paint9_linear_66_1643" x1="260.202" y1="132.944" x2="236.199" y2="132.944" gradientUnits="userSpaceOnUse">
<stop stop-color="#FED1BC"/>
<stop offset="1" stop-color="#EB8AA4"/>
</linearGradient>
<linearGradient id="paint10_linear_66_1643" x1="272.553" y1="94.4681" x2="266.706" y2="94.4681" gradientUnits="userSpaceOnUse">
<stop stop-color="#FED1BC"/>
<stop offset="1" stop-color="#EB8AA4"/>
</linearGradient>
<linearGradient id="paint11_linear_66_1643" x1="224.264" y1="100.246" x2="267.177" y2="100.246" gradientUnits="userSpaceOnUse">
<stop stop-color="#FED1BC"/>
<stop offset="1" stop-color="#EB8AA4"/>
</linearGradient>
<linearGradient id="paint12_linear_66_1643" x1="290.384" y1="100.053" x2="226.482" y2="100.053" gradientUnits="userSpaceOnUse">
<stop stop-color="#FED1BC"/>
<stop offset="1" stop-color="#EB8AA4"/>
</linearGradient>
<linearGradient id="paint13_linear_66_1643" x1="444.949" y1="232.245" x2="254.37" y2="233.157" gradientUnits="userSpaceOnUse">
<stop offset="0.57" stop-color="#172182"/>
<stop offset="0.63" stop-color="#182688"/>
<stop offset="0.72" stop-color="#1D369B"/>
<stop offset="0.82" stop-color="#244FBB"/>
<stop offset="0.94" stop-color="#2E72E6"/>
<stop offset="1" stop-color="#3486FE"/>
</linearGradient>
<linearGradient id="paint14_linear_66_1643" x1="246.678" y1="225.831" x2="196.557" y2="225.831" gradientUnits="userSpaceOnUse">
<stop offset="0.57" stop-color="#172182"/>
<stop offset="0.63" stop-color="#182688"/>
<stop offset="0.72" stop-color="#1D369B"/>
<stop offset="0.82" stop-color="#244FBB"/>
<stop offset="0.94" stop-color="#2E72E6"/>
<stop offset="1" stop-color="#3486FE"/>
</linearGradient>
<linearGradient id="paint15_linear_66_1643" x1="149.207" y1="191.116" x2="111.084" y2="191.116" gradientUnits="userSpaceOnUse">
<stop stop-color="#FED1BC"/>
<stop offset="1" stop-color="#EB8AA4"/>
</linearGradient>
<linearGradient id="paint16_linear_66_1643" x1="364.681" y1="217.448" x2="168.732" y2="218.388" gradientUnits="userSpaceOnUse">
<stop offset="0.57" stop-color="#172182"/>
<stop offset="0.63" stop-color="#182688"/>
<stop offset="0.72" stop-color="#1D369B"/>
<stop offset="0.82" stop-color="#244FBB"/>
<stop offset="0.94" stop-color="#2E72E6"/>
<stop offset="1" stop-color="#3486FE"/>
</linearGradient>
<linearGradient id="paint17_linear_66_1643" x1="219.087" y1="295.462" x2="173.072" y2="295.462" gradientUnits="userSpaceOnUse">
<stop stop-color="#FED1BC"/>
<stop offset="1" stop-color="#EB8AA4"/>
</linearGradient>
<linearGradient id="paint18_linear_66_1643" x1="203.405" y1="298.572" x2="63.4236" y2="298.572" gradientUnits="userSpaceOnUse">
<stop offset="0.57" stop-color="#172182"/>
<stop offset="0.63" stop-color="#182688"/>
<stop offset="0.72" stop-color="#1D369B"/>
<stop offset="0.82" stop-color="#244FBB"/>
<stop offset="0.94" stop-color="#2E72E6"/>
<stop offset="1" stop-color="#3486FE"/>
</linearGradient>
<linearGradient id="paint19_linear_66_1643" x1="203.343" y1="295.6" x2="63.4236" y2="295.6" gradientUnits="userSpaceOnUse">
<stop stop-color="#FF6984"/>
<stop offset="1" stop-color="#252D4D"/>
</linearGradient>
<linearGradient id="paint20_linear_66_1643" x1="173.071" y1="286.782" x2="127.933" y2="286.782" gradientUnits="userSpaceOnUse">
<stop offset="0.57" stop-color="#172182"/>
<stop offset="0.63" stop-color="#182688"/>
<stop offset="0.72" stop-color="#1D369B"/>
<stop offset="0.82" stop-color="#244FBB"/>
<stop offset="0.94" stop-color="#2E72E6"/>
<stop offset="1" stop-color="#3486FE"/>
</linearGradient>
<linearGradient id="paint21_linear_66_1643" x1="133.531" y1="273.429" x2="1.01395" y2="273.429" gradientUnits="userSpaceOnUse">
<stop offset="0.57" stop-color="#172182"/>
<stop offset="0.63" stop-color="#182688"/>
<stop offset="0.72" stop-color="#1D369B"/>
<stop offset="0.82" stop-color="#244FBB"/>
<stop offset="0.94" stop-color="#2E72E6"/>
<stop offset="1" stop-color="#3486FE"/>
</linearGradient>
<linearGradient id="paint22_linear_66_1643" x1="-23.0161" y1="108.249" x2="105.285" y2="346.779" gradientUnits="userSpaceOnUse">
<stop offset="0.57" stop-color="#172182"/>
<stop offset="0.63" stop-color="#182688"/>
<stop offset="0.72" stop-color="#1D369B"/>
<stop offset="0.82" stop-color="#244FBB"/>
<stop offset="0.94" stop-color="#2E72E6"/>
<stop offset="1" stop-color="#3486FE"/>
</linearGradient>
<linearGradient id="paint23_linear_66_1643" x1="203.529" y1="288.337" x2="184.924" y2="288.337" gradientUnits="userSpaceOnUse">
<stop stop-color="#FED1BC"/>
<stop offset="1" stop-color="#EB8AA4"/>
</linearGradient>
</defs>
</svg>
